<svg width="326" height="243" viewBox="0 0 326 243" fill="none" xmlns="http://www.w3.org/2000/svg">
<path d="M325.006 212.814H0V212.977H325.006V212.814Z" fill="#EBEBEB"/>
<path d="M292.441 223.273H270.912V223.435H292.441V223.273Z" fill="#EBEBEB"/>
<path d="M215.297 225.041H209.648V225.203H215.297V225.041Z" fill="#EBEBEB"/>
<path d="M270.262 217.241H257.788V217.403H270.262V217.241Z" fill="#EBEBEB"/>
<path d="M62.1738 218.333H34.0997V218.495H62.1738V218.333Z" fill="#EBEBEB"/>
<path d="M72.0799 218.333H67.9653V218.495H72.0799V218.333Z" fill="#EBEBEB"/>
<path d="M146.35 221.076H85.4572V221.238H146.35V221.076Z" fill="#EBEBEB"/>
<path d="M154.053 183.824H28.542C27.5588 183.822 26.6164 183.43 25.9218 182.734C25.2271 182.038 24.837 181.095 24.837 180.112V3.67907C24.8455 2.70147 25.2395 1.76672 25.9332 1.07786C26.6269 0.389005 27.5644 0.00167468 28.542 0H154.053C155.037 0 155.981 0.39104 156.677 1.08709C157.374 1.78315 157.765 2.7272 157.765 3.71157V180.112C157.765 181.096 157.374 182.04 156.677 182.736C155.981 183.433 155.037 183.824 154.053 183.824ZM28.542 0.130003C27.6019 0.131725 26.7009 0.506402 26.0367 1.17179C25.3725 1.83719 24.9995 2.73892 24.9995 3.67907V180.112C24.9995 181.052 25.3725 181.954 26.0367 182.619C26.7009 183.285 27.6019 183.659 28.542 183.661H154.053C154.994 183.659 155.895 183.285 156.561 182.62C157.226 181.954 157.6 181.053 157.602 180.112V3.67907C157.6 2.73833 157.226 1.83661 156.561 1.1714C155.895 0.506191 154.994 0.131721 154.053 0.130003H28.542Z" fill="#EBEBEB"/>
<path d="M294.657 183.824H169.14C168.156 183.822 167.213 183.43 166.517 182.735C165.821 182.039 165.43 181.096 165.428 180.112V3.67907C165.438 2.70088 165.834 1.76613 166.528 1.07746C167.223 0.388778 168.161 0.00165642 169.14 0H294.657C295.634 0.00338299 296.569 0.391469 297.262 1.08014C297.954 1.76882 298.347 2.70259 298.356 3.67907V180.112C298.356 181.094 297.966 182.036 297.273 182.732C296.58 183.428 295.639 183.82 294.657 183.824ZM169.14 0.130003C168.199 0.131721 167.297 0.506191 166.632 1.1714C165.967 1.83661 165.592 2.73833 165.591 3.67907V180.112C165.592 181.053 165.967 181.954 166.632 182.62C167.297 183.285 168.199 183.659 169.14 183.661H294.657C295.598 183.659 296.5 183.285 297.165 182.62C297.83 181.954 298.204 181.053 298.206 180.112V3.67907C298.204 2.73833 297.83 1.83661 297.165 1.1714C296.5 0.506191 295.598 0.131721 294.657 0.130003H169.14Z" fill="#EBEBEB"/>
<path d="M50.753 56.3756L82.8701 37.6877H107.623L140.279 55.4916V176.602H50.753V56.3756Z" fill="#E0E0E0"/>
<path d="M141.196 176.602H50.753V56.3496L51.6695 55.4656C63.5737 44.0202 79.4606 37.65 95.9743 37.7007C112.492 37.6667 128.378 44.0502 140.279 55.5046L141.196 56.3886V176.602ZM56.7526 170.602H135.203V58.9496C124.499 49.133 110.504 43.6868 95.9809 43.6868C81.4576 43.6868 67.4623 49.133 56.7591 58.9496L56.7526 170.602Z" fill="#FAFAFA"/>
<path d="M93.7253 171.324H98.2234V131.134H136.334V126.635H98.2234V85.5221H136.334V81.024H98.2234V42.9138H93.7253V81.024H55.6151V85.5221H93.7253V126.635H55.6151V131.134H93.7253V171.324Z" fill="#F0F0F0"/>
<path d="M144.199 179.605H47.7499V55.1535L48.6274 54.276C61.1954 41.7393 78.2225 34.6989 95.9743 34.6989C113.726 34.6989 130.753 41.7393 143.321 54.276L144.199 55.1535V179.605ZM53.7495 173.605H138.199V57.6561C126.838 46.7689 111.71 40.691 95.9743 40.691C80.2386 40.691 65.111 46.7689 53.7495 57.6561V173.605Z" fill="#F0F0F0"/>
<path d="M256.696 50.792C256.696 50.792 257.567 45.0329 253.368 41.3408C249.169 37.6487 249.533 35.4452 250.736 35.1592C251.938 34.8732 253.043 38.5652 254.889 39.5858C254.889 39.5858 254.948 34.3207 253.076 32.3836C251.204 30.4466 250.209 25.448 251.997 25.3505C253.784 25.253 253.947 28.3211 254.337 30.4856C254.727 32.6501 256.696 35.6857 256.696 35.6857C256.696 35.6857 257.086 30.9731 258.295 29.0361C259.504 27.099 256.274 22.6659 257.522 20.7224C258.77 18.7789 260.987 22.4774 260.772 26.6375C260.558 30.7976 257.821 35.2242 258.464 39.5663C258.464 39.5663 259.686 36.5177 260.785 36.2382C261.884 35.9587 262.989 33.9502 263.73 33.2026C264.471 32.4551 265.394 35.0422 263.73 37.4407C262.066 39.8393 257.821 46.2679 258.464 51.455L256.696 50.792Z" fill="#E6E6E6"/>
<path d="M254.155 48.1725L252.783 56.8046C252.683 57.4319 252.719 58.0736 252.891 58.6853C253.063 59.297 253.365 59.8641 253.777 60.3475C254.19 60.8308 254.702 61.2189 255.279 61.4848C255.856 61.7508 256.484 61.8883 257.119 61.8878H258.588C259.223 61.8872 259.85 61.7489 260.427 61.4826C261.003 61.2163 261.515 60.8283 261.927 60.3452C262.339 59.8621 262.642 59.2954 262.814 58.6842C262.986 58.073 263.023 57.4318 262.924 56.8046L261.546 48.1725H254.155Z" fill="#E6E6E6"/>
<path d="M274.994 58.7026H177.733V63.7012H274.994V58.7026Z" fill="#E0E0E0"/>
<path d="M186.495 40.2814H182.211V58.7027H186.495V40.2814Z" fill="#EBEBEB"/>
<path d="M207.211 40.2814H202.927V58.7027H207.211V40.2814Z" fill="#EBEBEB"/>
<path d="M230.732 39.8209L226.511 40.5486L229.64 58.7022L233.861 57.9746L230.732 39.8209Z" fill="#EBEBEB"/>
<path d="M191.806 42.7058H187.522V58.6961H191.806V42.7058Z" fill="#EBEBEB"/>
<path d="M201.653 42.7058H197.37V58.6961H201.653V42.7058Z" fill="#EBEBEB"/>
<path d="M226.51 42.7058H222.226V58.6961H226.51V42.7058Z" fill="#EBEBEB"/>
<path d="M212.84 42.147L208.659 43.0763L212.128 58.6858L216.309 57.7564L212.84 42.147Z" fill="#EBEBEB"/>
<path d="M195.511 39.3647H193.366V58.7026H195.511V39.3647Z" fill="#EBEBEB"/>
<path d="M220.998 39.3647H218.853V58.7026H220.998V39.3647Z" fill="#EBEBEB"/>
<path d="M177.733 101.005L274.994 101.005V96.0069L177.733 96.0069V101.005Z" fill="#E0E0E0"/>
<path d="M266.232 96.0068H270.516V77.5855H266.232V96.0068Z" fill="#EBEBEB"/>
<path d="M245.516 96.0068H249.8V77.5855H245.516V96.0068Z" fill="#EBEBEB"/>
<path d="M218.867 95.2809L223.088 96.0085L226.217 77.8549L221.996 77.1273L218.867 95.2809Z" fill="#EBEBEB"/>
<path d="M260.928 96.0068H265.212V80.0165H260.928V96.0068Z" fill="#EBEBEB"/>
<path d="M251.08 96.0068H255.364V80.0165H251.08V96.0068Z" fill="#EBEBEB"/>
<path d="M226.217 96.0068H230.501V80.0165H226.217V96.0068Z" fill="#EBEBEB"/>
<path d="M236.428 95.0664L240.61 95.9957L244.079 80.3863L239.898 79.4569L236.428 95.0664Z" fill="#EBEBEB"/>
<path d="M257.216 96.0068H259.361V76.669H257.216V96.0068Z" fill="#EBEBEB"/>
<path d="M231.729 96.0068H233.874V76.669H231.729V96.0068Z" fill="#EBEBEB"/>
<path d="M187.067 95.8444H207.945V81.4271H187.067V95.8444Z" fill="#EBEBEB"/>
<path d="M162.503 242.169C232.108 242.169 288.534 238.874 288.534 234.811C288.534 230.747 232.108 227.452 162.503 227.452C92.8982 227.452 36.4722 230.747 36.4722 234.811C36.4722 238.874 92.8982 242.169 162.503 242.169Z" fill="#F5F5F5"/>
<path d="M200.854 161.203L200.152 161.821L199.547 162.341L198.364 163.322C197.578 163.972 196.785 164.57 195.992 165.181C194.412 166.397 192.787 167.534 191.149 168.639C189.511 169.744 187.834 170.81 186.125 171.824C184.415 172.838 182.699 173.839 180.924 174.762C173.675 178.661 165.914 181.523 157.869 183.265L156.302 183.577L154.709 183.837L153.916 183.967C152.938 184.137 151.945 184.206 150.952 184.175C148.779 184.098 146.655 183.503 144.758 182.439C143.299 181.607 141.997 180.527 140.91 179.248C140.156 178.367 139.502 177.405 138.96 176.381C138.206 174.96 137.613 173.46 137.192 171.909C136.584 169.621 136.192 167.282 136.022 164.921C135.853 162.783 135.807 160.755 135.84 158.759C135.908 154.888 136.207 151.024 136.737 147.189C136.964 145.304 137.296 143.432 137.621 141.573C137.946 139.714 138.355 137.894 138.843 135.963C139.18 134.622 139.966 133.436 141.071 132.604C142.176 131.772 143.532 131.344 144.915 131.39C146.297 131.437 147.621 131.955 148.668 132.859C149.715 133.763 150.42 134.999 150.666 136.36L150.712 136.626C151.017 138.303 151.284 140.11 151.563 141.826L152.382 147.026C152.954 150.478 153.533 153.884 154.222 157.108C154.573 158.714 154.937 160.274 155.353 161.697C155.674 162.92 156.109 164.111 156.653 165.253C156.861 165.636 157.076 165.903 157.069 165.727C157.001 165.485 156.876 165.262 156.705 165.077C156.219 164.473 155.621 163.967 154.943 163.589C153.843 162.959 152.609 162.6 151.342 162.542C150.801 162.515 150.259 162.545 149.724 162.633L150.257 162.477L151.31 162.172L152.376 161.827C158.281 159.787 163.948 157.113 169.276 153.852C172.058 152.226 174.782 150.426 177.486 148.586C178.831 147.663 180.151 146.708 181.464 145.759L183.414 144.322L185.13 143.022L185.631 142.639C188.092 140.62 191.255 139.662 194.423 139.975C197.592 140.289 200.506 141.848 202.524 144.309C204.543 146.771 205.501 149.934 205.188 153.102C204.875 156.27 203.316 159.184 200.854 161.203Z" fill="#FFBF9D"/>
<path opacity="0.2" d="M167.567 180.515C167.567 180.515 170.095 168.067 180.385 161.951C190.675 155.834 181.113 174.606 181.113 174.606C176.753 176.914 172.224 178.889 167.567 180.515Z" fill="black"/>
<path d="M139.558 132.681L140.669 126.98C141.071 124.906 142.01 122.974 143.393 121.377L145.993 118.361C146.831 117.395 147.98 116.752 149.242 116.544C150.504 116.337 151.799 116.577 152.902 117.223L156.334 119.238C156.96 119.605 157.505 120.093 157.941 120.673C158.376 121.252 158.691 121.913 158.869 122.615C159.047 123.318 159.083 124.049 158.976 124.766C158.869 125.483 158.621 126.171 158.246 126.792L156.497 129.684C156.497 129.684 152.597 138.297 146.006 141.878L144.303 140.695C142.939 139.825 141.798 138.646 140.974 137.254C140.15 135.862 139.665 134.295 139.558 132.681Z" fill="#FFBF9D"/>
<path d="M186.294 187.756C185.54 190.87 186.827 204.409 189.173 215.213H259.849C259.517 212.983 259.07 210.772 258.51 208.589C256.56 200.509 253.154 189.401 251.145 174.613C249.848 165.011 249.32 155.321 249.566 145.635C249.614 143.582 249.229 141.541 248.438 139.645C247.646 137.75 246.465 136.042 244.97 134.632C243.476 133.223 241.702 132.143 239.764 131.463C237.826 130.783 235.766 130.518 233.718 130.685C231.398 130.874 228.947 131.127 226.458 131.459C216.773 132.759 208.849 133.903 200.548 136.223C197.792 136.997 194.971 137.881 192.28 138.778C187.59 140.342 183.65 143.596 181.228 147.907C178.806 152.217 178.074 157.274 179.176 162.094C180.45 167.645 173.976 182.251 186.294 187.756Z" fill="#43231B"/>
<path d="M221.687 132.102C221.687 132.102 217.215 162.757 199.931 164.492C186.885 165.792 196.271 147.007 196.271 147.007C197.649 144.504 196.856 140.682 194.971 137.081C194.086 135.425 193.013 133.877 191.773 132.466L192.904 131.127L207.204 114.227C207.841 129.912 214.953 132.343 221.687 132.102Z" fill="#FFBF9D"/>
<path opacity="0.2" d="M201.614 127.727C200.373 131.179 197.799 134.449 194.945 137.081C194.06 135.425 192.987 133.877 191.747 132.466L192.878 131.127L201.978 122.677C202.433 123.944 202.238 125.933 201.614 127.727Z" fill="black"/>
<path opacity="0.2" d="M249.546 152.896C249.647 160.824 250.275 168.737 251.425 176.582C243.625 169.081 233.634 154.709 232.685 147.332L249.546 152.896Z" fill="black"/>
<path d="M186.339 79.6526C186.339 79.6526 154.859 82.9742 169.114 108.351C183.368 133.727 186.339 79.6526 186.339 79.6526Z" fill="#263238"/>
<path d="M207.594 101.896C206.788 116.047 206.743 122.046 199.762 129.346C189.251 140.305 172.377 136.197 169.023 122.085C166 109.378 167.82 88.3693 181.373 82.6882C194.75 77.0981 208.4 87.7518 207.594 101.896Z" fill="#FFBF9D"/>
<path d="M185.904 111.51C185.904 112.66 185.299 113.596 184.545 113.603C183.791 113.609 183.18 112.673 183.18 111.523C183.18 110.372 183.778 109.43 184.532 109.43C185.286 109.43 185.904 110.359 185.904 111.51Z" fill="#263238"/>
<path d="M171.733 111.763C171.733 112.914 171.129 113.85 170.375 113.85C169.621 113.85 169.01 112.92 169.01 111.77C169.01 110.619 169.608 109.683 170.362 109.677C171.116 109.67 171.733 110.606 171.733 111.763Z" fill="#263238"/>
<path d="M170.7 109.742L167.924 108.955C167.924 108.955 169.354 111.113 170.7 109.742Z" fill="#263238"/>
<path d="M175.237 112.069C175.237 112.069 173.287 117.035 171.148 119.433C172.676 120.85 175.263 120.194 175.263 120.194L175.237 112.069Z" fill="#D58745"/>
<path d="M184.285 124.152C183.641 124.268 182.989 124.326 182.335 124.328C182.245 124.328 182.159 124.292 182.096 124.229C182.033 124.165 181.997 124.08 181.997 123.99C181.997 123.9 182.033 123.814 182.096 123.751C182.159 123.687 182.245 123.652 182.335 123.652C183.776 123.686 185.205 123.377 186.503 122.751C187.802 122.125 188.933 121.2 189.804 120.051C189.828 120.013 189.859 119.981 189.895 119.955C189.931 119.93 189.973 119.912 190.016 119.902C190.06 119.892 190.104 119.891 190.148 119.899C190.192 119.907 190.234 119.923 190.272 119.947C190.309 119.971 190.342 120.002 190.367 120.038C190.393 120.075 190.411 120.116 190.421 120.159C190.43 120.203 190.431 120.248 190.423 120.292C190.416 120.335 190.4 120.377 190.376 120.415C188.915 122.412 186.727 123.755 184.285 124.152Z" fill="#263238"/>
<path d="M188.712 104.477C188.619 104.468 188.529 104.44 188.449 104.394C188.368 104.348 188.298 104.285 188.244 104.21C187.756 103.515 187.11 102.945 186.36 102.546C185.61 102.147 184.777 101.931 183.928 101.915C183.748 101.926 183.572 101.865 183.438 101.745C183.304 101.626 183.223 101.458 183.212 101.278C183.202 101.099 183.263 100.923 183.383 100.789C183.502 100.655 183.67 100.574 183.85 100.563C184.925 100.563 185.984 100.82 186.939 101.315C187.894 101.809 188.716 102.526 189.336 103.404C189.434 103.507 189.495 103.64 189.51 103.782C189.526 103.924 189.494 104.067 189.42 104.188C189.346 104.31 189.234 104.405 189.102 104.457C188.969 104.509 188.823 104.516 188.686 104.477H188.712Z" fill="#263238"/>
<path d="M166.553 105.562C166.467 105.565 166.381 105.551 166.301 105.521C166.221 105.491 166.147 105.445 166.085 105.387C165.953 105.265 165.875 105.097 165.866 104.918C165.858 104.739 165.92 104.565 166.039 104.431C166.747 103.621 167.639 102.993 168.64 102.6C169.641 102.206 170.722 102.058 171.792 102.169C171.964 102.198 172.118 102.295 172.219 102.438C172.32 102.58 172.361 102.757 172.331 102.93C172.302 103.102 172.205 103.256 172.063 103.357C171.92 103.458 171.743 103.498 171.571 103.469C170.72 103.392 169.863 103.519 169.072 103.84C168.28 104.161 167.577 104.667 167.021 105.315C166.964 105.387 166.894 105.446 166.813 105.488C166.732 105.531 166.644 105.556 166.553 105.562Z" fill="#263238"/>
<path d="M184.864 109.495L182.094 108.702C182.094 108.702 183.524 110.86 184.864 109.495Z" fill="#263238"/>
<path d="M176.342 83.1171C184.864 105.562 200.984 109.482 207.627 111.432C214.27 113.382 216.519 100.888 210.591 92.0223C204.663 83.1561 190.571 74.446 176.342 83.1171Z" fill="#263238"/>
<path d="M210.871 114.35C210.563 115.604 209.993 116.778 209.197 117.795C208.402 118.811 207.399 119.647 206.255 120.246C203.317 121.663 201.172 118.543 201.426 114.942C201.653 111.692 203.46 107.051 206.684 107.142C209.909 107.233 211.748 111.048 210.871 114.35Z" fill="#FFBF9D"/>
<path d="M207.627 69.0574C214.264 68.9339 215.557 72.2749 217.033 77.9301C218.508 83.5852 224.293 90.8848 226.861 90.9303C229.428 90.9758 226.477 97.0729 223.136 95.6169C223.136 95.6169 225.281 102.384 216.753 99.4325C208.225 96.4814 207.627 69.0574 207.627 69.0574Z" fill="#43231B"/>
<path opacity="0.5" d="M207.627 69.0574C214.264 68.9339 215.557 72.2749 217.033 77.9301C218.508 83.5852 224.293 90.8848 226.861 90.9303C229.428 90.9758 226.477 97.0729 223.136 95.6169C223.136 95.6169 225.281 102.384 216.753 99.4325C208.225 96.4814 207.627 69.0574 207.627 69.0574Z" fill="white"/>
<path d="M165.435 95.5844C165.136 94.3884 157.96 83.8842 178.779 71.2479C178.658 70.6436 178.711 70.0171 178.932 69.4417C179.153 68.8662 179.533 68.3655 180.027 67.9978C182.094 66.4053 190.428 63.8833 198.793 64.4423C213.698 65.4303 216.961 86.6402 216.961 86.6402C216.961 86.6402 219.08 107.532 214.023 107.792C214.023 107.792 213.672 112.693 211.085 112.992C199.196 114.415 182.094 80.4911 182.094 80.4911C169.393 83.8062 165.435 95.5844 165.435 95.5844Z" fill="#43231B"/>
<path opacity="0.7" d="M214.023 107.818C213.915 109.225 213.505 110.593 212.821 111.828C212.638 112.144 212.388 112.416 212.088 112.624C211.788 112.832 211.445 112.971 211.085 113.031C199.196 114.454 182.094 80.5301 182.094 80.5301C169.393 83.8191 165.435 95.6039 165.435 95.6039C165.389 95.4414 165.22 95.1034 165.006 94.6029C163.706 91.4828 160.82 82.1876 178.773 71.2609C178.66 70.6619 178.718 70.0431 178.939 69.4753C179.161 68.9075 179.538 68.4136 180.027 68.0498C182.094 66.4573 190.428 63.9353 198.793 64.4943C213.698 65.4823 216.961 86.6922 216.961 86.6922C216.961 86.6922 219.054 107.564 214.023 107.818Z" fill="white"/>
<path opacity="0.2" d="M212.821 111.802C212.638 112.118 212.388 112.39 212.088 112.598C211.788 112.806 211.445 112.945 211.085 113.005C199.196 114.428 182.095 80.5041 182.095 80.5041C169.393 83.7932 165.435 95.5779 165.435 95.5779C165.389 95.4154 165.22 95.0774 165.006 94.5769C166.142 91.2287 167.982 88.1625 170.402 85.5839C172.821 83.0053 175.764 80.9741 179.033 79.6266C179.033 79.6266 178.259 76.1035 179.546 73.5945C179.546 73.6205 198.54 112.985 212.821 111.802Z" fill="black"/>
<path opacity="0.2" d="M214.023 107.818C214.023 107.818 197.162 91.9443 192.15 77.267C192.15 77.2865 200.412 106.979 214.023 107.818Z" fill="black"/>
<path opacity="0.2" d="M191.474 64.6958C191.474 64.6958 197.292 78.6646 204.364 84.5992C204.364 84.5992 197.604 66.8863 191.474 64.6958Z" fill="black"/>
<path d="M193.736 115.41C193.736 115.567 193.69 115.72 193.603 115.85C193.515 115.981 193.392 116.082 193.247 116.142C193.102 116.202 192.942 116.218 192.788 116.187C192.635 116.157 192.493 116.081 192.382 115.97C192.271 115.86 192.196 115.718 192.165 115.564C192.135 115.411 192.15 115.251 192.211 115.106C192.271 114.961 192.372 114.837 192.503 114.75C192.633 114.663 192.786 114.617 192.943 114.617C193.153 114.617 193.355 114.7 193.504 114.849C193.653 114.998 193.736 115.199 193.736 115.41Z" fill="#D58745"/>
<path d="M169.907 116.606C169.908 116.764 169.862 116.92 169.775 117.052C169.687 117.185 169.563 117.288 169.416 117.35C169.27 117.411 169.109 117.427 168.953 117.397C168.797 117.366 168.654 117.29 168.542 117.178C168.43 117.065 168.353 116.922 168.323 116.767C168.292 116.611 168.309 116.45 168.37 116.303C168.431 116.157 168.535 116.032 168.667 115.945C168.8 115.857 168.955 115.811 169.114 115.813C169.218 115.813 169.321 115.833 169.417 115.873C169.513 115.913 169.601 115.971 169.674 116.045C169.748 116.119 169.807 116.206 169.846 116.302C169.886 116.399 169.907 116.502 169.907 116.606Z" fill="#D58745"/>
<path d="M193.541 117.977C193.542 118.096 193.509 118.212 193.444 118.311C193.379 118.41 193.286 118.488 193.177 118.534C193.067 118.581 192.947 118.593 192.831 118.571C192.714 118.549 192.607 118.492 192.523 118.409C192.438 118.326 192.381 118.219 192.357 118.103C192.334 117.987 192.345 117.866 192.39 117.756C192.435 117.647 192.512 117.553 192.61 117.487C192.709 117.421 192.825 117.386 192.943 117.386C193.101 117.386 193.252 117.448 193.364 117.559C193.476 117.669 193.539 117.82 193.541 117.977Z" fill="#D58745"/>
<path d="M169.907 120.343C169.908 120.462 169.874 120.578 169.809 120.677C169.744 120.777 169.651 120.854 169.542 120.9C169.433 120.947 169.313 120.959 169.196 120.937C169.08 120.915 168.973 120.858 168.888 120.775C168.804 120.692 168.746 120.585 168.723 120.469C168.699 120.353 168.711 120.232 168.756 120.123C168.801 120.013 168.877 119.919 168.976 119.853C169.074 119.787 169.19 119.752 169.309 119.752C169.466 119.752 169.617 119.814 169.729 119.925C169.841 120.035 169.905 120.186 169.907 120.343Z" fill="#D58745"/>
<path d="M177.531 96.7934C177.533 96.912 177.499 97.0282 177.434 97.1274C177.369 97.2266 177.276 97.3043 177.167 97.3505C177.058 97.3968 176.937 97.4096 176.821 97.3872C176.704 97.3649 176.597 97.3084 176.513 97.2251C176.429 97.1417 176.371 97.0352 176.347 96.919C176.324 96.8028 176.335 96.6822 176.38 96.5726C176.425 96.4629 176.502 96.3692 176.6 96.3032C176.699 96.2372 176.815 96.2019 176.933 96.2019C177.091 96.2019 177.242 96.264 177.354 96.3748C177.466 96.4855 177.53 96.6359 177.531 96.7934Z" fill="#D58745"/>
<path d="M191.058 117.002C191.059 117.161 191.014 117.316 190.927 117.448C190.84 117.581 190.715 117.684 190.569 117.746C190.423 117.807 190.262 117.824 190.107 117.794C189.951 117.764 189.808 117.688 189.696 117.576C189.583 117.465 189.506 117.322 189.475 117.167C189.444 117.012 189.459 116.851 189.519 116.704C189.58 116.558 189.682 116.433 189.814 116.344C189.945 116.256 190.1 116.209 190.259 116.209C190.47 116.209 190.672 116.293 190.822 116.441C190.971 116.59 191.056 116.791 191.058 117.002Z" fill="#D58745"/>
<path d="M174.795 99.764C174.795 99.9208 174.748 100.074 174.661 100.205C174.574 100.335 174.45 100.437 174.305 100.497C174.16 100.557 174.001 100.572 173.847 100.542C173.693 100.511 173.552 100.436 173.441 100.325C173.33 100.214 173.255 100.073 173.224 99.9187C173.193 99.7649 173.209 99.6054 173.269 99.4605C173.329 99.3156 173.431 99.1917 173.561 99.1046C173.692 99.0175 173.845 98.9709 174.002 98.9709C174.212 98.9709 174.414 99.0545 174.563 99.2032C174.711 99.3519 174.795 99.5536 174.795 99.764Z" fill="#D58745"/>
<path d="M187.698 117.002C187.698 117.081 187.674 117.157 187.631 117.223C187.587 117.288 187.525 117.339 187.453 117.369C187.38 117.399 187.301 117.406 187.224 117.391C187.147 117.376 187.076 117.338 187.021 117.283C186.965 117.227 186.927 117.156 186.912 117.08C186.897 117.003 186.905 116.923 186.935 116.85C186.965 116.778 187.016 116.716 187.081 116.673C187.146 116.629 187.223 116.606 187.301 116.606C187.406 116.606 187.507 116.647 187.581 116.722C187.656 116.796 187.698 116.897 187.698 117.002Z" fill="#D58745"/>
<path d="M194.133 119.472C194.352 119.472 194.529 119.295 194.529 119.076C194.529 118.857 194.352 118.679 194.133 118.679C193.914 118.679 193.736 118.857 193.736 119.076C193.736 119.295 193.914 119.472 194.133 119.472Z" fill="#D58745"/>
<path d="M170.791 118.575C170.791 118.654 170.767 118.73 170.724 118.796C170.68 118.861 170.618 118.912 170.546 118.942C170.474 118.972 170.394 118.98 170.317 118.964C170.24 118.949 170.169 118.911 170.114 118.856C170.058 118.8 170.021 118.73 170.005 118.653C169.99 118.576 169.998 118.496 170.028 118.424C170.058 118.351 170.109 118.289 170.174 118.246C170.239 118.202 170.316 118.179 170.394 118.179C170.446 118.179 170.498 118.189 170.546 118.209C170.594 118.229 170.638 118.258 170.675 118.295C170.711 118.332 170.741 118.376 170.761 118.424C170.78 118.472 170.791 118.523 170.791 118.575Z" fill="#D58745"/>
<path d="M195.179 113.473C195.398 113.473 195.576 113.295 195.576 113.076C195.576 112.857 195.398 112.68 195.179 112.68C194.96 112.68 194.783 112.857 194.783 113.076C194.783 113.295 194.96 113.473 195.179 113.473Z" fill="#D58745"/>
<path d="M189.862 114.617C189.862 114.695 189.839 114.772 189.795 114.837C189.752 114.902 189.69 114.953 189.617 114.983C189.545 115.013 189.465 115.021 189.388 115.006C189.311 114.99 189.241 114.953 189.185 114.897C189.13 114.842 189.092 114.771 189.077 114.694C189.061 114.617 189.069 114.537 189.099 114.465C189.129 114.393 189.18 114.331 189.245 114.287C189.311 114.243 189.387 114.22 189.466 114.22C189.571 114.22 189.672 114.262 189.746 114.336C189.82 114.411 189.862 114.512 189.862 114.617Z" fill="#D58745"/>
<path d="M196.375 116.606C196.594 116.606 196.772 116.428 196.772 116.209C196.772 115.99 196.594 115.813 196.375 115.813C196.156 115.813 195.979 115.99 195.979 116.209C195.979 116.428 196.156 116.606 196.375 116.606Z" fill="#D58745"/>
<path d="M177.928 99.7639C177.928 99.8424 177.905 99.919 177.861 99.9842C177.818 100.049 177.756 100.1 177.683 100.13C177.611 100.16 177.531 100.168 177.454 100.153C177.377 100.138 177.306 100.1 177.251 100.044C177.196 99.9889 177.158 99.9182 177.143 99.8413C177.127 99.7644 177.135 99.6847 177.165 99.6122C177.195 99.5398 177.246 99.4778 177.311 99.4343C177.376 99.3907 177.453 99.3674 177.531 99.3674C177.637 99.3674 177.737 99.4092 177.812 99.4836C177.886 99.5579 177.928 99.6588 177.928 99.7639Z" fill="#D58745"/>
<path d="M170.121 116.658C170.076 117.392 169.595 117.958 169.036 117.958C168.732 117.892 168.465 117.711 168.292 117.453C168.119 117.195 168.052 116.879 168.106 116.573C168.145 115.839 168.626 115.273 169.185 115.273C169.49 115.338 169.758 115.518 169.933 115.776C170.108 116.035 170.175 116.351 170.121 116.658Z" fill="#43231B"/>
<path opacity="0.7" d="M170.121 116.658C170.076 117.392 169.595 117.958 169.036 117.958C168.732 117.892 168.465 117.711 168.292 117.453C168.119 117.195 168.052 116.879 168.106 116.573C168.145 115.839 168.626 115.273 169.185 115.273C169.49 115.338 169.758 115.518 169.933 115.776C170.108 116.035 170.175 116.351 170.121 116.658Z" fill="white"/>
<path d="M160.488 121.123C160.43 122.176 159.741 122.989 158.941 122.943C158.142 122.898 157.55 122.014 157.609 120.993C157.667 119.973 158.356 119.128 159.149 119.173C159.942 119.219 160.553 120.077 160.488 121.123Z" fill="#43231B"/>
<path opacity="0.7" d="M160.488 121.123C160.43 122.176 159.741 122.989 158.941 122.943C158.142 122.898 157.55 122.014 157.609 120.993C157.667 119.973 158.356 119.128 159.149 119.173C159.942 119.219 160.553 120.077 160.488 121.123Z" fill="white"/>
<path d="M207.625 164.94L181.911 154.039C180.867 153.597 179.662 154.084 179.22 155.128L173.237 169.241C172.795 170.285 173.282 171.489 174.326 171.932L200.04 182.832C201.084 183.275 202.289 182.787 202.731 181.744L208.714 167.631C209.156 166.587 208.669 165.382 207.625 164.94Z" fill="#43231B"/>
<path opacity="0.7" d="M207.625 164.94L181.911 154.039C180.867 153.597 179.662 154.084 179.22 155.128L173.237 169.241C172.795 170.285 173.282 171.489 174.326 171.932L200.04 182.832C201.084 183.275 202.289 182.787 202.731 181.744L208.714 167.631C209.156 166.587 208.669 165.382 207.625 164.94Z" fill="white"/>
<path opacity="0.2" d="M186.554 161.106C186.396 161.48 186.132 161.799 185.793 162.023C185.455 162.248 185.058 162.366 184.652 162.365C184.246 162.363 183.849 162.242 183.512 162.015C183.176 161.788 182.914 161.467 182.759 161.091C182.605 160.716 182.566 160.303 182.646 159.905C182.726 159.507 182.923 159.141 183.21 158.855C183.498 158.569 183.864 158.374 184.263 158.296C184.661 158.217 185.074 158.258 185.449 158.414C185.951 158.626 186.35 159.027 186.557 159.532C186.764 160.036 186.763 160.602 186.554 161.106Z" fill="black"/>
<path opacity="0.2" d="M183.264 168.925C183.107 169.3 182.843 169.619 182.504 169.843C182.166 170.067 181.769 170.186 181.363 170.185C180.957 170.183 180.56 170.061 180.223 169.835C179.887 169.608 179.625 169.286 179.47 168.911C179.316 168.535 179.277 168.123 179.357 167.725C179.437 167.327 179.634 166.961 179.921 166.675C180.209 166.388 180.575 166.194 180.974 166.115C181.372 166.037 181.785 166.078 182.159 166.234C182.662 166.445 183.061 166.847 183.268 167.351C183.475 167.856 183.474 168.422 183.264 168.925Z" fill="black"/>
<path opacity="0.7" d="M192.781 163.719C192.624 164.093 192.359 164.412 192.021 164.637C191.682 164.861 191.285 164.98 190.879 164.978C190.473 164.977 190.076 164.855 189.74 164.628C189.403 164.401 189.141 164.08 188.986 163.704C188.832 163.329 188.793 162.916 188.873 162.518C188.953 162.12 189.15 161.755 189.438 161.468C189.725 161.182 190.091 160.987 190.49 160.909C190.888 160.83 191.301 160.872 191.676 161.028C192.178 161.239 192.577 161.64 192.784 162.145C192.991 162.649 192.99 163.215 192.781 163.719Z" fill="white"/>
<path opacity="0.7" d="M189.511 171.538C189.354 171.914 189.088 172.235 188.748 172.46C188.409 172.685 188.01 172.804 187.602 172.802C187.195 172.801 186.797 172.678 186.459 172.45C186.121 172.223 185.859 171.9 185.704 171.523C185.55 171.146 185.51 170.731 185.591 170.332C185.672 169.933 185.87 169.566 186.159 169.279C186.448 168.992 186.816 168.797 187.216 168.719C187.616 168.641 188.03 168.684 188.406 168.841C188.656 168.945 188.883 169.098 189.073 169.29C189.264 169.482 189.415 169.71 189.518 169.961C189.62 170.211 189.672 170.479 189.671 170.75C189.67 171.021 189.616 171.289 189.511 171.538Z" fill="white"/>
<path opacity="0.7" d="M199.027 166.332C198.87 166.707 198.604 167.028 198.265 167.253C197.925 167.478 197.526 167.597 197.119 167.596C196.711 167.594 196.313 167.471 195.975 167.244C195.637 167.016 195.375 166.693 195.22 166.316C195.066 165.939 195.027 165.525 195.108 165.125C195.189 164.726 195.386 164.36 195.675 164.073C195.965 163.786 196.332 163.591 196.732 163.513C197.132 163.435 197.546 163.477 197.922 163.634C198.173 163.738 198.4 163.89 198.591 164.082C198.782 164.274 198.934 164.502 199.036 164.753C199.139 165.004 199.191 165.272 199.19 165.543C199.188 165.814 199.133 166.082 199.027 166.332Z" fill="white"/>
<path opacity="0.7" d="M195.758 174.145C195.601 174.519 195.336 174.839 194.998 175.063C194.659 175.287 194.262 175.406 193.856 175.404C193.45 175.403 193.053 175.281 192.717 175.054C192.38 174.828 192.118 174.506 191.964 174.131C191.809 173.755 191.77 173.342 191.85 172.944C191.93 172.546 192.127 172.181 192.415 171.894C192.702 171.608 193.068 171.413 193.467 171.335C193.865 171.257 194.278 171.298 194.653 171.454C194.903 171.557 195.13 171.709 195.321 171.9C195.512 172.091 195.663 172.319 195.766 172.569C195.869 172.819 195.921 173.087 195.92 173.358C195.918 173.628 195.863 173.896 195.758 174.145Z" fill="white"/>
<path opacity="0.7" d="M205.274 168.938C205.117 169.313 204.852 169.632 204.514 169.856C204.175 170.08 203.778 170.199 203.372 170.198C202.966 170.196 202.57 170.074 202.233 169.848C201.896 169.621 201.634 169.299 201.48 168.924C201.325 168.548 201.286 168.135 201.366 167.737C201.447 167.34 201.643 166.974 201.931 166.688C202.218 166.401 202.585 166.207 202.983 166.128C203.381 166.05 203.794 166.091 204.169 166.247C204.419 166.35 204.646 166.502 204.837 166.693C205.028 166.885 205.18 167.112 205.282 167.362C205.385 167.613 205.437 167.881 205.436 168.151C205.434 168.422 205.379 168.689 205.274 168.938Z" fill="white"/>
<path opacity="0.7" d="M202.004 176.758C201.847 177.132 201.583 177.452 201.244 177.676C200.906 177.9 200.508 178.019 200.102 178.017C199.696 178.016 199.3 177.894 198.963 177.667C198.626 177.441 198.364 177.119 198.21 176.744C198.056 176.368 198.016 175.955 198.097 175.557C198.177 175.159 198.373 174.794 198.661 174.508C198.949 174.221 199.315 174.026 199.714 173.948C200.112 173.87 200.525 173.911 200.899 174.067C201.402 174.278 201.801 174.68 202.008 175.184C202.215 175.689 202.214 176.254 202.004 176.758Z" fill="white"/>
<path d="M215.33 183.603L208.316 177.103L200.08 190.454C200.08 190.454 208.108 195.387 215.434 194.685L216.155 192.735C216.732 191.253 216.958 189.657 216.814 188.072C216.671 186.488 216.163 184.958 215.33 183.603Z" fill="#FFBF9D"/>
<path d="M197.851 178.448L195.608 183.447C195.115 184.543 195.075 185.789 195.497 186.915C195.92 188.04 196.771 188.953 197.864 189.453L200.08 190.467L208.316 177.083L203.018 175.874C201.992 175.639 200.916 175.767 199.974 176.236C199.032 176.706 198.281 177.487 197.851 178.448Z" fill="#FFBF9D"/>
<path opacity="0.2" d="M258.51 208.589C234.739 214.712 212.957 191.533 212.957 191.533C212.957 191.533 231.599 196.161 235.2 188.062C238.802 179.963 235.2 162.373 235.2 162.373C240.731 166.164 246.054 170.25 251.145 174.613C253.154 189.401 256.534 200.509 258.51 208.589Z" fill="black"/>
<path d="M248.714 137.803L249.28 138.667L249.767 139.454L250.71 141.001C251.321 142.034 251.906 143.068 252.484 144.108C253.648 146.175 254.707 148.294 255.734 150.426C256.761 152.558 257.743 154.742 258.679 156.959C259.615 159.175 260.486 161.437 261.279 163.751C262.971 168.548 264.22 173.489 265.01 178.513C265.44 181.257 265.658 184.03 265.66 186.807C265.669 189.917 265.298 193.017 264.555 196.037L264.399 196.635C264.101 197.759 263.608 198.822 262.943 199.775C261.353 201.981 259.222 203.741 256.755 204.884C255.068 205.682 253.272 206.224 251.425 206.49C248.838 206.855 246.215 206.868 243.625 206.529C239.545 206 235.532 205.045 231.651 203.682C228.069 202.462 224.56 201.038 221.141 199.417C219.451 198.631 217.8 197.779 216.162 196.915L213.718 195.569C212.905 195.095 212.132 194.64 211.267 194.107C210.076 193.372 209.178 192.246 208.725 190.922C208.272 189.599 208.293 188.158 208.785 186.848C209.276 185.538 210.207 184.439 211.418 183.739C212.63 183.04 214.047 182.782 215.427 183.011L215.648 183.05L220.699 183.889C222.389 184.188 224.092 184.448 225.769 184.721C229.123 185.267 232.464 185.715 235.675 186.066C238.64 186.426 241.629 186.546 244.613 186.424C245.554 186.408 246.485 186.235 247.369 185.91C247.544 185.813 247.492 185.709 247.05 185.865C246.19 186.231 245.45 186.83 244.912 187.594L243.3 191.331C243.43 190.035 243.43 188.728 243.3 187.431C243.12 185.822 242.837 184.227 242.455 182.654C241.556 179.032 240.389 175.482 238.964 172.032C238.227 170.225 237.447 168.407 236.624 166.579C235.805 164.759 234.901 162.952 234.024 161.132C233.146 159.312 232.165 157.524 231.216 155.73L229.766 153.065L228.382 150.595L228.154 150.153C226.668 147.435 226.291 144.247 227.102 141.258C227.912 138.268 229.847 135.707 232.503 134.112C235.158 132.516 238.327 132.009 241.348 132.697C244.368 133.385 247.005 135.215 248.708 137.803H248.714Z" fill="#FFBF9D"/>
<path d="M138.758 183.954H93.7709C93.5123 183.954 93.2643 183.851 93.0814 183.668C92.8986 183.485 92.7958 183.237 92.7958 182.979V143.425C92.7958 143.167 92.8986 142.919 93.0814 142.736C93.2643 142.553 93.5123 142.45 93.7709 142.45C94.0294 142.45 94.2775 142.553 94.4603 142.736C94.6432 142.919 94.7459 143.167 94.7459 143.425V182.004H138.758C139.017 182.004 139.265 182.106 139.448 182.289C139.631 182.472 139.733 182.72 139.733 182.979C139.733 183.237 139.631 183.485 139.448 183.668C139.265 183.851 139.017 183.954 138.758 183.954Z" fill="#263238"/>
<path d="M121.026 182.55H111.51V214.42H121.026V182.55Z" fill="#263238"/>
<path d="M136.301 211.956H96.2019C95.5497 211.958 94.9247 212.218 94.4641 212.68C94.0035 213.142 93.7449 213.767 93.7449 214.42H138.732C138.732 213.772 138.477 213.15 138.022 212.689C137.567 212.228 136.949 211.965 136.301 211.956Z" fill="#263238"/>
<path d="M134.852 115.28H91.4048L89.2533 116.898L98.906 175.705H142.353L144.504 174.086L134.852 115.28Z" fill="#43231B"/>
<path opacity="0.2" d="M142.353 175.705H98.906L89.2533 116.898H132.694L142.353 175.705Z" fill="black"/>
<path opacity="0.2" d="M91.4048 115.28L89.2533 116.898H132.694L134.852 115.28H91.4048Z" fill="white"/>
<path d="M134.852 115.28L144.504 174.086L142.353 175.705L132.694 116.898L134.852 115.28Z" fill="#43231B"/>
<path d="M138.758 183.954C138.5 183.954 138.252 183.851 138.069 183.668C137.886 183.485 137.783 183.237 137.783 182.979V143.425C137.783 143.167 137.886 142.919 138.069 142.736C138.252 142.553 138.5 142.45 138.758 142.45C139.017 142.45 139.265 142.553 139.448 142.736C139.631 142.919 139.733 143.167 139.733 143.425V182.992C139.73 183.248 139.626 183.493 139.443 183.673C139.261 183.853 139.015 183.954 138.758 183.954Z" fill="#263238"/>
<path d="M280.038 219.464H45.9234V234.596H280.038V219.464Z" fill="#263238"/>
<path opacity="0.3" d="M280.038 219.464H45.9234V234.596H280.038V219.464Z" fill="white"/>
<path d="M280.909 214.42H45.0459C43.714 214.42 42.6343 215.499 42.6343 216.831V222.096C42.6343 223.428 43.714 224.508 45.0459 224.508H280.909C282.241 224.508 283.321 223.428 283.321 222.096V216.831C283.321 215.499 282.241 214.42 280.909 214.42Z" fill="#263238"/>
<path opacity="0.4" d="M280.909 214.42H45.0459C43.714 214.42 42.6343 215.499 42.6343 216.831V222.096C42.6343 223.428 43.714 224.508 45.0459 224.508H280.909C282.241 224.508 283.321 223.428 283.321 222.096V216.831C283.321 215.499 282.241 214.42 280.909 214.42Z" fill="white"/>
<path d="M66.3338 167.593H57.4611V173.904H66.3338V167.593Z" fill="#43231B"/>
<path opacity="0.3" d="M66.3338 167.593H57.4611V173.904H66.3338V167.593Z" fill="white"/>
<path d="M56.0701 172.799H67.7248C68.123 172.799 68.5049 172.958 68.7865 173.239C69.0681 173.521 69.2263 173.903 69.2263 174.301V214.42H54.5685V174.301C54.5685 173.903 54.7267 173.521 55.0083 173.239C55.2899 172.958 55.6718 172.799 56.0701 172.799Z" fill="#43231B"/>
<path opacity="0.4" d="M56.0701 172.799H67.7248C68.123 172.799 68.5049 172.958 68.7865 173.239C69.0681 173.521 69.2263 173.903 69.2263 174.301V214.42H54.5685V174.301C54.5685 173.903 54.7267 173.521 55.0083 173.239C55.2899 172.958 55.6718 172.799 56.0701 172.799Z" fill="white"/>
<path d="M66.3078 167.06H57.4806C57.1252 167.06 56.8371 167.348 56.8371 167.703V171.213C56.8371 171.569 57.1252 171.857 57.4806 171.857H66.3078C66.6632 171.857 66.9513 171.569 66.9513 171.213V167.703C66.9513 167.348 66.6632 167.06 66.3078 167.06Z" fill="#263238"/>
<path opacity="0.4" d="M69.2198 183.687H59.9442V195.862H69.2198V183.687Z" fill="white"/>
<path d="M80.6601 198.559H66.7758C64.9772 198.559 63.5192 200.017 63.5192 201.816V211.163C63.5192 212.962 64.9772 214.42 66.7758 214.42H80.6601C82.4586 214.42 83.9166 212.962 83.9166 211.163V201.816C83.9166 200.017 82.4586 198.559 80.6601 198.559Z" fill="#43231B"/>
<path opacity="0.2" d="M83.9166 203.486H63.5192V204.383H83.9166V203.486Z" fill="black"/>
<path opacity="0.4" d="M83.923 206.49H77.0199V209.707H83.923V206.49Z" fill="white"/>
<path d="M172.37 198.559H158.486C156.688 198.559 155.229 200.017 155.229 201.816V211.163C155.229 212.962 156.688 214.42 158.486 214.42H172.37C174.169 214.42 175.627 212.962 175.627 211.163V201.816C175.627 200.017 174.169 198.559 172.37 198.559Z" fill="#263238"/>
<path opacity="0.2" d="M175.627 203.486H155.229V204.383H175.627V203.486Z" fill="black"/>
<path opacity="0.4" d="M175.633 206.49H162.503V209.707H175.633V206.49Z" fill="white"/>
</svg>
