<svg width="275" height="226" viewBox="0 0 275 226" fill="none" xmlns="http://www.w3.org/2000/svg">
<path d="M268.441 223.273H246.912V223.435H268.441V223.273Z" fill="#EBEBEB"/>
<path d="M191.297 225.041H185.648V225.203H191.297V225.041Z" fill="#EBEBEB"/>
<path d="M246.262 217.241H233.788V217.403H246.262V217.241Z" fill="#EBEBEB"/>
<path d="M38.1737 218.333H10.0996V218.495H38.1737V218.333Z" fill="#EBEBEB"/>
<path d="M48.0799 218.333H43.9653V218.495H48.0799V218.333Z" fill="#EBEBEB"/>
<path d="M122.35 221.076H61.457V221.238H122.35V221.076Z" fill="#EBEBEB"/>
<path d="M130.053 183.824H4.54199C3.55874 183.822 2.61636 183.43 1.92171 182.734C1.22706 182.038 0.836913 181.095 0.836914 180.112V3.67907C0.845473 2.70147 1.2394 1.76672 1.93312 1.07786C2.62685 0.389005 3.56435 0.00167468 4.54199 0H130.053C131.037 0 131.981 0.39104 132.677 1.08709C133.373 1.78315 133.764 2.7272 133.764 3.71157V180.112C133.764 181.096 133.373 182.04 132.677 182.736C131.981 183.433 131.037 183.824 130.053 183.824ZM4.54199 0.130003C3.60184 0.131725 2.70079 0.506402 2.03662 1.17179C1.37244 1.83719 0.999416 2.73892 0.999417 3.67907V180.112C0.999416 181.052 1.37244 181.954 2.03662 182.619C2.70079 183.285 3.60184 183.659 4.54199 183.661H130.053C130.994 183.659 131.895 183.285 132.561 182.62C133.226 181.954 133.6 181.053 133.602 180.112V3.67907C133.6 2.73833 133.226 1.83661 132.561 1.1714C131.895 0.506191 130.994 0.131721 130.053 0.130003H4.54199Z" fill="#EBEBEB"/>
<path d="M270.657 183.824H145.14C144.156 183.822 143.213 183.43 142.517 182.735C141.821 182.039 141.43 181.096 141.428 180.112V3.67907C141.438 2.70088 141.834 1.76613 142.528 1.07746C143.223 0.388778 144.161 0.00165642 145.14 0H270.657C271.634 0.00338299 272.569 0.391469 273.262 1.08014C273.954 1.76882 274.347 2.70259 274.356 3.67907V180.112C274.356 181.094 273.966 182.036 273.273 182.732C272.58 183.428 271.639 183.82 270.657 183.824ZM145.14 0.130003C144.199 0.131721 143.297 0.506191 142.632 1.1714C141.967 1.83661 141.592 2.73833 141.591 3.67907V180.112C141.592 181.053 141.967 181.954 142.632 182.62C143.297 183.285 144.199 183.659 145.14 183.661H270.657C271.598 183.659 272.5 183.285 273.165 182.62C273.83 181.954 274.204 181.053 274.206 180.112V3.67907C274.204 2.73833 273.83 1.83661 273.165 1.1714C272.5 0.506191 271.598 0.131721 270.657 0.130003H145.14Z" fill="#EBEBEB"/>
<path d="M26.7529 56.3756L58.87 37.6877H83.6225L116.279 55.4916V176.602H26.7529V56.3756Z" fill="#E0E0E0"/>
<path d="M117.196 176.602H26.7529V56.3496L27.6694 55.4656C39.5736 44.0202 55.4605 37.65 71.9743 37.7007C88.4923 37.6667 104.378 44.0502 116.279 55.5046L117.196 56.3886V176.602ZM32.7525 170.602H111.203V58.9496C100.499 49.133 86.5041 43.6868 71.9808 43.6868C57.4575 43.6868 43.4622 49.133 32.759 58.9496L32.7525 170.602Z" fill="#FAFAFA"/>
<path d="M69.7252 171.324H74.2233V131.134H112.334V126.635H74.2233V85.5221H112.334V81.024H74.2233V42.9138H69.7252V81.024H31.615V85.5221H69.7252V126.635H31.615V131.134H69.7252V171.324Z" fill="#F0F0F0"/>
<path d="M120.199 179.605H23.7498V55.1535L24.6273 54.276C37.1953 41.7393 54.2224 34.6989 71.9742 34.6989C89.7259 34.6989 106.753 41.7393 119.321 54.276L120.199 55.1535V179.605ZM29.7494 173.605H114.199V57.6561C102.838 46.7689 87.7099 40.691 71.9742 40.691C56.2385 40.691 41.1109 46.7689 29.7494 57.6561V173.605Z" fill="#F0F0F0"/>
<path d="M232.696 50.792C232.696 50.792 233.567 45.0329 229.368 41.3408C225.169 37.6487 225.533 35.4452 226.736 35.1592C227.938 34.8732 229.043 38.5652 230.889 39.5858C230.889 39.5858 230.948 34.3207 229.076 32.3836C227.204 30.4466 226.209 25.448 227.997 25.3505C229.784 25.253 229.947 28.3211 230.337 30.4856C230.727 32.6501 232.696 35.6857 232.696 35.6857C232.696 35.6857 233.086 30.9731 234.295 29.0361C235.504 27.099 232.274 22.6659 233.522 20.7224C234.77 18.7789 236.986 22.4774 236.772 26.6375C236.557 30.7976 233.821 35.2242 234.464 39.5663C234.464 39.5663 235.686 36.5177 236.785 36.2382C237.883 35.9587 238.989 33.9502 239.73 33.2026C240.471 32.4551 241.394 35.0422 239.73 37.4407C238.065 39.8393 233.821 46.2679 234.464 51.455L232.696 50.792Z" fill="#E6E6E6"/>
<path d="M230.155 48.1725L228.783 56.8046C228.683 57.4319 228.719 58.0736 228.891 58.6853C229.062 59.297 229.365 59.8641 229.777 60.3475C230.189 60.8308 230.702 61.2189 231.279 61.4848C231.856 61.7508 232.484 61.8883 233.119 61.8878H234.588C235.223 61.8872 235.85 61.7489 236.427 61.4826C237.003 61.2163 237.515 60.8283 237.927 60.3452C238.339 59.8621 238.641 59.2954 238.813 58.6842C238.985 58.073 239.023 57.4318 238.923 56.8046L237.545 48.1725H230.155Z" fill="#E6E6E6"/>
<path d="M250.994 58.7026H153.733V63.7012H250.994V58.7026Z" fill="#E0E0E0"/>
<path d="M162.495 40.2814H158.211V58.7027H162.495V40.2814Z" fill="#EBEBEB"/>
<path d="M183.211 40.2814H178.927V58.7027H183.211V40.2814Z" fill="#EBEBEB"/>
<path d="M206.732 39.8209L202.51 40.5486L205.64 58.7022L209.861 57.9746L206.732 39.8209Z" fill="#EBEBEB"/>
<path d="M167.806 42.7058H163.522V58.6961H167.806V42.7058Z" fill="#EBEBEB"/>
<path d="M177.653 42.7058H173.37V58.6961H177.653V42.7058Z" fill="#EBEBEB"/>
<path d="M202.51 42.7058H198.226V58.6961H202.51V42.7058Z" fill="#EBEBEB"/>
<path d="M188.84 42.147L184.659 43.0763L188.128 58.6858L192.309 57.7564L188.84 42.147Z" fill="#EBEBEB"/>
<path d="M171.511 39.3647H169.366V58.7026H171.511V39.3647Z" fill="#EBEBEB"/>
<path d="M196.998 39.3647H194.853V58.7026H196.998V39.3647Z" fill="#EBEBEB"/>
<path d="M153.733 101.005L250.994 101.005V96.0069L153.733 96.0069V101.005Z" fill="#E0E0E0"/>
<path d="M242.232 96.0068H246.516V77.5855H242.232V96.0068Z" fill="#EBEBEB"/>
<path d="M221.516 96.0068H225.8V77.5855H221.516V96.0068Z" fill="#EBEBEB"/>
<path d="M194.867 95.2809L199.088 96.0085L202.217 77.8549L197.996 77.1273L194.867 95.2809Z" fill="#EBEBEB"/>
<path d="M236.928 96.0068H241.211V80.0165H236.928V96.0068Z" fill="#EBEBEB"/>
<path d="M227.08 96.0068H231.364V80.0165H227.08V96.0068Z" fill="#EBEBEB"/>
<path d="M202.217 96.0068H206.501V80.0165H202.217V96.0068Z" fill="#EBEBEB"/>
<path d="M212.428 95.0664L216.61 95.9957L220.079 80.3863L215.897 79.4569L212.428 95.0664Z" fill="#EBEBEB"/>
<path d="M233.216 96.0068H235.361V76.669H233.216V96.0068Z" fill="#EBEBEB"/>
<path d="M207.729 96.0068H209.874V76.669H207.729V96.0068Z" fill="#EBEBEB"/>
<path d="M163.067 95.8444H183.945V81.4271H163.067V95.8444Z" fill="#EBEBEB"/>
<path d="M201.178 27.3461C201.178 27.3461 209.121 43.2322 211.107 51.1753C213.093 59.1183 210.447 70.3727 210.447 73.0187C210.447 75.6647 215.078 93.5416 217.724 97.8408C220.37 102.14 220.043 104.463 220.043 104.463C220.043 104.463 212.76 108.102 208.788 109.428L204.807 110.748C204.807 110.748 193.885 91.5558 193.225 85.9262C192.565 80.2965 197.197 65.4082 197.857 53.8263C198.517 42.2443 197.857 20.3959 201.178 27.3461Z" fill="#C7BDBB" stroke="#263238" stroke-miterlimit="10"/>
<path d="M148.416 85.3353C148.416 85.3353 142.459 87.1324 140.324 88.9345C138.19 90.7366 118.565 122.563 117.488 125.259C116.411 127.955 119.474 134.428 124.14 138.564C128.807 142.699 131.696 155.11 131.696 155.11L119.106 199.711H207.582C207.949 197.561 206.52 190.353 197.331 177.589C193.359 172.093 190.678 168.42 190.678 168.42L191.939 164.642C191.939 164.642 197.331 161.043 201.109 150.076C204.886 139.11 207.225 125.08 207.761 118.8C208.297 112.52 208.659 102.418 205.775 96.3216C202.891 90.2253 195.35 88.7657 195.35 88.7657C195.35 88.7657 171.431 84.6304 169.093 84.0942C166.755 83.5581 148.416 85.3353 148.416 85.3353Z" fill="#43231B" stroke="#263238" stroke-miterlimit="10"/>
<path d="M141.267 162.994L138.855 199.701H142.717L143.442 162.994H141.267Z" fill="white" stroke="#263238" stroke-miterlimit="10"/>
<path d="M144.579 162.994L145.86 199.701H149.722L146.748 162.994H144.579Z" fill="white" stroke="#263238" stroke-miterlimit="10"/>
<path d="M184.259 185.775C184.349 186.714 184.408 187.647 184.438 188.55" stroke="#263238" stroke-miterlimit="10"/>
<path d="M180.854 169.358C182.158 173.724 183.168 178.172 183.877 182.673" stroke="#263238" stroke-miterlimit="10"/>
<path d="M174.842 176.527C174.986 181.491 174.926 188.129 173.948 193.153" stroke="#263238" stroke-miterlimit="10"/>
<path d="M174.46 169.358C174.46 169.358 174.594 170.847 174.713 173.211" stroke="#263238" stroke-miterlimit="10"/>
<path d="M178.039 165.267C180.525 163.61 182.918 161.816 185.208 159.896" stroke="#263238" stroke-miterlimit="10"/>
<path d="M191.939 164.642C191.939 164.642 183.142 166.504 170.895 165.014C158.648 163.525 157.149 163.192 157.149 163.192C157.149 163.192 157.645 165.838 163.602 166.831C169.56 167.824 174.708 169.507 190.668 168.42C190.678 168.42 192.957 167.084 191.939 164.642Z" fill="white" stroke="#263238" stroke-miterlimit="10"/>
<path d="M128.201 117.202C128.201 117.202 118.426 120.995 115.447 122.484C112.469 123.973 111.148 130.094 111.476 133.902C111.804 137.71 113.958 152.434 113.958 155.085C113.958 157.736 117.433 159.553 121.241 160.377C125.049 161.202 132.327 162.199 135.141 161.043C137.956 159.886 140.195 154.787 140.314 147.738C140.433 140.689 137.787 127.627 136.973 122.32C136.159 117.013 128.201 117.202 128.201 117.202Z" fill="#C7BDBB" stroke="#263238" stroke-miterlimit="10"/>
<path d="M136.368 86.775C136.368 86.775 129.537 80.8177 128.995 80.1227C128.454 79.4277 129.174 77.7845 129.174 77.7845C129.174 77.7845 134.213 72.2094 134.213 71.1272C134.213 70.045 132.773 70.591 131.696 71.4896C131.696 71.4896 132.411 69.1514 131.512 69.1514C130.614 69.1514 128.653 70.7896 127.541 71.6931C126.805 72.3833 126.254 73.247 125.937 74.2051C125.937 74.2051 126.121 70.0499 124.86 70.591C123.599 71.1322 123.242 74.364 122.701 76.1661C122.159 77.9682 120.715 82.9971 120.715 82.9971L121.792 85.5141L119.096 83.5283C119.096 83.5283 118.734 77.0746 118.555 75.7938C118.377 74.5129 116.758 75.0739 116.758 78.6731C116.77 81.4451 117.011 84.2115 117.478 86.9438C117.657 87.6637 129.527 96.4755 130.425 97.3691C131.44 98.234 132.522 99.016 133.662 99.7073C133.662 99.7073 131.145 107.799 128.986 113.196C126.826 118.592 124.13 125.066 123.41 129.201C122.691 133.336 126.647 140.887 127.188 141.786C127.73 142.684 132.401 146.462 134.561 142.327C136.72 138.191 139.237 120.027 140.136 112.297C141.034 104.568 141.575 98.8088 142.121 96.4706C142.667 94.1323 141.943 86.219 141.223 84.4219C140.503 82.6248 137.222 81.9397 136.144 79.6114C135.067 77.2831 133.662 74.7115 132.952 77.0497C132.242 79.388 133.131 80.2865 133.851 81.9049C134.571 83.5233 136.368 86.775 136.368 86.775Z" fill="#FFBF9D" stroke="#263238" stroke-miterlimit="10"/>
<path d="M125.937 74.2052C125.905 75.2854 125.786 76.3612 125.58 77.4221C125.218 79.4079 124.86 81.7412 124.86 81.7412L127.198 84.6156" stroke="#263238" stroke-miterlimit="10"/>
<path d="M131.696 71.4896C131.696 71.4896 130.465 72.9492 129.839 73.7137C129.214 74.4782 128.027 75.6647 128.027 75.6647C128.027 75.6647 126.98 80.3313 126.98 80.5447C126.98 80.7582 128.931 82.9127 128.931 82.9127" stroke="#263238" stroke-miterlimit="10"/>
<path d="M121.802 85.5142L124.066 87.2368" stroke="#263238" stroke-miterlimit="10"/>
<path d="M124.23 87.897L129.854 82.9326" stroke="#263238" stroke-miterlimit="10"/>
<path d="M133.002 91.0444C133.002 91.0444 137.634 93.194 137.797 96.1727C137.961 99.1513 136.477 100.144 136.477 100.144" stroke="#263238" stroke-miterlimit="10"/>
<path d="M158.668 82.4511C158.668 82.4511 149.499 83.8858 148.416 85.3255C147.334 86.7652 146.619 102.592 146.43 114.119C146.242 125.647 147.87 132.487 147.87 132.487L140.314 147.773L143.914 150.29C143.914 150.29 175.562 118.642 180.059 112.347C184.557 106.052 197.683 91.1239 197.683 89.5105C197.683 87.8971 189.05 84.834 186.171 84.1192C183.291 83.4043 178.62 83.3993 173.586 82.8582C168.552 82.3171 158.668 82.4511 158.668 82.4511Z" fill="white" stroke="#263238" stroke-miterlimit="10"/>
<path d="M155.615 123.601L147.88 132.453" stroke="#263238" stroke-miterlimit="10"/>
<path d="M147.87 28.8056C147.87 28.8056 139.709 38.6451 139.709 41.9911C139.709 45.3371 139.709 50.5696 138.458 52.4561C137.207 54.3425 132.386 56.4276 133.434 58.7311C133.751 59.4099 134.218 60.0077 134.8 60.4791C135.383 60.9504 136.065 61.283 136.795 61.4516C136.795 61.4516 139.937 72.5421 141.61 75.2626C143.283 77.9831 147.071 78.4001 148.724 77.9831C150.377 77.5661 154.374 75.2626 154.374 75.2626C154.374 75.2626 159.398 85.0971 159.606 86.5616C159.815 88.0261 154.791 116.904 154.791 119.823C154.791 122.742 155.63 123.591 155.63 123.591C155.63 123.591 177.811 92.4097 180.114 89.4807C182.418 86.5517 184.299 84.4617 184.299 84.4617C184.299 84.4617 179.067 77.5562 177.185 72.5471C175.304 67.538 174.673 66.0586 175.721 64.604C176.768 63.1494 178.436 60.841 178.436 60.841C178.436 60.841 161.91 41.589 156.469 34.6835C151.028 27.7779 149.757 26.2986 147.87 28.8056Z" fill="#FFBF9D" stroke="#263238" stroke-miterlimit="10"/>
<path d="M154.359 75.2625L161.13 70.6903L156.498 78.3008L154.359 75.2625Z" fill="#263238" stroke="#263238" stroke-miterlimit="10"/>
<path d="M145.08 48.8667L144.36 50.7333" stroke="#263238" stroke-miterlimit="10" stroke-linecap="round"/>
<path d="M149.106 51.0214C149.106 51.0214 144.638 52.3171 142.35 50.3015" stroke="#263238" stroke-width="2" stroke-miterlimit="10" stroke-linecap="round"/>
<path d="M148.416 28.1801C148.218 28.3734 148.035 28.5826 147.87 28.8056C147.87 28.8056 146.182 30.8459 144.34 33.3828C146.465 35.3685 151.936 40.3627 153.942 41.3606C156.32 42.552 149.494 30.0268 148.416 28.1801Z" fill="#263238"/>
<path d="M170.056 57.2665C170.056 57.2665 171.769 62.1366 173.447 63.6309C175.125 65.1252 176.426 63.6309 178.113 61.387C179.801 59.1431 178.486 56.3481 177.741 56.3481C176.996 56.3481 170.086 54.8588 170.086 54.8588L170.056 57.2665Z" fill="#263238" stroke="#263238" stroke-miterlimit="10"/>
<path d="M163.146 58.9396C163.146 58.9396 164.193 62.9111 167.117 61.8686C170.041 60.8261 170.046 57.2666 170.046 57.2666" stroke="#263238" stroke-miterlimit="10"/>
<path d="M143.065 45.7144C143.065 45.7144 145.944 43.2719 148.386 46.1463" stroke="#263238" stroke-width="2" stroke-miterlimit="10" stroke-linecap="round"/>
<path d="M145.656 52.8184C145.656 53.7319 145.368 54.4716 145.011 54.4716C144.653 54.4716 144.36 53.7319 144.36 52.8184C144.36 51.905 144.653 51.1653 145.011 51.1653C145.368 51.1653 145.656 51.905 145.656 52.8184Z" fill="#263238"/>
<path d="M138.468 64.5395C138.468 64.5395 140.622 66.1182 142.936 62.5239" stroke="#263238" stroke-miterlimit="10" stroke-linecap="round"/>
<path d="M144.107 26.9241C144.107 26.9241 151.638 40.328 155.198 45.3371C158.757 50.3462 175.284 60.6126 176.545 61.6601C177.806 62.7076 180.938 62.0771 181.777 61.4516C182.616 60.8261 191.209 57.8921 193.915 52.2426C196.621 46.5931 199.376 32.5736 196.005 25.6681C192.634 18.7626 182.825 14.9946 176.962 14.3691C173.534 13.9797 170.065 14.1914 166.71 14.9946C166.71 14.9946 163.99 13.9521 160.43 15.8336C156.871 17.7151 156.037 18.7626 156.037 18.7626C156.037 18.7626 148.501 21.0661 144.107 26.9241Z" fill="#C7BDBB" stroke="#263238" stroke-miterlimit="10"/>
<path d="M169.843 14.369C169.843 14.369 174.028 11.2315 177.379 10.3975C180.73 9.56346 190.142 11.6535 193.488 13.535C196.834 15.4165 204.792 32.37 206.257 37.811C207.721 43.252 204.37 52.461 204.162 57.897C203.953 63.333 210.859 81.756 211.698 84.0545C212.537 86.3531 212.74 86.358 207.726 89.287C202.712 92.216 189.725 95.3585 186.583 96.3961C183.44 97.4336 180.099 89.6991 177.999 82.1681C175.899 74.637 176.535 66.2819 178.63 55.1765C180.725 44.0711 182.184 34.038 181.137 25.668C180.089 17.298 174.028 13.9421 169.843 14.369Z" fill="#C7BDBB" stroke="#263238" stroke-miterlimit="10"/>
<path d="M166.705 14.9946C170.669 17.9108 173.481 22.1285 174.648 26.9092C176.53 34.8523 179.042 38.8238 180.923 40.3131" stroke="#C7BDBB" stroke-miterlimit="10"/>
<path d="M156.032 18.7626C156.032 18.7626 170.736 23.5334 176.803 33.5764" stroke="#263238" stroke-miterlimit="10"/>
<path d="M90.086 85.9818C94.3824 84.4307 94.9128 74.995 91.2708 64.9065C87.6288 54.8179 81.1934 47.8969 76.897 49.448C72.6006 50.999 72.0701 60.4347 75.7122 70.5233C79.3542 80.6118 85.7896 87.5328 90.086 85.9818Z" fill="white" stroke="#263238" stroke-miterlimit="10"/>
<path d="M90.9942 85.8048C95.2906 84.2537 95.821 74.818 92.179 64.7295C88.537 54.6409 82.1016 47.7199 77.8052 49.271C73.5088 50.822 72.9783 60.2577 76.6204 70.3463C80.2624 80.4348 86.6978 87.3558 90.9942 85.8048Z" fill="white" stroke="#263238" stroke-miterlimit="10"/>
<path d="M84.3306 74.7216L84.2512 76.3747" stroke="#263238" stroke-miterlimit="10" stroke-linecap="round"/>
<path d="M85.3383 54.1886L84.4348 72.6215" stroke="#263238" stroke-miterlimit="10" stroke-linecap="round"/>
<path d="M82.9455 59.1927L82.2952 70.9336" stroke="#263238" stroke-miterlimit="10" stroke-linecap="round"/>
<path d="M91.9559 81.6766L91.8616 82.6795" stroke="#263238" stroke-miterlimit="10" stroke-linecap="round"/>
<path d="M92.7353 73.3264L92.1644 79.4227" stroke="#263238" stroke-miterlimit="10" stroke-linecap="round"/>
<path d="M90.0942 85.9808L96.0615 102.527L99.76 100.358L91.6183 85.4049L90.0942 85.9808Z" fill="#263238" stroke="#263238" stroke-miterlimit="10"/>
<path d="M132.773 138.549C132.773 138.549 117.126 129.737 113.353 125.066C111.484 122.827 109.742 120.485 108.135 118.051C108.135 118.051 106.879 107.978 106.338 104.925C105.797 101.872 101.84 95.7507 101.12 93.5912C100.519 91.7177 100.099 89.791 99.8643 87.8374C99.6856 86.3978 97.7048 86.7602 96.8062 88.736C95.9076 90.7118 97.3473 94.1323 97.526 95.3933C97.6829 96.312 97.9239 97.2143 98.2459 98.089C98.2459 98.089 92.8496 93.055 92.2886 92.6926C91.7276 92.3302 90.4915 92.3352 90.134 94.311C89.7766 96.2869 91.39 98.8088 91.39 98.8088C91.39 98.8088 88.6943 100.795 88.6943 102.046C88.7383 103.132 88.8578 104.213 89.0518 105.282C89.0518 105.282 87.7958 109.596 87.9745 110.679C88.1532 111.761 89.7716 114.993 89.7716 114.993C89.7716 114.993 87.7859 115.172 87.2547 114.635C86.7235 114.099 85.4575 111.215 84.7377 111.935C84.0179 112.655 84.3803 115.355 84.7377 116.254C85.0951 117.152 86.7235 117.152 87.7958 118.408C88.8681 119.664 93.7283 119.848 94.6268 120.394C95.5254 120.94 105.419 130.819 110.096 135.317C114.772 139.815 128.256 153.124 129.154 154.743C130.053 156.361 132.575 158.337 132.575 158.337L132.773 138.549Z" fill="#FFBF9D" stroke="#263238" stroke-miterlimit="10"/>
<path d="M98.2458 98.1039L102.922 102.239" stroke="#263238" stroke-miterlimit="10"/>
<path d="M91.4099 98.8237L94.2893 103.5" stroke="#263238" stroke-miterlimit="10"/>
<path d="M89.0717 105.297L91.4099 109.611" stroke="#263238" stroke-miterlimit="10"/>
<path d="M186.543 107.993L157.749 142.163C157.749 142.163 155.411 141.086 154.513 141.984C154.016 142.46 153.591 143.005 153.252 143.603L148.039 142.163C148.039 142.163 136.169 136.767 133.831 136.767C131.493 136.767 130.773 137.129 130.773 138.028C130.773 138.926 130.956 172.734 130.956 175.072C130.956 177.41 131.135 179.57 134.193 180.647C137.251 181.725 146.962 183.343 149.657 183.164C152.353 182.986 154.513 181.367 155.232 179.927C155.952 178.488 155.952 172.377 155.952 172.377C155.952 172.377 163.503 173.275 168.899 168.777C174.296 164.28 191.557 138.926 194.074 135.516C196.591 132.105 202.166 123.283 203.784 120.047" fill="#43231B"/>
<path d="M186.543 107.993L157.749 142.163C157.749 142.163 155.411 141.086 154.513 141.984C154.016 142.46 153.591 143.005 153.252 143.603L148.039 142.163C148.039 142.163 136.169 136.767 133.831 136.767C131.493 136.767 130.773 137.129 130.773 138.028C130.773 138.926 130.956 172.734 130.956 175.072C130.956 177.41 131.135 179.57 134.193 180.647C137.251 181.725 146.962 183.343 149.657 183.164C152.353 182.986 154.513 181.367 155.232 179.927C155.952 178.488 155.952 172.377 155.952 172.377C155.952 172.377 163.503 173.275 168.899 168.777C174.296 164.28 191.557 138.926 194.074 135.516C196.591 132.105 202.166 123.283 203.784 120.047" stroke="#263238" stroke-miterlimit="10"/>
<path d="M150.154 142.739L148.059 142.163C148.059 142.163 136.189 136.767 133.851 136.767C131.512 136.767 130.793 137.129 130.793 138.028C130.793 138.926 130.976 172.734 130.976 175.072C130.976 177.41 131.155 179.57 134.213 180.647C137.271 181.724 146.982 183.343 149.677 183.164C152.373 182.985 154.532 181.367 155.252 179.927C155.972 178.488 155.972 172.376 155.972 172.376C155.972 172.376 153.986 150.076 150.397 143.062L150.154 142.739Z" fill="#C7BDBB" stroke="#263238" stroke-miterlimit="10"/>
<path d="M195.712 133.351C195.712 133.351 201.287 129.216 203.447 125.259" stroke="#263238" stroke-miterlimit="10"/>
<path d="M161.051 153.482C161.224 153.894 161.388 154.316 161.547 154.753" stroke="#263238" stroke-miterlimit="10"/>
<path d="M153.271 143.603C156.2 145.722 158.582 148.508 160.222 151.73" stroke="#263238" stroke-miterlimit="10"/>
<path d="M158.31 143.062C158.31 143.062 161.905 145.4 162.982 148.458" stroke="#263238" stroke-miterlimit="10"/>
<path d="M155.769 61.1835C155.595 61.1835 155.525 61.1488 155.51 61.0991C156.742 60.4835 157.69 59.7836 158.057 59.1134C159.189 57.0432 156.742 55.9113 154.671 56.4772C154.671 56.4772 149.086 57.6191 146.262 58.7509C143.437 59.8828 142.995 62.3104 146.758 62.8764C146.986 62.9111 147.22 62.936 147.468 62.9509H147.384H147.572C148.403 62.9783 149.234 62.9268 150.054 62.797C150.457 62.797 150.67 62.8466 150.432 62.9657C149.672 63.348 148.019 64.3607 150.308 64.6189C152.596 64.877 157.923 62.7126 158.429 62.0771C158.936 61.4417 156.533 61.1835 155.769 61.1835Z" fill="#D58745"/>
<path d="M35.5204 199.711H257.594" stroke="#263238" stroke-miterlimit="10"/>
<path d="M108.82 203.086H101.87C101.458 203.087 101.06 202.936 100.753 202.661C100.445 202.386 100.251 202.007 100.207 201.597L97.0793 170.321H113.631L110.483 201.597C110.439 202.007 110.245 202.386 109.938 202.661C109.631 202.936 109.232 203.087 108.82 203.086Z" fill="#43231B" stroke="#263238" stroke-miterlimit="10"/>
<path d="M109.247 203.096H101.334V206.065H109.247V203.096Z" fill="#263238" stroke="#263238" stroke-miterlimit="10"/>
<path d="M90.7992 188.357H68.7919C67.421 188.357 66.3097 189.468 66.3097 190.839V203.583C66.3097 204.954 67.421 206.065 68.7919 206.065H90.7992C92.17 206.065 93.2814 204.954 93.2814 203.583V190.839C93.2814 189.468 92.17 188.357 90.7992 188.357Z" fill="white" stroke="#263238" stroke-miterlimit="10"/>
<path d="M85.2043 191.916H67.3821V200.47H85.2043V191.916Z" fill="#263238" stroke="#263238" stroke-miterlimit="10"/>
<path d="M90.968 184.385H68.792V188.357H90.968V184.385Z" fill="white" stroke="#263238" stroke-miterlimit="10"/>
<path d="M69.1246 186.704L81.2031 184.385" stroke="#263238" stroke-miterlimit="10"/>
<path d="M73.7563 188.526L88.1532 184.554" stroke="#263238" stroke-miterlimit="10"/>
<path d="M85.5072 188.526L90.8042 186.207" stroke="#263238" stroke-miterlimit="10"/>
<path d="M52.0221 156.699H49.9768V158.853H52.0221V156.699Z" fill="#43231B" stroke="#263238" stroke-miterlimit="10"/>
<path d="M53.0995 158.64H49.0088V159.608H53.0995V158.64Z" fill="#43231B" stroke="#263238" stroke-miterlimit="10"/>
<path d="M63.8176 175.425C63.6353 173.129 62.7589 170.943 61.3046 169.157C59.8504 167.371 57.8873 166.07 55.676 165.426L54.5441 165.099L51.9973 164.791H50.7761L48.2293 165.099L47.0974 165.426C44.8837 166.068 42.9177 167.368 41.4608 169.154C40.0038 170.94 39.1249 173.127 38.9409 175.425C38.5437 180.243 38.6019 185.088 39.1147 189.896C39.6756 194.657 40.4948 199.398 41.3834 202.183C41.7453 203.311 42.4563 204.295 43.4137 204.993C44.3712 205.69 45.5255 206.066 46.7102 206.065H56.0681C57.252 206.065 58.4052 205.689 59.3617 204.991C60.3181 204.293 61.0283 203.31 61.39 202.183C62.2786 199.398 63.0978 194.657 63.6587 189.896C64.169 185.088 64.2222 180.243 63.8176 175.425Z" fill="white" stroke="#263238" stroke-miterlimit="10"/>
<path d="M53.8838 160.581H48.2294V165.104H53.8838V160.581Z" fill="#43231B" stroke="#263238" stroke-miterlimit="10"/>
<path d="M54.286 159.176H47.8273V163.699H54.286V159.176Z" fill="#43231B" stroke="#263238" stroke-miterlimit="10"/>
<path d="M48.3634 157.563C48.3634 157.563 54.3952 157.453 56.9767 157.776L56.8675 156.783C56.8675 156.783 52.6725 155.492 51.0541 155.602C49.4357 155.711 47.7875 155.82 48.3237 157.434L48.3634 157.563Z" fill="#43231B" stroke="#263238" stroke-miterlimit="10"/>
<path d="M51.079 198.837C55.7263 198.837 59.4937 192.509 59.4937 184.703C59.4937 176.897 55.7263 170.569 51.079 170.569C46.4317 170.569 42.6643 176.897 42.6643 184.703C42.6643 192.509 46.4317 198.837 51.079 198.837Z" fill="#43231B" stroke="#263238" stroke-miterlimit="10"/>
<path d="M225.737 177.862C223.873 177.283 222.172 176.273 220.773 174.913C219.767 173.89 218.614 173.024 217.352 172.342C214.632 170.976 208.952 169.859 208.952 169.859C208.952 169.859 213.946 168.723 217.809 169.631C221.671 170.54 224.392 174.397 224.392 174.397C224.392 174.397 223.255 172.808 221.666 168.042C220.078 163.277 220.078 153.055 220.078 153.055C220.078 153.055 223.94 157.369 225.752 162.592C226.851 165.758 227.613 169.031 228.026 172.357C228.026 172.357 227.569 164.413 228.934 159.866C230.299 155.319 234.157 149.649 234.157 149.649C234.157 149.649 234.38 159.643 232.791 165.089C231.203 170.535 230.523 173.032 230.523 173.032C231.515 170.202 233.146 167.638 235.288 165.54C238.694 162.358 246.87 159.638 246.87 159.638C246.87 159.638 243.033 166.662 240.551 168.936C238.069 171.21 235.557 173.702 235.557 173.702C235.557 173.702 238.282 171.657 243.048 171.657C247.814 171.657 253.473 174.839 253.473 174.839C253.473 174.839 241.335 174.764 236.867 176.825C235.971 177.262 235.021 177.581 234.042 177.773L231.56 178.21C229.611 178.556 227.607 178.428 225.717 177.837L225.737 177.862Z" fill="#43231B" stroke="#263238" stroke-linecap="round" stroke-linejoin="round"/>
<path d="M225.682 175.668L222.887 173.732" stroke="#263238" stroke-linecap="round" stroke-linejoin="round"/>
<path d="M228.696 177.172L224.823 166.846" stroke="#263238" stroke-linecap="round" stroke-linejoin="round"/>
<path d="M228.696 177.172L230.845 163.401" stroke="#263238" stroke-linecap="round" stroke-linejoin="round"/>
<path d="M228.696 177.172L236.013 168.137" stroke="#263238" stroke-linecap="round" stroke-linejoin="round"/>
<path d="M230.225 176.993L237.949 173.513" stroke="#263238" stroke-linecap="round" stroke-linejoin="round"/>
<path d="M236.827 206.065H220.504C220.15 206.065 219.8 205.991 219.475 205.849C219.151 205.707 218.859 205.5 218.619 205.239C218.378 204.979 218.194 204.672 218.078 204.338C217.961 204.003 217.915 203.648 217.943 203.295L219.929 177.976H237.433L239.419 203.295C239.446 203.651 239.4 204.008 239.282 204.345C239.163 204.682 238.977 204.99 238.733 205.25C238.489 205.511 238.194 205.718 237.866 205.858C237.538 205.998 237.184 206.069 236.827 206.065Z" fill="white" stroke="#263238" stroke-linecap="round" stroke-linejoin="round"/>
<path d="M226.73 192.334C226.343 197.889 224.684 202.297 223.031 202.178C221.378 202.059 220.351 197.467 220.738 191.917C221.125 186.366 222.778 181.953 224.431 182.067C226.084 182.181 227.117 186.778 226.73 192.334Z" stroke="#43231B" stroke-miterlimit="10"/>
<path d="M229.743 192.334C230.13 197.889 231.789 202.297 233.442 202.178C235.095 202.059 236.122 197.467 235.735 191.917C235.348 186.366 233.695 181.953 232.042 182.067C230.389 182.181 229.356 186.778 229.743 192.334Z" stroke="#43231B" stroke-miterlimit="10"/>
</svg>
