<svg width="156" height="36" viewBox="0 0 156 36" fill="none" xmlns="http://www.w3.org/2000/svg">
<path d="M136.61 2.42065C136.449 2.62807 136.514 2.83549 136.514 3.02526C136.514 8.32115 136.514 13.617 136.514 18.9129V19.1027C136.514 19.7691 136.514 19.7691 135.872 19.7691C134.697 19.7691 134.693 19.7691 134.693 18.5687C134.693 12.6138 134.693 6.6603 134.693 0.708306C134.693 0.0110133 134.693 0.0110125 135.387 0.0110125C135.938 0.0110125 136.493 0.0110125 137.044 0.0110125C137.177 -0.0125608 137.315 0.0174771 137.427 0.0948247C137.54 0.172172 137.618 0.290818 137.647 0.425858C139.622 5.86003 141.604 11.2898 143.594 16.7151C143.646 16.937 143.742 17.1457 143.876 17.3286C144.058 17.2006 144.075 16.9843 144.136 16.8078C146.079 11.4148 148.015 6.01891 149.944 0.620042C150.105 0.178718 150.296 -0.041944 150.812 0.00660163C151.363 0.04412 151.917 0.04412 152.469 0.00660163C152.837 0.00660163 152.972 0.156647 152.955 0.505293C152.955 0.597972 152.955 0.690652 152.955 0.78333V19.0233C152.955 19.1601 152.955 19.3013 152.955 19.4425C152.955 19.6632 152.863 19.7823 152.621 19.7691C152.239 19.7691 151.853 19.7691 151.471 19.7691C151.254 19.7691 151.159 19.6852 151.15 19.4734C151.141 19.2616 151.15 19.0983 151.15 18.9129C151.15 13.5817 151.15 8.25201 151.15 2.92376C151.15 2.76488 151.215 2.58834 151.068 2.44271C150.89 2.54421 150.89 2.72957 150.833 2.88403C148.861 8.32997 146.893 13.7803 144.93 19.2351C144.898 19.4068 144.802 19.5592 144.662 19.6604C144.522 19.7617 144.349 19.8038 144.179 19.7779C143.012 19.747 143.017 19.7779 142.605 18.6393C140.705 13.3964 138.802 8.15345 136.896 2.91052C136.842 2.72585 136.743 2.55764 136.61 2.42065Z" fill="#A08960"/>
<path d="M100.296 10.0162C100.731 10.2358 101.133 10.5151 101.492 10.8462C102.14 11.6137 102.521 12.573 102.579 13.5787C102.75 14.9472 102.671 16.3289 102.846 17.6929C102.859 18.3362 103.057 18.9618 103.416 19.494C103.574 19.6838 103.473 19.7721 103.258 19.7721C102.732 19.7721 102.206 19.7721 101.676 19.7721C101.396 19.7721 101.361 19.5426 101.304 19.366C101.072 18.5715 100.935 17.752 100.896 16.9248C100.8 15.7727 100.804 14.6117 100.642 13.4639C100.419 11.8924 99.5465 11.036 97.9865 10.8726C97.4958 10.8197 96.9962 10.7932 96.501 10.7888C94.8271 10.7888 93.1532 10.7888 91.4749 10.7888C91.0104 10.7888 90.8615 10.908 90.8658 11.3891C90.8658 13.9672 90.8658 16.5496 90.8658 19.1276C90.8658 19.7854 90.8658 19.7854 90.2129 19.7854C89.0298 19.7854 89.0342 19.7854 89.0342 18.6155V0.697386C89.0342 0.01315 89.0342 0.00431979 89.6959 0.0131486C92.4696 0.0440496 95.2478 -0.0707282 98.0216 0.0793624C98.8754 0.119912 99.7166 0.303411 100.511 0.622335C102.535 1.44783 103.503 3.20919 103.376 5.58415C103.377 6.47292 103.123 7.34292 102.644 8.08934C102.165 8.83575 101.482 9.42674 100.677 9.7911C100.576 9.84849 100.471 9.91471 100.296 10.0162ZM90.8746 5.40758C90.8746 6.47146 90.8746 7.53092 90.8746 8.5948C90.8746 9.03624 90.971 9.22606 91.4618 9.2084C92.6537 9.17309 93.85 9.2084 95.0462 9.2084C96.07 9.25134 97.0955 9.21444 98.1136 9.09804C99.8883 8.80669 101.071 7.82669 101.431 6.31254C101.869 4.44524 101.168 2.78099 99.621 2.10117C99.0787 1.8665 98.5009 1.72619 97.912 1.68621C95.7211 1.52288 93.5301 1.6509 91.3084 1.60676C90.9798 1.60676 90.8702 1.72595 90.8702 2.0482C90.879 3.15622 90.8746 4.2819 90.8746 5.40758Z" fill="#A08960"/>
<path d="M67.7268 9.91797C67.7268 13.0097 67.7268 16.1014 67.7268 19.1932C67.7268 19.6349 67.6491 19.7939 67.1507 19.785C65.779 19.7585 65.779 19.785 65.779 18.46C65.779 15.8497 65.779 13.2394 65.779 10.6291C65.779 10.1874 65.6464 10.077 65.2074 10.077C61.5495 10.077 57.9069 10.077 54.2794 10.077C53.7628 10.077 53.6622 10.2492 53.6667 10.6997C53.6667 13.5132 53.6667 16.3267 53.6667 19.1446C53.6667 19.7762 53.6667 19.7762 52.9992 19.7762H52.7065C51.7463 19.7762 51.7463 19.7762 51.7463 18.8177V0.709018C51.7463 0.0067525 51.7463 0.00233738 52.4962 0.00675415C53.8039 0.00675415 53.6667 -0.156667 53.6667 1.12419C53.6667 3.38999 53.6667 5.6558 53.6667 7.92601C53.6667 8.36769 53.8039 8.51344 54.2703 8.50902C57.9282 8.50902 61.5709 8.50902 65.1983 8.50902C65.6555 8.50902 65.7836 8.39419 65.779 7.95693C65.779 5.51887 65.779 3.09849 65.779 0.638355C65.779 0.00675766 65.779 0.00675657 66.4054 0.00233981C67.7177 0.00233981 67.7177 0.00233954 67.7177 1.27878L67.7268 9.91797Z" fill="#A08960"/>
<path d="M19.7854 10.2411C19.7854 7.06395 19.7854 3.88678 19.7854 0.709601C19.7854 1.41894e-06 19.7854 0 20.4957 0H32.5295C33.1588 0 33.1723 1.69182e-06 33.1588 0.645508C33.1588 1.68015 33.3836 1.6481 32.1609 1.6481H22.3342C21.6959 1.6481 21.6914 1.6481 21.6914 2.28446C21.6914 4.34458 21.6914 6.40471 21.6914 8.46026C21.6914 8.91807 21.8487 9.05999 22.2983 9.05541C25.3551 9.05541 28.4118 9.05541 31.4641 9.05541C31.9541 9.05541 32.089 9.19275 32.0755 9.6826C32.0395 10.7081 32.0755 10.7127 31.0685 10.7127C28.1376 10.7127 25.2247 10.7127 22.2803 10.7127C21.8308 10.7127 21.6914 10.8592 21.6959 11.3216C21.6959 13.638 21.7184 15.9545 21.6959 18.2756C21.6959 18.7792 21.8532 18.8891 22.3252 18.8845C25.8585 18.8845 29.3918 18.8845 32.9251 18.8845C33.3746 18.8845 33.4915 19.0218 33.4825 19.4613C33.4825 20.5463 33.4825 20.5463 32.4306 20.5463C28.4208 20.5463 24.4065 20.5463 20.3968 20.5463C19.9472 20.5463 19.8079 20.4273 19.8079 19.9604C19.7944 16.6916 19.7854 13.4641 19.7854 10.2411Z" fill="#A08960"/>
<path d="M71.5453 9.86628C71.5453 6.77897 71.5453 3.65197 71.5453 0.547023C71.5453 0.105979 71.6894 -0.00428472 72.1125 0.000125725C76.2084 0.000125725 80.3044 0.000125725 84.4003 0.000125725C84.8504 0.000125725 84.9629 0.136849 84.9539 0.564662C84.9314 1.5967 84.9539 1.5967 83.8872 1.5967C80.6059 1.5967 77.3247 1.5967 74.0389 1.5967C73.5888 1.5967 73.4448 1.70255 73.4493 2.16124C73.4763 4.09742 73.4493 6.03361 73.4493 7.9698C73.4493 8.79455 73.2962 8.7328 74.2505 8.7328H83.1895C83.8152 8.7328 83.8152 8.7328 83.8197 9.35026C83.8197 10.3117 83.8197 10.3117 82.8294 10.3117C79.8993 10.3117 76.9781 10.3117 74.0344 10.3117C73.5843 10.3117 73.4313 10.4044 73.4358 10.8763C73.4628 13.1388 73.4583 15.4014 73.4358 17.6684C73.4358 18.0873 73.5663 18.1888 73.9759 18.1844C77.5317 18.1844 81.083 18.1844 84.6389 18.1844C85.089 18.1844 85.242 18.2902 85.2285 18.7533C85.197 19.7854 85.2285 19.7854 84.1662 19.7854C80.1468 19.7854 76.1319 19.7854 72.117 19.7854C71.6669 19.7854 71.5273 19.6751 71.5318 19.2164C71.5543 16.0806 71.5453 12.9756 71.5453 9.86628Z" fill="#A08960"/>
<path d="M130.113 7.56866C130.069 9.3556 130.209 11.5357 130.043 13.7157C129.907 15.5027 129.402 17.1913 128.121 18.5271C127.274 19.3987 126.191 19.9943 125.011 20.2381C123.084 20.7216 121.061 20.6349 119.181 19.9879C117.022 19.215 115.781 17.5934 115.232 15.3776C115.009 14.457 114.9 13.5115 114.908 12.5632C114.908 8.59317 114.908 4.6232 114.908 0.653213C114.908 0.0188493 114.908 0.0143808 115.531 0.00991345C116.75 0.00991345 116.75 0.00991042 116.75 1.2563C116.75 4.79891 116.75 8.34152 116.75 11.8841C116.733 12.9604 116.847 14.0347 117.088 15.0827C117.658 17.379 119.089 18.6343 121.414 18.8666C122.396 18.9771 123.388 18.9334 124.357 18.737C126.248 18.3216 127.384 17.1109 127.867 15.2302C128.127 14.1547 128.251 13.0497 128.235 11.9422C128.235 8.16282 128.235 4.38345 128.235 0.604071C128.235 0.108196 128.38 -0.0124252 128.841 0.00097685C130.293 0.0501177 130.087 -0.213454 130.1 1.28758C130.122 3.23087 130.113 5.19204 130.113 7.56866Z" fill="#A08960"/>
<path d="M16.5465 19.7781C15.6518 19.7781 15.6518 19.7781 15.3343 18.9362C14.7259 17.3141 14.1131 15.6921 13.5226 14.0612C13.4942 13.9118 13.4089 13.7788 13.2841 13.6895C13.1593 13.6001 13.0046 13.5612 12.8517 13.5807C10.1141 13.5983 7.37508 13.5983 4.63455 13.5807C4.50311 13.5647 4.37035 13.5979 4.26264 13.6739C4.15492 13.7498 4.08011 13.8629 4.05305 13.9906C3.38656 15.7538 2.71112 17.5522 2.02673 19.3373C1.90596 19.6635 1.74939 19.8222 1.37813 19.7781C1.09355 19.7627 0.808331 19.7627 0.523758 19.7781C-0.0890585 19.7781 -0.0890613 19.7781 0.143541 19.1919C0.939755 17.2054 1.73299 15.2175 2.52324 13.2281C4.20215 9.02006 5.87659 4.81058 7.54656 0.599617C7.70759 0.194096 7.89545 -0.0174826 8.36513 0.0398194C8.83481 0.0971213 9.46105 -0.136491 9.85021 0.132387C10.2394 0.401265 10.2975 1.01396 10.4586 1.45474C12.7637 7.34655 15.0599 13.2413 17.3472 19.139C17.3695 19.1963 17.3829 19.258 17.4098 19.3153C17.5798 19.6371 17.535 19.8134 17.1145 19.7561C16.9249 19.7524 16.7352 19.7598 16.5465 19.7781ZM8.79456 1.70598C8.70062 1.8867 8.65588 1.94842 8.62904 2.01894C7.43621 5.2014 6.22996 8.38386 5.01029 11.5663C4.8761 11.9278 4.95215 12.0071 5.33684 12.0071C7.63005 12.0071 9.92625 12.0071 12.2254 12.0071C12.628 12.0071 12.6727 11.8969 12.5341 11.5663C11.5903 9.10234 10.6643 6.63395 9.72944 4.16556C9.41185 3.36774 9.11214 2.58314 8.77219 1.69717L8.79456 1.70598Z" fill="#A08960"/>
<path d="M43.2041 10.7259C43.2041 13.5545 43.2041 16.383 43.2041 19.2072C43.2041 19.6484 43.0799 19.8294 42.6232 19.7764C42.3431 19.7477 42.0608 19.7477 41.7807 19.7764C41.395 19.8161 41.3063 19.6529 41.3063 19.2954C41.3063 16.4183 41.3063 13.5589 41.3063 10.6686C41.3063 7.77822 41.3063 4.98498 41.3063 2.14319C41.3063 1.70191 41.1688 1.59159 40.7476 1.59601C39.0049 1.59601 37.2623 1.59601 35.5196 1.59601C35.1383 1.59601 34.9964 1.49011 35.0053 1.09737C35.0363 -0.160251 34.8722 0.00743188 36.065 0.00743188C40.3041 0.00743188 44.5432 0.00743188 48.7823 0.00743188C49.4608 0.00743188 49.4652 0.00742896 49.4607 0.686988C49.4607 1.74604 49.5583 1.56953 48.5739 1.56953C46.9421 1.56953 45.3059 1.56953 43.6741 1.56953C43.2795 1.56953 43.1731 1.69309 43.1775 2.077C43.213 4.97615 43.2041 7.85324 43.2041 10.7259Z" fill="#A08960"/>
<path d="M109.581 9.8815C109.581 12.9722 109.581 16.0982 109.581 19.2066C109.581 19.6481 109.437 19.7938 108.89 19.785C107.298 19.7629 107.298 19.785 107.298 18.4957C107.298 12.5263 107.298 6.5568 107.298 0.587328C107.298 0.145799 107.425 -0.00432107 107.977 9.42175e-05C109.57 9.42175e-05 109.57 9.28469e-05 109.57 1.3026L109.581 9.8815Z" fill="#A08960"/>
<path d="M77.624 30.4156C77.624 29.0698 77.624 27.7239 77.624 26.414C77.624 26.0057 77.7302 25.8712 78.1549 25.8801C79.7962 25.907 81.442 25.8801 83.0877 25.8801C83.3222 25.8801 83.5921 25.7949 83.6009 26.2211C83.6098 26.6473 83.3178 26.5934 83.07 26.5979C81.7207 26.5979 80.3758 26.5979 79.0265 26.5979C78.5841 26.5979 78.4425 26.7325 78.4602 27.1676C78.4867 27.9168 78.4602 28.6615 78.4602 29.4107C78.4602 29.7696 78.5575 29.9131 78.938 29.9042C80.1457 29.9042 81.3535 29.9042 82.5568 29.9042C82.8002 29.9042 83.1054 29.7965 83.1098 30.2586C83.1143 30.7206 82.84 30.6399 82.5745 30.6399C81.3668 30.6399 80.1634 30.6399 78.9557 30.6399C78.5973 30.6399 78.4469 30.7431 78.4558 31.1244C78.4779 32.0216 78.4779 32.9188 78.4558 33.8161C78.4558 34.2019 78.6018 34.3006 78.9557 34.2961C80.3846 34.2961 81.8092 34.2961 83.2337 34.2961C83.4726 34.2961 83.7159 34.2602 83.7071 34.6325C83.6982 35.0049 83.4859 35.0049 83.2293 35.0049C81.5216 35.0049 79.8139 35.0049 78.1063 35.0049C77.7391 35.0049 77.6152 34.8613 77.6196 34.4935C77.624 33.1162 77.624 31.7659 77.624 30.4156Z" fill="#A08960"/>
<path d="M155.206 31.8612C155.206 32.4554 155.206 33.0542 155.206 33.6352C155.206 34.0121 155.237 34.4024 155.796 34.2782C155.946 34.2427 155.995 34.327 155.999 34.4556C156.004 34.5842 155.999 34.7572 155.81 34.8415C155.692 34.9008 155.562 34.9335 155.431 34.9373C155.299 34.9411 155.168 34.916 155.046 34.8637C154.925 34.8113 154.817 34.733 154.729 34.6342C154.641 34.5354 154.575 34.4185 154.537 34.2915C154.435 33.9456 154.325 34.092 154.166 34.2206C153.775 34.5713 153.3 34.8157 152.788 34.9306C152.277 35.0454 151.744 35.027 151.241 34.8769C150.875 34.7912 150.546 34.5861 150.307 34.2934C150.069 34.0007 149.932 33.6368 149.92 33.2582C149.884 32.8782 149.976 32.4973 150.18 32.1759C150.385 31.8545 150.69 31.611 151.047 31.4842C151.771 31.2436 152.521 31.0947 153.281 31.0407C153.391 31.0407 153.501 31.0407 153.607 30.9963C153.964 30.9121 154.365 30.8988 154.426 30.3888C154.478 30.1322 154.448 29.8658 154.342 29.6272C154.235 29.3885 154.057 29.1895 153.832 29.0583C153.587 28.9175 153.314 28.8313 153.033 28.8055C152.752 28.7797 152.469 28.8148 152.203 28.9086C151.936 29.0023 151.693 29.1524 151.489 29.3489C151.285 29.5453 151.126 29.7834 151.021 30.0473C150.889 30.3754 150.638 30.3311 150.4 30.2823C150.087 30.2202 150.268 29.9763 150.303 29.8388C150.373 29.4859 150.54 29.1595 150.783 28.8957C151.026 28.6319 151.337 28.4411 151.682 28.3442C152.367 28.1185 153.103 28.0954 153.801 28.2777C154.19 28.3492 154.54 28.5575 154.791 28.8654C155.041 29.1734 155.174 29.5608 155.167 29.9586C155.193 30.5883 155.167 31.2137 155.167 31.8434L155.206 31.8612ZM154.466 32.2293C154.462 32.151 154.462 32.0725 154.466 31.9942C154.519 31.5507 154.365 31.4265 153.946 31.5862C153.751 31.6372 153.552 31.6742 153.351 31.6971C152.713 31.8168 152.03 31.7547 151.435 32.0519C151.213 32.1498 151.026 32.3143 150.9 32.523C150.774 32.7317 150.714 32.9745 150.73 33.2183C150.741 33.4473 150.822 33.6672 150.963 33.8476C151.103 34.028 151.296 34.1599 151.514 34.225C151.839 34.3508 152.189 34.3958 152.534 34.3562C152.88 34.3166 153.21 34.1936 153.499 33.9976C153.787 33.8017 154.023 33.5385 154.189 33.2307C154.354 32.9228 154.443 32.5792 154.448 32.2293H154.466Z" fill="#A08960"/>
<path d="M117.815 28.1566C118.112 28.1529 118.408 28.1782 118.699 28.2322C119.133 28.2856 119.531 28.5023 119.813 28.8388C120.095 29.1752 120.24 29.6066 120.218 30.0462C120.245 31.1311 120.218 32.2159 120.218 33.3007C120.218 33.4875 120.218 33.6786 120.218 33.8654C120.218 34.1633 120.355 34.35 120.691 34.31C120.824 34.31 120.978 34.2211 120.992 34.4612C121.005 34.7012 120.992 34.7902 120.775 34.8702C120.656 34.9318 120.524 34.9652 120.389 34.9677C120.255 34.9703 120.122 34.942 120 34.885C119.878 34.8279 119.771 34.7437 119.686 34.6387C119.602 34.5337 119.542 34.4106 119.512 34.2789C119.392 33.8698 119.255 34.1633 119.149 34.2522C118.761 34.5855 118.298 34.8181 117.799 34.9297C117.301 35.0413 116.783 35.0285 116.291 34.8924C115.912 34.813 115.57 34.6078 115.32 34.3095C115.07 34.0113 114.927 33.6373 114.913 33.2474C114.882 32.8648 114.978 32.4826 115.186 32.1608C115.394 31.839 115.702 31.5956 116.062 31.4689C116.8 31.2144 117.57 31.0647 118.35 31.0243C119.233 30.8954 119.445 30.7531 119.459 30.1707C119.48 29.8513 119.375 29.5364 119.168 29.2937C118.96 29.0509 118.667 28.8997 118.35 28.8725C117.979 28.8058 117.599 28.8058 117.228 28.8725C116.945 28.9023 116.679 29.0211 116.467 29.2118C116.256 29.4026 116.109 29.6556 116.048 29.9351C115.964 30.3263 115.708 30.3174 115.452 30.2552C115.112 30.1751 115.271 29.9084 115.328 29.7172C115.615 28.7168 116.375 28.3256 117.316 28.1833C117.482 28.1627 117.649 28.1538 117.815 28.1566ZM119.485 32.1581C119.485 32.0781 119.485 31.998 119.485 31.9224C119.525 31.5268 119.379 31.4112 118.999 31.5534C118.79 31.6132 118.575 31.6549 118.359 31.6779C117.718 31.798 117.033 31.7357 116.437 32.0336C116.204 32.1307 116.009 32.303 115.884 32.5234C115.758 32.7439 115.709 33.0001 115.744 33.2518C115.761 33.4916 115.858 33.7187 116.018 33.8974C116.178 34.076 116.392 34.1961 116.627 34.2388C116.954 34.3523 117.303 34.3849 117.646 34.3339C117.988 34.2828 118.313 34.1497 118.593 33.9456C118.873 33.7416 119.101 33.4726 119.256 33.1615C119.411 32.8504 119.49 32.5062 119.485 32.1581Z" fill="#A08960"/>
<path d="M127.746 28.1563C128.033 28.1537 128.318 28.1806 128.599 28.2366C129.037 28.3027 129.434 28.5305 129.713 28.8756C129.992 29.2207 130.133 29.6581 130.109 30.1022C130.109 31.2715 130.109 32.4408 130.109 33.6101C130.109 34.0073 130.109 34.4135 130.704 34.3019C130.824 34.3019 130.877 34.3644 130.881 34.467C130.886 34.5697 130.921 34.7482 130.766 34.8464C130.353 35.1008 129.571 34.8731 129.46 34.4001C129.349 33.927 129.207 34.1189 128.981 34.2974C128.609 34.6053 128.171 34.8214 127.702 34.9283C127.232 35.0353 126.744 35.0301 126.277 34.9133C125.884 34.8533 125.524 34.6589 125.257 34.363C124.99 34.0671 124.833 33.6877 124.812 33.2888C124.765 32.8831 124.862 32.4739 125.086 32.1333C125.31 31.7928 125.647 31.5429 126.037 31.4277C126.744 31.213 127.472 31.0753 128.208 31.0171C128.297 31.0171 128.395 31.0171 128.488 30.9814C128.861 30.8921 129.287 30.8832 129.349 30.3432C129.402 30.083 129.37 29.8128 129.259 29.5719C129.148 29.3311 128.964 29.1322 128.732 29.0043C128.484 28.8649 128.209 28.7807 127.925 28.7573C127.642 28.734 127.356 28.772 127.089 28.8689C126.821 28.9657 126.577 29.1192 126.374 29.3188C126.17 29.5185 126.011 29.7598 125.908 30.0263C125.771 30.3833 125.509 30.2718 125.287 30.245C124.998 30.2093 125.136 29.9906 125.171 29.8389C125.402 28.8704 126.13 28.2813 127.263 28.1563C127.445 28.1608 127.631 28.1608 127.746 28.1563ZM129.376 32.2221C129.369 32.1434 129.369 32.0643 129.376 31.9856C129.438 31.5393 129.278 31.4366 128.857 31.575C128.422 31.6965 127.975 31.7639 127.524 31.7758C127.068 31.7847 126.619 31.9008 126.215 32.115C126.02 32.2218 125.86 32.3834 125.755 32.5799C125.65 32.7765 125.605 32.9996 125.624 33.2218C125.632 33.4372 125.704 33.6453 125.829 33.82C125.955 33.9947 126.129 34.1282 126.33 34.2037C126.66 34.3459 127.019 34.4043 127.376 34.3739C127.733 34.3435 128.078 34.2251 128.379 34.0293C128.68 33.8335 128.928 33.5662 129.102 33.251C129.276 32.9358 129.37 32.5825 129.376 32.2221Z" fill="#A08960"/>
<path d="M97.8578 31.7643C97.1212 31.7643 96.3846 31.7643 95.648 31.7643C95.3329 31.7643 95.2218 31.8443 95.2403 32.1686C95.2405 32.5046 95.3224 32.836 95.4793 33.1364C95.6363 33.4368 95.8641 33.698 96.1446 33.8993C96.4251 34.1007 96.7507 34.2366 97.0955 34.2963C97.4403 34.356 97.7949 34.3379 98.1312 34.2434C98.4134 34.1842 98.6761 34.0592 98.8959 33.8794C99.1157 33.6996 99.2859 33.4706 99.3913 33.2126C99.4285 33.0778 99.5189 32.9621 99.6433 32.89C99.7678 32.8179 99.9166 32.795 100.058 32.8261C100.36 32.8261 100.369 32.9416 100.285 33.1771C100.115 33.6836 99.7876 34.1284 99.3475 34.4529C98.9074 34.7773 98.3751 34.9661 97.8208 34.9942C95.7638 35.1275 94.499 34.0123 94.3879 31.9242C94.3191 31.3754 94.3827 30.8187 94.5739 30.2972C94.7651 29.7757 95.0787 29.3033 95.4905 28.9165C95.8922 28.5499 96.3958 28.3024 96.9407 28.2039C97.4857 28.1054 98.0487 28.16 98.562 28.3611C99.697 28.7432 100.183 29.6362 100.364 30.698C100.545 31.7599 100.526 31.7776 99.382 31.7776L97.8578 31.7643ZM97.4223 31.1201C98.0292 31.1201 98.6361 31.1201 99.243 31.1201C99.5117 31.1201 99.6322 31.0357 99.5998 30.7602C99.5849 30.461 99.5021 30.1684 99.3573 29.9029C99.2125 29.6374 99.0091 29.4054 98.7612 29.223C98.446 28.9927 98.0685 28.8539 97.6735 28.8232C97.2785 28.7925 96.8826 28.8711 96.5328 29.0498C96.1839 29.2278 95.886 29.4855 95.6654 29.8001C95.4449 30.1147 95.3084 30.4764 95.2681 30.8535C95.2125 31.1201 95.421 31.1156 95.6063 31.1156L97.4223 31.1201Z" fill="#A08960"/>
<path d="M146.099 31.7421H144.185C144.003 31.7421 143.838 31.7421 143.854 32.0331C143.848 32.4172 143.932 32.7966 144.098 33.1358C144.263 33.4749 144.504 33.7629 144.799 33.9728C145.091 34.174 145.428 34.2856 145.773 34.2956C146.118 34.3057 146.46 34.214 146.762 34.0301C146.937 33.9385 147.093 33.8093 147.222 33.6502C147.35 33.4912 147.448 33.3055 147.509 33.1044C147.642 32.6635 147.953 32.8002 148.216 32.8222C148.365 32.8222 148.308 32.9809 148.272 33.0823C148.173 33.4284 148.011 33.7486 147.794 34.0231C147.577 34.2976 147.311 34.5206 147.012 34.6782C146.655 34.8813 146.261 34.9927 145.858 35.004C145.456 35.0152 145.057 34.926 144.691 34.7431C144.325 34.5603 144.002 34.2885 143.747 33.9488C143.492 33.609 143.312 33.2101 143.22 32.7825C143.063 32.2116 143.024 31.6102 143.103 31.0207C143.183 30.4312 143.38 29.8679 143.68 29.3704C143.983 28.8829 144.421 28.5137 144.929 28.3162C145.437 28.1188 145.99 28.1036 146.507 28.2727C146.999 28.4262 147.436 28.742 147.757 29.1769C148.078 29.6118 148.268 30.1444 148.3 30.7017C148.422 31.8568 148.603 31.7377 147.452 31.7421H146.099ZM145.752 31.1029C146.281 31.1029 146.806 31.1029 147.335 31.1029C147.577 31.1029 147.654 31.0103 147.646 30.7414C147.63 30.246 147.444 29.7753 147.124 29.4231C146.805 29.071 146.375 28.8633 145.922 28.8414C144.621 28.7753 144.048 29.8509 143.87 30.7943C143.817 31.0676 143.971 31.1029 144.169 31.0985C144.694 31.0985 145.223 31.1029 145.752 31.1029Z" fill="#A08960"/>
<path d="M87.4806 35.0017C86.326 35.0017 85.5326 34.3826 85.3024 33.278C85.2707 33.1221 85.112 32.8772 85.3937 32.8326C85.604 32.797 85.8896 32.6901 85.9729 33.082C86.2269 34.2312 87.1989 34.5028 88.1789 34.2579C88.4182 34.2219 88.6388 34.0931 88.8026 33.8939C88.9663 33.6946 89.0629 33.4374 89.0755 33.1667C89.0954 32.6812 88.8295 32.3071 88.2582 32.1155C87.6869 31.924 87.0005 31.786 86.3895 31.5633C86.0421 31.4672 85.7425 31.221 85.5559 30.8781C85.3694 30.5353 85.3111 30.1236 85.3937 29.7327C85.4239 29.4325 85.5289 29.1479 85.6967 28.9115C85.8644 28.6752 86.088 28.4967 86.3419 28.3965C87.0399 28.076 87.8221 28.076 88.5201 28.3965C88.7836 28.511 89.0166 28.6992 89.1971 28.9431C89.3777 29.1871 89.4997 29.4788 89.5516 29.7906C89.5794 29.9242 89.7182 30.1291 89.4921 30.1736C89.266 30.2182 89.0557 30.3473 88.9168 30.0044C88.8463 29.7737 88.7343 29.5617 88.5878 29.3816C88.4413 29.2015 88.2634 29.0571 88.0651 28.9573C87.8669 28.8575 87.6525 28.8044 87.4353 28.8015C87.218 28.7985 87.0025 28.8456 86.8021 28.9399C86.6087 28.9883 86.4343 29.1054 86.305 29.2739C86.1756 29.4424 86.0981 29.6533 86.084 29.8752C86.0683 30.0897 86.1184 30.3038 86.2259 30.482C86.3334 30.6602 86.4919 30.7919 86.6752 30.8551C87.1197 31.0458 87.5775 31.1948 88.044 31.3005C88.3718 31.3858 88.69 31.5128 88.9922 31.6791C89.2254 31.811 89.4228 32.0107 89.5638 32.2574C89.7048 32.5041 89.7844 32.7887 89.7941 33.0817C89.8038 33.3746 89.7434 33.6651 89.6191 33.9229C89.4948 34.1807 89.3112 34.3963 89.0874 34.5474C88.6029 34.872 88.0442 35.0299 87.4806 35.0017Z" fill="#A08960"/>
<path d="M137.735 31.5781V34.3264C137.735 34.5692 137.776 34.8303 137.401 34.844C137.026 34.8578 136.972 34.7112 136.944 34.386C136.917 34.0607 136.784 34.0837 136.592 34.2715C136.36 34.5099 136.082 34.698 135.774 34.8241C135.466 34.9501 135.136 35.0115 134.804 35.0043C133.317 35.0043 132.476 34.2623 132.43 32.7782C132.384 31.2941 132.43 29.9291 132.43 28.4999C132.43 28.1885 132.595 28.1656 132.819 28.161C133.043 28.1564 133.226 28.2251 133.221 28.5457C133.221 29.8558 133.221 31.1704 133.221 32.4805C133.221 33.5386 133.564 34.0699 134.369 34.2623C134.811 34.3839 135.28 34.3475 135.698 34.1594C136.115 33.9712 136.454 33.6431 136.656 33.2317C136.88 32.744 136.988 32.2109 136.972 31.6743C136.972 30.6665 136.972 29.6634 136.972 28.6603C136.972 28.3992 136.972 28.1656 137.337 28.1564C137.703 28.1472 137.735 28.3717 137.735 28.6648C137.735 29.6176 137.735 30.5749 137.735 31.5323V31.5781Z" fill="#A08960"/>
<path d="M108.058 31.5521C108.088 30.3317 108.432 29.0979 109.719 28.4456C111.123 27.7266 112.8 28.4056 113.228 29.8346C113.282 30.0077 113.456 30.2518 113.174 30.3494C113.116 30.3828 113.052 30.4023 112.987 30.4065C112.921 30.4107 112.856 30.3995 112.795 30.3737C112.734 30.3479 112.679 30.3081 112.634 30.2571C112.589 30.2062 112.555 30.1453 112.534 30.0787C112.422 29.7751 112.24 29.5064 112.005 29.2972C111.77 29.088 111.49 28.9449 111.191 28.8809C110.891 28.817 110.581 28.8342 110.289 28.931C109.998 29.0278 109.733 29.2011 109.52 29.4352C108.602 30.4204 108.582 32.6749 109.449 33.7089C110.28 34.672 112.19 34.5965 112.617 32.9767C112.675 32.7504 112.746 32.595 113.032 32.5995C113.319 32.6039 113.448 32.7015 113.356 33.0743C113.213 33.6532 112.886 34.1613 112.432 34.5123C111.978 34.8633 111.425 35.0357 110.865 35.0004C109.537 35.0004 108.623 34.3302 108.258 33.0743C108.125 32.5793 108.058 32.067 108.058 31.5521Z" fill="#A08960"/>
<path d="M91.4997 31.6163C91.4997 30.9058 91.4997 30.191 91.4997 29.4805C91.4997 29.1516 91.4078 28.9849 91.0401 29.0069C90.8379 29.0069 90.5805 29.099 90.5575 28.735C90.5346 28.371 90.8011 28.4104 91.0171 28.4236C91.4216 28.4499 91.5319 28.2613 91.5135 27.9192C91.4951 27.5772 91.5135 27.3009 91.5135 26.9895C91.5135 26.6781 91.6422 26.6387 91.9042 26.6343C92.1661 26.6299 92.281 26.7571 92.2764 27.007C92.2764 27.3316 92.2764 27.6561 92.2764 27.9806C92.2764 28.3052 92.3959 28.4455 92.736 28.4192C92.9153 28.4192 93.0945 28.4192 93.2691 28.4192C93.4438 28.4192 93.5403 28.5376 93.5265 28.7218C93.5127 28.906 93.476 29.0288 93.2508 29.0069H93.2002C92.281 29.0727 92.281 29.0727 92.281 29.9673C92.281 31.0988 92.281 32.2303 92.281 33.3618C92.281 34.2082 92.3913 34.3047 93.2508 34.2959C93.4024 34.2959 93.5955 34.2301 93.6001 34.4845C93.6001 34.6555 93.6001 34.7959 93.3703 34.8792C92.2902 35.2476 91.5319 34.7915 91.5319 33.7039C91.5319 33.0065 91.5319 32.3048 91.5319 31.6075L91.4997 31.6163Z" fill="#A08960"/>
<path d="M102.131 31.5989C102.131 30.9003 102.131 30.2018 102.131 29.5033C102.131 29.1606 102.057 28.9717 101.67 29.0156C101.472 29.0156 101.21 29.0771 101.21 28.752C101.21 28.4269 101.44 28.4093 101.67 28.4269C102.048 28.4532 102.159 28.2907 102.131 27.9568C102.104 27.6229 102.131 27.3022 102.131 26.9771C102.131 26.652 102.283 26.6388 102.523 26.6344C102.762 26.63 102.933 26.6827 102.914 26.9683C102.896 27.2539 102.914 27.6229 102.914 27.948C102.914 28.2731 103.062 28.4489 103.43 28.4225C103.592 28.4225 103.753 28.4225 103.919 28.4225C104.085 28.4225 104.191 28.5191 104.186 28.7125C104.181 28.9058 104.135 28.9892 103.919 29.0156C103.596 29.0551 103.154 28.8355 102.997 29.1562C102.906 29.4693 102.887 29.7976 102.942 30.1183C102.942 31.2386 102.942 32.3545 102.942 33.4748C102.942 34.1997 103.066 34.3096 103.822 34.314C104.02 34.314 104.223 34.2832 104.251 34.56C104.278 34.8368 104.112 34.8675 103.905 34.9203C102.799 35.2014 102.191 34.7797 102.163 33.6901C102.163 33.3299 102.163 32.974 102.163 32.6181L102.131 31.5989Z" fill="#A08960"/>
<path d="M140.163 29.3646C140.299 29.0395 140.521 28.7568 140.806 28.5462C141.091 28.3355 141.429 28.2049 141.783 28.1679C142.246 28.1175 142.325 28.2184 142.297 28.6723C142.297 28.8877 142.168 28.929 141.996 28.9794C140.553 29.3829 140.094 29.956 140.052 31.4644C140.024 32.5006 140.024 33.5368 140.052 34.5729C140.052 34.9856 139.852 35.0314 139.537 34.9948C139.342 34.9948 139.259 34.8847 139.259 34.683C139.259 32.6718 139.259 30.6621 139.259 28.6539C139.259 28.3284 139.481 28.3467 139.69 28.3376C139.899 28.3284 140.07 28.3972 140.047 28.6723C140.024 28.9474 140.047 29.0895 140.047 29.2958L140.163 29.3646Z" fill="#A08960"/>
<path d="M105.776 31.5571C105.776 30.578 105.776 29.6036 105.776 28.6246C105.776 28.3295 105.84 28.1561 106.181 28.1561C106.523 28.1561 106.536 28.3622 106.536 28.6246V34.5365C106.536 34.7847 106.536 35.0049 106.186 35.0049C105.835 35.0049 105.776 34.8503 105.776 34.5365C105.78 33.5433 105.776 32.5502 105.776 31.5571Z" fill="#A08960"/>
<path d="M105.783 26.2596C105.783 26.0485 105.735 25.8821 106.136 25.8732C106.601 25.8732 106.533 26.0753 106.533 26.2804C106.533 26.4855 106.533 26.6341 106.136 26.6341C105.739 26.6341 105.767 26.4409 105.783 26.2596Z" fill="#A08960"/>
</svg>
