<svg width="232" height="52" viewBox="0 0 232 52" fill="none" xmlns="http://www.w3.org/2000/svg">
<path d="M202.935 3.59589C202.697 3.90401 202.793 4.21214 202.793 4.49404C202.793 12.3611 202.793 20.2282 202.793 28.0953V28.3772C202.793 29.3671 202.793 29.3671 201.84 29.3671C200.093 29.3671 200.087 29.3671 200.087 27.5839C200.087 18.7378 200.087 9.89392 200.087 1.05219C200.087 0.0163603 200.087 0.0163591 201.118 0.0163591C201.936 0.0163591 202.761 0.0163591 203.579 0.0163591C203.778 -0.0186592 203.982 0.0259624 204.149 0.140863C204.316 0.255763 204.433 0.432012 204.475 0.632616C207.409 8.70512 210.354 16.7711 213.31 24.8305C213.387 25.16 213.529 25.47 213.728 25.7417C213.999 25.5516 214.025 25.2304 214.115 24.9681C217.002 16.9568 219.878 8.94113 222.743 0.921077C222.982 0.265487 223.265 -0.0623082 224.032 0.00980677C224.852 0.0655406 225.674 0.0655406 226.494 0.00980677C227.041 0.00980677 227.241 0.232701 227.215 0.750617C227.215 0.888291 227.215 1.02597 227.215 1.16364V28.2592C227.215 28.4624 227.215 28.6722 227.215 28.882C227.215 29.2098 227.08 29.3868 226.719 29.3671C226.152 29.3671 225.578 29.3671 225.011 29.3671C224.689 29.3671 224.547 29.2426 224.535 28.9279C224.522 28.6132 224.535 28.3706 224.535 28.0953C224.535 20.1758 224.535 12.2584 224.535 4.34326C224.535 4.10725 224.631 3.845 224.412 3.62866C224.148 3.77944 224.148 4.05479 224.064 4.28425C221.134 12.3742 218.211 20.4708 215.294 28.5739C215.247 28.8289 215.105 29.0554 214.897 29.2057C214.689 29.3561 214.432 29.4187 214.179 29.3803C212.446 29.3344 212.453 29.3803 211.84 27.6888C209.018 19.9004 206.191 12.112 203.36 4.32359C203.279 4.04927 203.133 3.7994 202.935 3.59589Z" fill="#A08960"/>
<path d="M148.99 14.8792C149.636 15.2054 150.234 15.6203 150.767 16.112C151.729 17.2522 152.296 18.6773 152.382 20.1712C152.635 22.2041 152.518 24.2567 152.779 26.283C152.798 27.2385 153.092 28.1679 153.625 28.9585C153.859 29.2405 153.709 29.3716 153.391 29.3716C152.609 29.3716 151.828 29.3716 151.041 29.3716C150.624 29.3716 150.572 29.0306 150.487 28.7683C150.143 27.5881 149.94 26.3707 149.882 25.1419C149.739 23.4304 149.745 21.7057 149.504 20.0007C149.172 17.6662 147.877 16.394 145.56 16.1514C144.831 16.0727 144.089 16.0333 143.353 16.0268C140.866 16.0268 138.38 16.0268 135.887 16.0268C135.197 16.0268 134.975 16.2038 134.982 16.9186C134.982 20.7483 134.982 24.5845 134.982 28.4142C134.982 29.3913 134.982 29.3913 134.012 29.3913C132.254 29.3913 132.261 29.3913 132.261 27.6535V1.03597C132.261 0.0195344 132.261 0.00641709 133.244 0.0195324C137.364 0.0654361 141.491 -0.105067 145.612 0.117893C146.88 0.17813 148.13 0.450719 149.309 0.924483C152.316 2.15077 153.755 4.76728 153.566 8.2953C153.567 9.61557 153.189 10.908 152.478 12.0168C151.766 13.1256 150.752 14.0035 149.556 14.5448C149.407 14.63 149.251 14.7284 148.99 14.8792ZM134.995 8.033C134.995 9.61339 134.995 11.1872 134.995 12.7676C134.995 13.4234 135.138 13.7054 135.867 13.6791C137.638 13.6267 139.415 13.6791 141.192 13.6791C142.713 13.7429 144.236 13.6881 145.748 13.5152C148.385 13.0824 150.142 11.6266 150.676 9.37732C151.327 6.60343 150.286 4.13118 147.988 3.1213C147.182 2.7727 146.324 2.56427 145.449 2.50488C142.194 2.26225 138.94 2.45243 135.639 2.38685C135.151 2.38685 134.988 2.56391 134.988 3.04262C135.001 4.68859 134.995 6.36079 134.995 8.033Z" fill="#A08960"/>
<path d="M100.609 14.7332C100.609 19.326 100.609 23.9188 100.609 28.5116C100.609 29.1677 100.493 29.4039 99.7529 29.3908C97.7152 29.3514 97.7152 29.3908 97.7152 27.4225C97.7152 23.5448 97.7152 19.6672 97.7152 15.7896C97.7152 15.1334 97.5182 14.9694 96.8661 14.9694C91.4323 14.9694 86.0211 14.9694 80.6325 14.9694C79.865 14.9694 79.7156 15.2253 79.7223 15.8945C79.7223 20.074 79.7223 24.2534 79.7223 28.4394C79.7223 29.3777 79.7223 29.3777 78.7307 29.3777H78.296C76.8696 29.3777 76.8696 29.3777 76.8696 27.9539V1.05325C76.8696 0.0100309 76.8696 0.0034722 77.9835 0.0100333C79.9261 0.0100333 79.7223 -0.232729 79.7223 1.67C79.7223 5.03586 79.7223 8.40173 79.7223 11.7742C79.7223 12.4303 79.9261 12.6468 80.6189 12.6402C86.0528 12.6402 91.464 12.6402 96.8526 12.6402C97.5318 12.6402 97.722 12.4696 97.7152 11.8201C97.7152 8.19833 97.7152 4.60283 97.7152 0.948281C97.7152 0.0100386 97.7152 0.0100369 98.6457 0.0034758C100.595 0.0034758 100.595 0.0034754 100.595 1.89964L100.609 14.7332Z" fill="#A08960"/>
<path d="M29.3913 15.2133C29.3913 10.4936 29.3913 5.77383 29.3913 1.05412C29.3913 2.10785e-06 29.3913 0 30.4464 0H48.3228C49.2576 0 49.2777 2.51321e-06 49.2576 0.958907C49.2576 2.49588 49.5915 2.44827 47.7752 2.44827H33.1776C32.2294 2.44827 32.2227 2.44827 32.2227 3.39357C32.2227 6.45391 32.2227 9.51425 32.2227 12.5678C32.2227 13.2479 32.4564 13.4587 33.1242 13.4519C37.6651 13.4519 42.2059 13.4519 46.7401 13.4519C47.468 13.4519 47.6683 13.6559 47.6483 14.3836C47.5949 15.9069 47.6483 15.9137 46.1525 15.9137C41.7986 15.9137 37.4714 15.9137 33.0975 15.9137C32.4297 15.9137 32.2227 16.1314 32.2294 16.8182C32.2294 20.2594 32.2627 23.7006 32.2294 27.1486C32.2294 27.8967 32.4631 28.0599 33.1643 28.0531C38.413 28.0531 43.6617 28.0531 48.9104 28.0531C49.5782 28.0531 49.7518 28.2571 49.7384 28.91C49.7384 30.5217 49.7384 30.5217 48.1758 30.5217C42.2193 30.5217 36.2561 30.5217 30.2995 30.5217C29.6317 30.5217 29.4247 30.3449 29.4247 29.6512C29.4047 24.7955 29.3913 20.001 29.3913 15.2133Z" fill="#A08960"/>
<path d="M106.281 14.6564C106.281 10.0702 106.281 5.42503 106.281 0.812606C106.281 0.157432 106.495 -0.00636498 107.124 0.000186765C113.208 0.000186765 119.293 0.000186765 125.377 0.000186765C126.046 0.000186765 126.213 0.20329 126.2 0.838809C126.166 2.37192 126.2 2.37191 124.615 2.37191C119.741 2.37191 114.866 2.37191 109.985 2.37191C109.317 2.37191 109.103 2.52916 109.109 3.21054C109.15 6.08675 109.109 8.96297 109.109 11.8392C109.109 13.0644 108.882 12.9726 110.3 12.9726H123.579C124.508 12.9726 124.508 12.9726 124.515 13.8899C124.515 15.3182 124.515 15.3182 123.044 15.3182C118.691 15.3182 114.351 15.3182 109.979 15.3182C109.31 15.3182 109.083 15.4557 109.089 16.1568C109.129 19.5178 109.123 22.8789 109.089 26.2465C109.089 26.8689 109.283 27.0196 109.892 27.013C115.174 27.013 120.449 27.013 125.732 27.013C126.4 27.013 126.628 27.1703 126.607 27.8582C126.561 29.3913 126.607 29.3913 125.03 29.3913C119.059 29.3913 113.094 29.3913 107.13 29.3913C106.462 29.3913 106.254 29.2275 106.261 28.5461C106.294 23.8878 106.281 19.2754 106.281 14.6564Z" fill="#A08960"/>
<path d="M193.284 11.2433C193.219 13.8978 193.427 17.1363 193.179 20.3748C192.977 23.0293 192.228 25.5378 190.325 27.5221C189.066 28.8169 187.458 29.7016 185.705 30.0638C182.842 30.7822 179.837 30.6532 177.044 29.6922C173.837 28.5441 171.993 26.1351 171.179 22.8435C170.846 21.476 170.684 20.0714 170.696 18.6627C170.696 12.7652 170.696 6.86779 170.696 0.970352C170.696 0.0280007 170.696 0.0213628 171.622 0.0147265C173.433 0.0147265 173.433 0.014722 173.433 1.86624C173.433 7.12881 173.433 12.3914 173.433 17.654C173.408 19.2528 173.577 20.8487 173.935 22.4055C174.782 25.8166 176.907 27.6814 180.361 28.0264C181.819 28.1906 183.294 28.1257 184.734 27.834C187.542 27.2168 189.23 25.4184 189.947 22.6245C190.334 21.0269 190.518 19.3855 190.494 17.7402C190.494 12.1259 190.494 6.51164 190.494 0.897353C190.494 0.160726 190.71 -0.0184577 191.394 0.00145112C193.551 0.0744502 193.245 -0.317087 193.264 1.9127C193.297 4.79948 193.284 7.71281 193.284 11.2433Z" fill="#A08960"/>
<path d="M24.5799 29.3806C23.2509 29.3806 23.2509 29.3806 22.7791 28.1299C21.8754 25.7203 20.9651 23.3107 20.088 20.888C20.0457 20.6661 19.919 20.4685 19.7336 20.3358C19.5483 20.2031 19.3184 20.1453 19.0912 20.1742C15.0246 20.2004 10.9557 20.2004 6.88466 20.1742C6.6894 20.1504 6.49219 20.1998 6.33218 20.3126C6.17216 20.4254 6.06104 20.5934 6.02084 20.7832C5.03076 23.4023 4.02739 26.0739 3.01073 28.7258C2.83132 29.2103 2.59874 29.446 2.04721 29.3806C1.62448 29.3576 1.20078 29.3576 0.778047 29.3806C-0.132297 29.3806 -0.132301 29.3806 0.213231 28.5097C1.39601 25.5588 2.57437 22.6057 3.74829 19.6504C6.24233 13.3994 8.72972 7.14614 11.2105 0.890736C11.4497 0.288331 11.7288 -0.0259705 12.4265 0.059152C13.1242 0.144274 14.0545 -0.202759 14.6326 0.196662C15.2107 0.596083 15.2971 1.50624 15.5363 2.16103C18.9606 10.9134 22.3716 19.6701 25.7693 28.4311C25.8025 28.5162 25.8225 28.6079 25.8623 28.693C26.1148 29.171 26.0484 29.4329 25.4238 29.3478C25.1421 29.3423 24.8603 29.3533 24.5799 29.3806ZM13.0644 2.53425C12.9248 2.80271 12.8584 2.89439 12.8185 2.99915C11.0465 7.72672 9.25466 12.4543 7.44283 17.1819C7.24348 17.7188 7.35645 17.8366 7.92791 17.8366C11.3345 17.8366 14.7455 17.8366 18.161 17.8366C18.759 17.8366 18.8255 17.6729 18.6195 17.1819C17.2174 13.5216 15.8419 9.85478 14.4532 6.18797C13.9814 5.0028 13.5362 3.83728 13.0311 2.52115L13.0644 2.53425Z" fill="#A08960"/>
<path d="M64.18 15.9334C64.18 20.1353 64.18 24.3371 64.18 28.5324C64.18 29.1879 63.9956 29.4567 63.3171 29.378C62.901 29.3354 62.4816 29.3354 62.0656 29.378C61.4925 29.437 61.3607 29.1945 61.3607 28.6635C61.3607 24.3895 61.3607 20.1418 61.3607 15.8482C61.3607 11.5546 61.3607 7.40522 61.3607 3.18372C61.3607 2.52821 61.1565 2.36432 60.5308 2.37088C57.9421 2.37088 55.3534 2.37088 52.7647 2.37088C52.1982 2.37088 51.9874 2.21356 52.0006 1.63016C52.0467 -0.238054 51.803 0.0110401 53.5749 0.0110401C59.8721 0.0110401 66.1693 0.0110401 72.4665 0.0110401C73.4743 0.0110401 73.4809 0.0110358 73.4743 1.02052C73.4743 2.59376 73.6192 2.33155 72.1569 2.33155C69.7329 2.33155 67.3023 2.33155 64.8782 2.33155C64.292 2.33155 64.1339 2.5151 64.1405 3.0854C64.1932 7.39211 64.18 11.666 64.18 15.9334Z" fill="#A08960"/>
<path d="M162.783 14.679C162.783 19.2703 162.783 23.914 162.783 28.5315C162.783 29.1874 162.57 29.4039 161.757 29.3907C159.391 29.358 159.391 29.3907 159.391 27.4755C159.391 18.6078 159.391 9.74017 159.391 0.87248C159.391 0.216586 159.581 -0.00641898 160.401 0.000139961C162.767 0.000139961 162.767 0.000137925 162.767 1.93502L162.783 14.679Z" fill="#A08960"/>
<path d="M115.311 45.1826C115.311 43.1834 115.311 41.1841 115.311 39.2382C115.311 38.6317 115.469 38.4318 116.1 38.4452C118.538 38.4851 120.983 38.4452 123.427 38.4452C123.776 38.4452 124.177 38.3185 124.19 38.9516C124.203 39.5847 123.769 39.5047 123.401 39.5114C121.397 39.5114 119.399 39.5114 117.394 39.5114C116.737 39.5114 116.527 39.7113 116.553 40.3578C116.593 41.4707 116.553 42.5769 116.553 43.6898C116.553 44.223 116.698 44.4362 117.263 44.4229C119.057 44.4229 120.851 44.4229 122.639 44.4229C123 44.4229 123.454 44.263 123.46 44.9494C123.467 45.6358 123.059 45.5158 122.665 45.5158C120.871 45.5158 119.083 45.5158 117.289 45.5158C116.757 45.5158 116.533 45.6691 116.547 46.2355C116.579 47.5684 116.579 48.9012 116.547 50.234C116.547 50.8071 116.763 50.9538 117.289 50.9471C119.412 50.9471 121.528 50.9471 123.644 50.9471C123.999 50.9471 124.361 50.8938 124.347 51.4469C124.334 52 124.019 52 123.638 52C121.101 52 118.564 52 116.027 52C115.482 52 115.298 51.7868 115.305 51.2403C115.311 49.1944 115.311 47.1885 115.311 45.1826Z" fill="#A08960"/>
<path d="M230.56 47.33C230.56 48.2128 230.56 49.1022 230.56 49.9652C230.56 50.5252 230.606 51.105 231.437 50.9205C231.659 50.8678 231.731 50.993 231.738 51.1841C231.744 51.3751 231.738 51.6321 231.456 51.7572C231.281 51.8453 231.089 51.8939 230.893 51.8996C230.697 51.9053 230.503 51.868 230.323 51.7902C230.143 51.7125 229.982 51.5961 229.851 51.4494C229.72 51.3026 229.622 51.1289 229.565 50.9403C229.415 50.4264 229.251 50.6438 229.015 50.8349C228.433 51.356 227.729 51.719 226.968 51.8896C226.208 52.0602 225.417 52.0328 224.67 51.8099C224.125 51.6826 223.638 51.3779 223.283 50.9431C222.928 50.5083 222.725 49.9677 222.707 49.4052C222.654 48.8409 222.791 48.275 223.094 47.7975C223.398 47.3201 223.851 46.9584 224.382 46.77C225.457 46.4126 226.571 46.1913 227.7 46.1112C227.864 46.1112 228.027 46.1112 228.184 46.0453C228.714 45.9201 229.31 45.9003 229.401 45.1427C229.478 44.7616 229.434 44.3659 229.276 44.0113C229.117 43.6568 228.852 43.3612 228.518 43.1662C228.154 42.9572 227.749 42.8291 227.332 42.7908C226.915 42.7524 226.494 42.8046 226.098 42.9438C225.702 43.0831 225.341 43.3061 225.038 43.5979C224.735 43.8897 224.498 44.2435 224.343 44.6354C224.146 45.1229 223.773 45.057 223.42 44.9846C222.955 44.8923 223.224 44.53 223.276 44.3258C223.381 43.8015 223.628 43.3166 223.989 42.9248C224.351 42.5329 224.813 42.2494 225.324 42.1055C226.343 41.7702 227.435 41.7359 228.472 42.0067C229.05 42.1129 229.571 42.4224 229.942 42.8798C230.314 43.3372 230.512 43.9128 230.501 44.5036C230.54 45.4392 230.501 46.3681 230.501 47.3036L230.56 47.33ZM229.46 47.8768C229.454 47.7605 229.454 47.6439 229.46 47.5276C229.539 46.8688 229.31 46.6843 228.688 46.9215C228.398 46.9972 228.103 47.0522 227.805 47.0862C226.856 47.2641 225.841 47.1719 224.958 47.6133C224.628 47.7587 224.35 48.0031 224.163 48.3132C223.975 48.6232 223.887 48.9838 223.911 49.346C223.927 49.6861 224.047 50.0128 224.256 50.2808C224.465 50.5488 224.751 50.7447 225.076 50.8415C225.558 51.0283 226.077 51.0951 226.591 51.0363C227.104 50.9775 227.595 50.7948 228.023 50.5037C228.451 50.2126 228.803 49.8217 229.049 49.3644C229.294 48.907 229.427 48.3967 229.434 47.8768H229.46Z" fill="#A08960"/>
<path d="M175.016 41.8269C175.456 41.8213 175.895 41.8589 176.328 41.9391C176.973 42.0184 177.564 42.3403 177.983 42.8402C178.401 43.34 178.617 43.9808 178.585 44.6338C178.625 46.2454 178.585 47.8569 178.585 49.4685C178.585 49.7458 178.585 50.0299 178.585 50.3072C178.585 50.7498 178.789 51.0272 179.288 50.9677C179.484 50.9677 179.714 50.8356 179.734 51.1923C179.753 51.5489 179.734 51.681 179.412 51.7999C179.235 51.8914 179.039 51.941 178.839 51.9448C178.639 51.9486 178.442 51.9065 178.261 51.8218C178.08 51.7371 177.92 51.612 177.795 51.456C177.669 51.3 177.58 51.1172 177.535 50.9215C177.358 50.3139 177.155 50.7498 176.997 50.8818C176.42 51.377 175.732 51.7226 174.992 51.8883C174.252 52.0541 173.483 52.0351 172.752 51.8329C172.188 51.715 171.68 51.4101 171.308 50.9671C170.937 50.524 170.724 49.9684 170.704 49.3892C170.658 48.8209 170.8 48.2532 171.109 47.7751C171.418 47.297 171.876 46.9355 172.41 46.7473C173.507 46.3692 174.652 46.1469 175.81 46.0869C177.122 45.8953 177.437 45.684 177.457 44.8188C177.488 44.3443 177.332 43.8765 177.024 43.5159C176.716 43.1554 176.28 42.9307 175.81 42.8902C175.258 42.7912 174.694 42.7912 174.143 42.8902C173.723 42.9346 173.328 43.111 173.013 43.3943C172.699 43.6777 172.481 44.0536 172.391 44.4687C172.266 45.0499 171.885 45.0367 171.505 44.9443C170.999 44.8254 171.236 44.4291 171.321 44.1451C171.748 42.6591 172.876 42.0778 174.274 41.8665C174.52 41.8359 174.768 41.8227 175.016 41.8269ZM177.496 47.7711C177.496 47.6522 177.496 47.5333 177.496 47.421C177.555 46.8332 177.339 46.6615 176.774 46.8728C176.463 46.9617 176.145 47.0235 175.823 47.0578C174.871 47.2361 173.854 47.1436 172.968 47.5861C172.622 47.7303 172.332 47.9862 172.146 48.3138C171.959 48.6413 171.886 49.0219 171.938 49.3958C171.964 49.752 172.107 50.0894 172.345 50.3548C172.583 50.6202 172.901 50.7986 173.25 50.862C173.736 51.0306 174.255 51.079 174.763 51.0032C175.272 50.9274 175.755 50.7296 176.171 50.4264C176.587 50.1233 176.925 49.7238 177.156 49.2616C177.386 48.7995 177.503 48.2882 177.496 47.7711Z" fill="#A08960"/>
<path d="M189.768 41.8264C190.193 41.8225 190.618 41.8625 191.035 41.9457C191.685 42.0438 192.275 42.3823 192.69 42.8949C193.105 43.4075 193.314 44.0573 193.277 44.717C193.277 46.454 193.277 48.191 193.277 49.928C193.277 50.5181 193.277 51.1214 194.161 50.9557C194.339 50.9557 194.418 51.0485 194.425 51.201C194.432 51.3535 194.484 51.6187 194.254 51.7645C193.64 52.1424 192.479 51.8043 192.314 51.1015C192.149 50.3988 191.938 50.6838 191.602 50.949C191.05 51.4064 190.399 51.7274 189.702 51.8863C189.004 52.0451 188.279 52.0375 187.585 51.864C187.001 51.7748 186.466 51.4861 186.07 51.0465C185.673 50.6068 185.44 50.0432 185.408 49.4507C185.339 48.8481 185.483 48.2402 185.816 47.7343C186.15 47.2284 186.65 46.8571 187.229 46.686C188.279 46.367 189.36 46.1626 190.454 46.0761C190.586 46.0761 190.731 46.0761 190.87 46.0231C191.424 45.8905 192.057 45.8772 192.149 45.075C192.227 44.6885 192.181 44.2871 192.016 43.9293C191.851 43.5715 191.576 43.276 191.233 43.086C190.864 42.879 190.455 42.7539 190.034 42.7192C189.612 42.6845 189.189 42.741 188.791 42.8849C188.393 43.0288 188.031 43.2567 187.729 43.5533C187.426 43.8499 187.191 44.2083 187.038 44.6043C186.833 45.1347 186.444 44.9689 186.114 44.9291C185.685 44.8761 185.89 44.5512 185.943 44.3258C186.286 42.8871 187.367 42.012 189.049 41.8264C189.32 41.833 189.597 41.833 189.768 41.8264ZM192.189 47.8662C192.179 47.7492 192.179 47.6317 192.189 47.5148C192.281 46.8518 192.044 46.6993 191.417 46.9048C190.772 47.0853 190.108 47.1855 189.438 47.2032C188.76 47.2163 188.093 47.3889 187.493 47.707C187.203 47.8657 186.966 48.1057 186.81 48.3977C186.654 48.6898 186.587 49.0211 186.615 49.3512C186.628 49.6712 186.734 49.9804 186.92 50.2399C187.107 50.4994 187.366 50.6977 187.664 50.8098C188.154 51.021 188.687 51.1078 189.218 51.0627C189.749 51.0175 190.26 50.8417 190.708 50.5508C191.155 50.2599 191.524 49.8628 191.782 49.3946C192.04 48.9264 192.18 48.4015 192.189 47.8662Z" fill="#A08960"/>
<path d="M145.369 47.1861C144.274 47.1861 143.18 47.1861 142.086 47.1861C141.618 47.1861 141.453 47.3049 141.48 47.7866C141.481 48.2858 141.602 48.778 141.835 49.2243C142.068 49.6706 142.407 50.0586 142.824 50.3577C143.24 50.6568 143.724 50.8587 144.236 50.9474C144.748 51.0361 145.275 51.0092 145.775 50.8687C146.194 50.7809 146.584 50.5952 146.911 50.3281C147.237 50.061 147.49 49.7208 147.647 49.3376C147.702 49.1373 147.836 48.9654 148.021 48.8583C148.206 48.7512 148.427 48.7171 148.638 48.7634C149.085 48.7634 149.099 48.935 148.975 49.2848C148.721 50.0372 148.235 50.698 147.581 51.18C146.928 51.6619 146.137 51.9423 145.313 51.9841C142.258 52.1821 140.379 50.5256 140.214 47.4237C140.112 46.6083 140.206 45.7814 140.49 45.0067C140.774 44.232 141.24 43.5302 141.852 42.9556C142.449 42.411 143.197 42.0434 144.006 41.8971C144.816 41.7507 145.652 41.8318 146.415 42.1306C148.101 42.6982 148.823 44.0248 149.092 45.6021C149.36 47.1795 149.333 47.2059 147.633 47.2059L145.369 47.1861ZM144.722 46.2291C145.623 46.2291 146.525 46.2291 147.426 46.2291C147.825 46.2291 148.004 46.1037 147.956 45.6945C147.934 45.25 147.811 44.8153 147.596 44.421C147.381 44.0266 147.079 43.6819 146.711 43.411C146.242 43.0688 145.681 42.8627 145.095 42.8171C144.508 42.7715 143.92 42.8883 143.4 43.1536C142.882 43.4181 142.439 43.8009 142.112 44.2682C141.784 44.7355 141.581 45.2729 141.521 45.8331C141.439 46.2291 141.749 46.2225 142.024 46.2225L144.722 46.2291Z" fill="#A08960"/>
<path d="M217.032 47.1532H214.188C213.918 47.1532 213.672 47.1532 213.696 47.5854C213.688 48.156 213.813 48.7195 214.058 49.2234C214.304 49.7272 214.662 50.155 215.1 50.4669C215.534 50.7658 216.034 50.9314 216.547 50.9464C217.06 50.9614 217.567 50.8251 218.016 50.552C218.276 50.4159 218.508 50.2239 218.699 49.9877C218.889 49.7514 219.035 49.4756 219.125 49.1767C219.323 48.5219 219.785 48.7249 220.175 48.7576C220.397 48.7576 220.313 48.9934 220.259 49.144C220.113 49.658 219.871 50.1337 219.549 50.5415C219.227 50.9493 218.832 51.2806 218.388 51.5147C217.858 51.8164 217.271 51.9819 216.674 51.9986C216.076 52.0153 215.483 51.8828 214.94 51.6111C214.396 51.3395 213.917 50.9359 213.538 50.4311C213.159 49.9263 212.891 49.3338 212.754 48.6987C212.522 47.8506 212.463 46.9572 212.581 46.0815C212.699 45.2058 212.992 44.3689 213.438 43.6299C213.888 42.9058 214.538 42.3572 215.293 42.064C216.048 41.7707 216.87 41.748 217.638 41.9993C218.368 42.2273 219.017 42.6964 219.494 43.3425C219.97 43.9885 220.253 44.7797 220.301 45.6076C220.481 47.3234 220.751 47.1466 219.041 47.1532H217.032ZM216.516 46.2036C217.302 46.2036 218.082 46.2036 218.867 46.2036C219.227 46.2036 219.341 46.0661 219.329 45.6666C219.306 44.9306 219.029 44.2314 218.554 43.7083C218.08 43.1851 217.442 42.8766 216.768 42.8441C214.836 42.7458 213.984 44.3437 213.72 45.7452C213.642 46.1512 213.87 46.2036 214.164 46.197C214.944 46.197 215.73 46.2036 216.516 46.2036Z" fill="#A08960"/>
<path d="M129.953 51.9952C128.238 51.9952 127.059 51.0756 126.717 49.4347C126.67 49.2031 126.435 48.8392 126.853 48.7731C127.165 48.7202 127.59 48.5614 127.713 49.1436C128.091 50.8506 129.535 51.2542 130.99 50.8903C131.346 50.8369 131.674 50.6456 131.917 50.3496C132.16 50.0536 132.304 49.6715 132.322 49.2693C132.352 48.5481 131.957 47.9924 131.108 47.7079C130.26 47.4234 129.24 47.2182 128.332 46.8874C127.816 46.7447 127.371 46.3789 127.094 45.8696C126.817 45.3603 126.73 44.7488 126.853 44.1681C126.898 43.7221 127.054 43.2994 127.303 42.9483C127.552 42.5972 127.884 42.3321 128.262 42.1832C129.298 41.7071 130.46 41.7071 131.497 42.1832C131.889 42.3533 132.235 42.6328 132.503 42.9952C132.771 43.3577 132.952 43.791 133.03 44.2541C133.071 44.4526 133.277 44.757 132.941 44.8231C132.605 44.8893 132.293 45.0812 132.087 44.5717C131.982 44.229 131.815 43.9141 131.598 43.6466C131.38 43.379 131.116 43.1645 130.821 43.0162C130.527 42.868 130.208 42.7892 129.886 42.7847C129.563 42.7803 129.243 42.8503 128.945 42.9904C128.658 43.0622 128.399 43.2362 128.207 43.4866C128.014 43.7369 127.899 44.0502 127.878 44.3798C127.855 44.6985 127.93 45.0165 128.089 45.2813C128.249 45.546 128.484 45.7415 128.757 45.8354C129.417 46.1187 130.097 46.34 130.79 46.4971C131.277 46.6238 131.75 46.8125 132.199 47.0595C132.545 47.2554 132.838 47.5521 133.048 47.9186C133.257 48.2851 133.375 48.7079 133.39 49.143C133.404 49.5782 133.314 50.0097 133.13 50.3927C132.945 50.7756 132.672 51.096 132.34 51.3204C131.62 51.8026 130.79 52.0372 129.953 51.9952Z" fill="#A08960"/>
<path d="M204.607 46.9095V50.9921C204.607 51.3528 204.668 51.7406 204.111 51.761C203.554 51.7814 203.472 51.5637 203.431 51.0806C203.391 50.5975 203.194 50.6315 202.908 50.9105C202.564 51.2647 202.15 51.5441 201.693 51.7314C201.236 51.9187 200.745 52.0098 200.252 51.9992C198.044 51.9992 196.794 50.8969 196.726 48.6922C196.658 46.4876 196.726 44.4598 196.726 42.3368C196.726 41.8741 196.97 41.8401 197.303 41.8333C197.636 41.8265 197.908 41.9286 197.901 42.4049C197.901 44.351 197.901 46.3038 197.901 48.2499C197.901 49.8218 198.411 50.6111 199.606 50.8969C200.262 51.0775 200.96 51.0234 201.58 50.744C202.2 50.4645 202.704 49.9771 203.003 49.3659C203.336 48.6414 203.497 47.8495 203.472 47.0523C203.472 45.5554 203.472 44.0652 203.472 42.575C203.472 42.1871 203.472 41.8401 204.016 41.8265C204.559 41.8129 204.607 42.1463 204.607 42.5818C204.607 43.9971 204.607 45.4193 204.607 46.8414V46.9095Z" fill="#A08960"/>
<path d="M160.522 46.8709C160.565 45.0579 161.077 43.2252 162.989 42.2561C165.073 41.1881 167.565 42.1967 168.2 44.3196C168.281 44.5767 168.54 44.9393 168.12 45.0843C168.035 45.1339 167.94 45.1629 167.843 45.1691C167.745 45.1753 167.648 45.1587 167.558 45.1203C167.467 45.082 167.385 45.0229 167.318 44.9472C167.252 44.8715 167.201 44.781 167.17 44.6821C167.003 44.2311 166.733 43.832 166.384 43.5212C166.036 43.2104 165.62 42.9978 165.175 42.9028C164.73 42.8078 164.269 42.8333 163.836 42.9772C163.402 43.121 163.009 43.3785 162.693 43.7262C161.33 45.1898 161.299 48.5388 162.588 50.0749C163.821 51.5054 166.659 51.3934 167.294 48.9871C167.38 48.6509 167.485 48.4201 167.911 48.4267C168.336 48.4333 168.527 48.5783 168.392 49.1321C168.178 49.9921 167.693 50.7468 167.019 51.2682C166.344 51.7897 165.522 52.0458 164.691 51.9933C162.717 51.9933 161.361 50.9978 160.818 49.1321C160.621 48.3968 160.522 47.6357 160.522 46.8709Z" fill="#A08960"/>
<path d="M135.923 46.9662C135.923 45.9108 135.923 44.8489 135.923 43.7935C135.923 43.3049 135.787 43.0573 135.241 43.0899C134.94 43.0899 134.558 43.2267 134.524 42.686C134.49 42.1452 134.886 42.2039 135.207 42.2234C135.807 42.2625 135.971 41.9824 135.944 41.4742C135.917 40.966 135.944 40.5556 135.944 40.093C135.944 39.6305 136.135 39.5719 136.524 39.5653C136.913 39.5588 137.084 39.7478 137.077 40.1191C137.077 40.6012 137.077 41.0833 137.077 41.5654C137.077 42.0475 137.255 42.256 137.76 42.2169C138.026 42.2169 138.292 42.2169 138.552 42.2169C138.811 42.2169 138.955 42.3928 138.934 42.6664C138.914 42.94 138.859 43.1225 138.525 43.0899H138.45C137.084 43.1876 137.084 43.1876 137.084 44.5166C137.084 46.1975 137.084 47.8783 137.084 49.5591C137.084 50.8165 137.248 50.9598 138.525 50.9468C138.75 50.9468 139.037 50.8491 139.043 51.2269C139.043 51.481 139.043 51.6895 138.702 51.8133C137.098 52.3605 135.971 51.683 135.971 50.0673C135.971 49.0314 135.971 47.989 135.971 46.9532L135.923 46.9662Z" fill="#A08960"/>
<path d="M151.717 46.9403C151.717 45.9026 151.717 44.8649 151.717 43.8273C151.717 43.3182 151.607 43.0376 151.032 43.1028C150.738 43.1028 150.348 43.1942 150.348 42.7112C150.348 42.2283 150.69 42.2022 151.032 42.2283C151.593 42.2675 151.758 42.026 151.717 41.53C151.676 41.034 151.717 40.5576 151.717 40.0746C151.717 39.5917 151.943 39.5721 152.298 39.5655C152.654 39.559 152.908 39.6373 152.88 40.0616C152.853 40.4858 152.88 41.034 152.88 41.5169C152.88 41.9999 153.099 42.2609 153.647 42.2218C153.886 42.2218 154.126 42.2218 154.372 42.2218C154.619 42.2218 154.776 42.3653 154.769 42.6525C154.762 42.9397 154.694 43.0637 154.372 43.1028C153.893 43.1616 153.236 42.8352 153.003 43.3117C152.868 43.7768 152.84 44.2645 152.921 44.7409C152.921 46.4052 152.921 48.0629 152.921 49.7271C152.921 50.8039 153.106 50.9671 154.229 50.9736C154.523 50.9736 154.824 50.9279 154.865 51.3391C154.906 51.7502 154.66 51.7959 154.352 51.8742C152.709 52.2919 151.806 51.6654 151.765 50.0469C151.765 49.5117 151.765 48.9831 151.765 48.4544L151.717 46.9403Z" fill="#A08960"/>
<path d="M208.214 43.6213C208.415 43.1384 208.745 42.7184 209.169 42.4055C209.592 42.0926 210.093 41.8985 210.619 41.8436C211.308 41.7687 211.425 41.9186 211.384 42.5928C211.384 42.9129 211.191 42.9742 210.936 43.0492C208.792 43.6485 208.11 44.4999 208.048 46.7406C208.007 48.2799 208.007 49.8191 208.048 51.3583C208.048 51.9713 207.752 52.0394 207.283 51.9849C206.994 51.9849 206.87 51.8215 206.87 51.5218C206.87 48.5341 206.87 45.5487 206.87 42.5656C206.87 42.082 207.2 42.1093 207.511 42.0956C207.821 42.082 208.076 42.1842 208.041 42.5928C208.007 43.0015 208.041 43.2126 208.041 43.5191L208.214 43.6213Z" fill="#A08960"/>
<path d="M157.13 46.8783C157.13 45.4239 157.13 43.9764 157.13 42.522C157.13 42.0836 157.226 41.8261 157.733 41.8261C158.24 41.8261 158.261 42.1323 158.261 42.522V51.3041C158.261 51.673 158.261 52 157.74 52C157.219 52 157.13 51.7704 157.13 51.3041C157.137 49.8288 157.13 48.3536 157.13 46.8783Z" fill="#A08960"/>
<path d="M157.142 39.0089C157.142 38.6953 157.071 38.4481 157.666 38.4348C158.356 38.4348 158.256 38.7351 158.256 39.0398C158.256 39.3445 158.256 39.5652 157.666 39.5652C157.077 39.5652 157.118 39.2782 157.142 39.0089Z" fill="#A08960"/>
</svg>
