<svg width="70" height="74" viewBox="0 0 70 74" fill="none" xmlns="http://www.w3.org/2000/svg">
<path d="M60.75 35.8799C62.1953 36.8675 63.4841 37.9876 64.6162 39.2402C65.7484 40.4928 66.724 41.8659 67.543 43.3594C68.362 44.8529 68.9642 46.4307 69.3496 48.0928C69.735 49.7549 69.9518 51.4531 70 53.1875C70 56.054 69.458 58.752 68.374 61.2812C67.29 63.8105 65.7965 66.0146 63.8936 67.8936C61.9906 69.7725 59.7865 71.2539 57.2812 72.3379C54.776 73.4219 52.0781 73.9759 49.1875 74C46.9954 74 44.8757 73.6748 42.8281 73.0244C40.7806 72.374 38.9017 71.4346 37.1914 70.2061C35.4811 68.9775 33.9635 67.5081 32.6387 65.7979C31.3138 64.0876 30.29 62.1966 29.5674 60.125H0.625V4.625H9.875V0H14.5V4.625H46.875V0H51.5V4.625H60.75V35.8799ZM5.25 9.25V18.5H56.125V9.25H51.5V13.875H46.875V9.25H14.5V13.875H9.875V9.25H5.25ZM28.4834 55.5C28.4111 54.7533 28.375 53.9824 28.375 53.1875C28.375 51.1159 28.6641 49.1045 29.2422 47.1533C29.8203 45.2021 30.6995 43.3594 31.8799 41.625H28.375V37H33V40.1074C33.9876 38.8789 35.0837 37.7949 36.2881 36.8555C37.4925 35.916 38.7933 35.1091 40.1904 34.4346C41.5876 33.7601 43.0449 33.2542 44.5625 32.917C46.0801 32.5798 47.6217 32.3991 49.1875 32.375C51.5964 32.375 53.9089 32.7725 56.125 33.5674V23.125H5.25V55.5H28.4834ZM49.1875 69.375C51.4277 69.375 53.5234 68.9535 55.4746 68.1104C57.4258 67.2673 59.1361 66.111 60.6055 64.6416C62.0749 63.1722 63.2311 61.4619 64.0742 59.5107C64.9173 57.5596 65.3509 55.4518 65.375 53.1875C65.375 50.9473 64.9535 48.8516 64.1104 46.9004C63.2673 44.9492 62.111 43.2389 60.6416 41.7695C59.1722 40.3001 57.4619 39.1439 55.5107 38.3008C53.5596 37.4577 51.4518 37.0241 49.1875 37C46.9473 37 44.8516 37.4216 42.9004 38.2646C40.9492 39.1077 39.2389 40.264 37.7695 41.7334C36.3001 43.2028 35.1439 44.9131 34.3008 46.8643C33.4577 48.8154 33.0241 50.9232 33 53.1875C33 55.4277 33.4216 57.5234 34.2646 59.4746C35.1077 61.4258 36.264 63.1361 37.7334 64.6055C39.2028 66.0749 40.9131 67.2311 42.8643 68.0742C44.8154 68.9173 46.9232 69.3509 49.1875 69.375ZM51.5 50.875H58.4375V55.5H46.875V41.625H51.5V50.875ZM9.875 37H14.5V41.625H9.875V37ZM19.125 37H23.75V41.625H19.125V37ZM19.125 27.75H23.75V32.375H19.125V27.75ZM19.125 46.25H23.75V50.875H19.125V46.25ZM33 32.375H28.375V27.75H33V32.375ZM42.25 32.375H37.625V27.75H42.25V32.375ZM9.875 27.75H14.5V32.375H9.875V27.75Z" fill="#E2E8F0"/>
</svg>
