<svg width="17" height="17" viewBox="0 0 17 17" fill="none" xmlns="http://www.w3.org/2000/svg">
<path d="M15.75 13.1136C15.75 13.4632 15.6111 13.7985 15.3639 14.0457C15.1167 14.2929 14.7814 14.4318 14.4318 14.4318H2.56818C2.21858 14.4318 1.88329 14.2929 1.63609 14.0457C1.38888 13.7985 1.25 13.4632 1.25 13.1136V5.86363C1.25 5.51403 1.38888 5.17874 1.63609 4.93154C1.88329 4.68433 2.21858 4.54545 2.56818 4.54545H5.20455L6.52273 2.56818H10.4773L11.7955 4.54545H14.4318C14.7814 4.54545 15.1167 4.68433 15.3639 4.93154C15.6111 5.17874 15.75 5.51403 15.75 5.86363V13.1136Z" stroke="white" stroke-width="1.31818" stroke-linecap="round" stroke-linejoin="round"/>
<path d="M8.49989 11.7955C9.95591 11.7955 11.1363 10.6151 11.1363 9.1591C11.1363 7.70308 9.95591 6.52274 8.49989 6.52274C7.04387 6.52274 5.86353 7.70308 5.86353 9.1591C5.86353 10.6151 7.04387 11.7955 8.49989 11.7955Z" stroke="white" stroke-width="1.31818" stroke-linecap="round" stroke-linejoin="round"/>
</svg>
