<svg width="82" height="84" viewBox="0 0 82 84" fill="none" xmlns="http://www.w3.org/2000/svg">
<path d="M11.3243 17.382C5.38042 24.8648 2.51552 34.3335 3.31422 43.8563L3.90758 48.0945C5.759 57.3496 11.0204 65.5711 18.6487 71.1293C26.277 76.6874 35.7153 79.1763 45.0925 78.1026C54.4696 77.0289 63.1011 72.471 69.2756 65.3324C75.4501 58.1938 78.7169 48.9957 78.4283 39.5617L78.0469 35.3235C76.9836 28.0552 73.8165 21.2569 68.936 15.7668C64.0555 10.2768 57.675 6.33502 50.5813 4.42753C43.4875 2.52005 35.9906 2.73024 29.0149 5.03218C22.0392 7.33412 15.8896 11.6272 11.3243 17.382Z" fill="white"/>
<path d="M37.0608 56.5939C36.5432 56.5951 36.0308 56.4883 35.5559 56.2801C35.081 56.0718 34.6538 55.7666 34.301 55.3836L25.7051 46.0713C25.0177 45.3285 24.6503 44.34 24.6837 43.3234C24.7171 42.3067 25.1486 41.345 25.8831 40.65C26.6177 39.9549 27.5952 39.5834 28.6007 39.6172C29.6061 39.651 30.5571 40.0872 31.2445 40.83L36.8234 46.8315L50.0288 29.9174C50.6676 29.1712 51.5666 28.7032 52.5383 28.6107C53.5099 28.5183 54.4794 28.8086 55.2446 29.4212C56.0099 30.0338 56.5118 30.9213 56.6458 31.8989C56.7797 32.8765 56.5355 33.8686 55.9639 34.6685L40.0283 55.0735C39.6915 55.507 39.2662 55.8618 38.7814 56.1138C38.2965 56.3659 37.7636 56.5091 37.219 56.5338L37.0608 56.5939Z" fill="#A08960"/>
<path d="M8.86643 15.3336C2.8696 22.8969 -0.26425 32.3346 0.0174659 41.9828C0.299182 51.6309 3.97836 60.8697 10.4063 68.0702L6.62021 80.1772C6.45707 80.6381 6.44023 81.1382 6.57206 81.609C6.70388 82.0799 6.9779 82.4985 7.35666 82.8077C7.73543 83.1169 8.20046 83.3016 8.68816 83.3365C9.17585 83.3714 9.66242 83.2548 10.0813 83.0026L21.044 76.603C27.86 80.3749 35.6123 82.1195 43.387 81.6311C51.1617 81.1428 58.6348 78.4419 64.9252 73.8469C71.2157 69.2518 76.0614 62.9542 78.891 55.6962C81.7207 48.4383 82.4163 40.5227 80.8961 32.8824C79.3758 25.2422 75.7029 18.1958 70.3104 12.574C64.9179 6.95213 58.0305 2.98914 50.4601 1.15217C42.8898 -0.684799 34.952 -0.319168 27.5826 2.20595C20.2132 4.73107 13.7193 9.31042 8.86643 15.4042V15.3336ZM64.3014 11.3356C71.7777 17.2977 76.6986 25.8868 78.0612 35.3517L78.4427 39.5899C78.7578 49.046 75.4996 58.2739 69.3171 65.4358C63.1346 72.5978 54.4813 77.1683 45.0805 78.2372C35.6797 79.306 26.2213 76.7948 18.5887 71.2037C10.9561 65.6125 5.70946 57.3517 3.89364 48.0662L3.30032 43.828C2.70316 36.5046 4.26198 29.1665 7.78469 22.7183C11.3074 16.2701 16.64 10.9936 23.1251 7.53925C29.6102 4.08492 36.9644 2.60376 44.2811 3.27834C51.5978 3.95291 58.5572 6.75374 64.3014 11.3356Z" fill="#43231B"/>
</svg>
