<svg width="30" height="36" viewBox="0 0 30 36" fill="none" xmlns="http://www.w3.org/2000/svg">
<g clip-path="url(#clip0_133_2872)">
<path d="M26.2309 18.5975C26.5583 18.4134 26.8828 18.2331 27.2176 18.5915C27.4647 18.8556 27.5126 19.1436 27.2951 19.4332C27.0952 19.7041 27.1697 19.8821 27.4263 20.0318C27.7029 20.1911 27.9839 20.3445 28.2641 20.4979C30.4182 21.6793 29.9167 23.9756 28.7316 24.9871C27.8128 25.7705 26.7221 26.2239 25.6343 26.6856C24.3998 27.2093 23.1564 27.7174 22.0355 28.4775C21.5175 28.8148 21.0591 29.2379 20.6793 29.7293C20.5355 29.9216 20.5421 30.0286 20.753 30.1662C21.4293 30.6077 22.0355 31.1284 22.4949 31.8123C23.4846 33.2833 23.138 34.9465 21.6409 35.8721C21.2789 36.0965 20.9101 36.0359 20.6999 35.7187C20.4898 35.4014 20.5812 35.0101 20.9101 34.7722C21.9308 34.0352 22.0311 33.2503 21.2184 32.2956C20.5628 31.5257 19.7206 31.0154 18.8297 30.586C17.4086 29.9014 15.9846 29.231 14.7464 28.2172C11.2921 25.3874 9.20878 21.7616 8.63356 17.2873C8.32678 14.9028 8.60111 12.534 9.01556 10.1794C9.34373 8.31633 9.70584 6.45928 10.0215 4.594C10.2324 3.34749 10.3467 2.09798 9.82751 0.879899C9.79079 0.803148 9.77068 0.719321 9.76851 0.634036C9.76633 0.548752 9.78215 0.46398 9.81491 0.385405C9.84766 0.306829 9.89659 0.236265 9.95842 0.178442C10.0202 0.120619 10.0935 0.0768739 10.1734 0.0501374C10.5281 -0.0860363 10.888 0.0785684 11.0392 0.465392C11.2376 0.974173 11.4396 1.4852 11.4477 2.04486C11.4477 2.25436 11.5443 2.34788 11.7464 2.39203C13.5067 2.7796 15.0104 3.67146 16.3187 4.89254C17.369 5.86323 18.1691 7.08008 18.6491 8.43679C19.0834 9.66909 19.9293 10.3717 21.11 10.7495C22.2508 11.1139 23.4352 11.2732 24.6055 11.4902C26.1896 11.7895 26.6704 12.7106 25.9713 14.1838C25.8229 14.5121 25.6557 14.8314 25.4706 15.14C25.2995 15.4138 25.388 15.5358 25.6542 15.6143C25.7243 15.6353 25.7884 15.6764 25.8578 15.7004C26.1245 15.788 26.3629 15.9472 26.5477 16.161C26.7326 16.3749 26.857 16.6355 26.9078 16.9152C26.9585 17.1949 26.9338 17.4834 26.8362 17.75C26.7386 18.0167 26.5718 18.2516 26.3533 18.4299C26.2973 18.4762 26.2257 18.5114 26.2398 18.6049C26.0724 18.6221 26.0111 18.771 25.9109 18.875C25.3273 19.4978 24.6658 20.0404 23.9433 20.4889C23.596 20.6984 23.2368 20.5959 23.0414 20.2779C22.9953 20.2072 22.9637 20.1278 22.9486 20.0445C22.9334 19.9612 22.9349 19.8756 22.953 19.7929C22.9711 19.7101 23.0054 19.6319 23.0539 19.563C23.1024 19.494 23.1641 19.4356 23.2353 19.3913C24.0797 18.8825 24.7715 18.1987 25.4536 17.4976C25.7486 17.1983 25.7235 17.0195 25.3194 16.8938C24.9507 16.7801 24.6033 16.6364 24.3017 16.3902C23.9691 16.1186 23.8548 15.7715 23.9757 15.3585C24.041 15.1446 24.1226 14.9362 24.2199 14.7352C24.4477 14.2519 24.6852 13.7745 24.9212 13.2949C25.0355 13.063 25.0023 12.9328 24.7176 12.8864C24.27 12.8116 23.8275 12.7031 23.3813 12.6178C22.2479 12.4015 21.107 12.213 20.0384 11.7416C18.8194 11.2037 17.9787 10.326 17.4905 9.04808C16.4581 6.35453 14.5406 4.61495 11.8268 3.75451C11.5451 3.66473 11.4448 3.71112 11.4116 4.03135C11.3083 5.03469 11.1166 6.02532 10.933 7.0167C10.4588 9.5606 9.91454 12.0955 9.83342 14.6993C9.71616 18.4403 10.8187 21.7661 13.0982 24.6968C14.7353 26.8023 16.8275 28.2837 19.2516 29.3133C19.4285 29.3881 19.492 29.3133 19.5768 29.1973C20.135 28.4207 20.8585 27.8273 21.6336 27.2901C22.9101 26.4065 24.3216 25.7937 25.7383 25.1951C26.4521 24.8914 27.1623 24.5726 27.7648 24.0661C28.7538 23.2341 28.6631 22.2367 27.5495 21.6105C27.2169 21.4227 26.8718 21.2566 26.551 21.0508C25.8135 20.5772 25.6299 19.5993 26.1284 18.8631C26.1815 18.7815 26.2604 18.7127 26.2309 18.5975Z" fill="#B8B8B8"/>
<path d="M4.75055 19.8627C4.69081 17.0876 5.36337 14.2444 6.35084 11.4595C7.18343 9.11167 7.90393 6.73386 8.20555 4.24532C8.22177 4.10915 8.23653 3.97298 8.25202 3.8368C8.30659 3.35795 8.58388 3.07962 8.974 3.11404C9.38624 3.14995 9.62001 3.47916 9.55954 3.9827C9.42061 5.14549 9.21674 6.29933 8.94892 7.43867C8.43269 9.62344 7.60379 11.7035 6.95777 13.8493C6.25792 16.1807 5.91868 18.563 6.07281 20.9977C6.20703 23.0755 7.10009 24.8352 8.44596 26.3504C10.8757 29.0858 13.8538 30.9207 17.3803 31.8549C17.4873 31.8826 17.5949 31.9081 17.6996 31.9425C18.0286 32.0532 18.2328 32.3622 18.1702 32.6488C18.0817 33.0543 17.7771 33.281 17.3855 33.1965C16.6429 33.0356 15.9025 32.859 15.1982 32.568C13.3398 31.7988 11.5735 30.8606 9.97989 29.6111C7.99685 28.0563 6.33165 26.2389 5.38254 23.8371C4.91277 22.6288 4.71294 21.3695 4.75055 19.8627Z" fill="#A08960"/>
<path d="M6.15984 9.98109C6.13182 11.0892 5.71737 12.0641 5.13846 12.9792C4.55955 13.8942 3.87297 14.7554 3.30291 15.6899C2.35895 17.238 2.02046 18.9267 2.04922 20.7171C2.05733 21.2042 1.81766 21.5117 1.42607 21.5222C1.01604 21.5342 0.762358 21.2304 0.752034 20.7209C0.690087 18.159 1.45187 15.871 2.94966 13.8186C3.45335 13.128 3.97842 12.4502 4.37001 11.6825C4.67311 11.0877 4.87517 10.4689 4.84715 9.78581C4.8265 9.28825 5.05733 8.9942 5.45703 8.96951C5.8442 8.94557 6.12075 9.24036 6.15762 9.71772C6.16574 9.809 6.15984 9.89355 6.15984 9.98109Z" fill="#A08960"/>
<path d="M11.9058 13.2508C11.5371 13.244 11.2679 12.727 11.5223 12.2122C12.0745 11.0682 12.8082 10.024 13.6941 9.1214C13.9764 8.82485 14.2993 8.57109 14.6528 8.36796C14.7977 8.28126 14.9705 8.2562 15.1335 8.29825C15.2965 8.3403 15.4366 8.44605 15.523 8.59242C15.703 8.88347 15.6573 9.25309 15.3637 9.45735C14.1499 10.3028 13.3726 11.5022 12.7 12.7899C12.5548 13.0712 12.366 13.2508 11.9058 13.2508Z" fill="#B8B8B8"/>
<path d="M18.1437 12.2878C17.9962 13.1041 17.5597 13.8239 16.9085 14.4112C16.3729 14.8913 15.7283 15.2291 15.0324 15.3944C14.542 15.5156 14.2057 15.3495 14.1017 14.9372C14.0022 14.5414 14.2138 14.2369 14.6917 14.1142C15.3664 13.9549 15.9683 13.5689 16.3996 13.0188C16.6294 12.7094 16.794 12.3554 16.8834 11.9788C16.9252 11.8208 17.0247 11.6849 17.1617 11.5986C17.2986 11.5124 17.4628 11.4822 17.6209 11.5142C17.9616 11.5845 18.1673 11.8598 18.1437 12.2878Z" fill="#B8B8B8"/>
</g>
<defs>
<clipPath id="clip0_133_2872">
<rect width="29" height="36" fill="white" transform="translate(0.75)"/>
</clipPath>
</defs>
</svg>
