<svg width="27" height="32" viewBox="0 0 27 32" fill="none" xmlns="http://www.w3.org/2000/svg">
<path d="M22.0813 20.9533C22.9073 20.0613 23.4112 19.1433 23.5693 18.1533C24.0053 15.4133 24.0932 12.6673 23.2672 9.95328C23.0572 9.26528 22.7632 9.05528 22.0912 9.31128C21.4192 9.56728 20.6472 9.52328 19.9172 9.58128C18.9932 9.65528 18.5952 9.19128 18.7512 8.32128C18.9192 7.39128 18.7912 6.70727 17.9032 6.13328C17.1372 5.63928 16.7432 4.76328 16.6372 3.83728C16.5692 3.23728 16.2873 3.00328 15.7193 2.85928C12.5033 2.04528 9.51923 2.54728 6.74523 4.33728C6.60523 4.42728 6.47323 4.53728 6.34523 4.62928C5.95923 4.92528 5.57322 5.05928 5.23522 4.57328C4.89722 4.08728 5.23525 3.83928 5.56525 3.59128C7.24927 2.32448 9.24006 1.52859 11.3333 1.28528C12.8892 1.07942 14.4704 1.1848 15.9852 1.59528C16.5072 1.74328 16.6093 1.57928 16.6693 1.11328C16.7753 0.265277 17.2593 0.0292768 18.0833 0.277277C19.2153 0.621277 20.3093 1.04128 21.0833 1.96728C21.4833 2.44928 21.7732 2.36728 22.2452 2.14128C23.4452 1.58328 24.7212 1.41728 26.0452 1.45528C26.6252 1.47128 26.8912 1.68328 26.8972 2.28328C26.9152 4.60328 26.4593 6.73527 24.5193 8.25527C24.0993 8.58327 24.2672 8.85528 24.3872 9.19928C25.4172 12.1773 25.3532 15.2313 24.8632 18.2733C24.5512 20.2113 23.4513 21.7753 21.9193 22.9993C21.4059 23.4153 20.9617 23.9102 20.6032 24.4653C19.1312 26.6653 17.0872 28.0653 14.4472 28.4993C13.8732 28.5933 13.5992 28.7953 13.6852 29.3873C13.6902 29.4538 13.6902 29.5207 13.6852 29.5873C13.6652 31.8293 14.1132 31.9973 11.3352 31.7093C5.76322 31.1293 0.803231 25.8593 0.649231 20.2573C0.579231 17.7253 0.595231 15.1913 0.649231 12.6573C0.691231 10.5473 1.40925 8.62328 2.52325 6.84328C2.76925 6.44328 3.05524 6.08928 3.55724 6.37728C4.05924 6.66528 3.91324 7.09528 3.65524 7.49128C2.25524 9.63527 1.77125 12.0073 1.86925 14.5313C1.96725 17.0553 1.61324 19.6593 2.25724 22.1913C3.34524 26.4713 7.17724 29.8993 11.5532 30.4413C11.8832 30.4833 12.4233 30.7313 12.4233 30.0213C12.4233 29.3673 12.6632 28.6693 11.5592 28.5233C8.31124 28.0953 6.00122 26.2873 4.53522 23.3953C3.94207 22.234 3.63619 20.9473 3.64323 19.6433C3.64323 17.9433 3.62723 16.2433 3.64323 14.5433C3.65323 13.6473 4.08122 13.4313 4.84323 13.8893C8.41722 16.0273 11.2832 15.2893 13.3532 11.6633C13.5272 11.3573 13.7012 11.0633 14.0932 11.1193C14.4852 11.1753 14.5812 11.4753 14.6932 11.8193C15.6932 14.8053 18.0812 15.8193 20.9092 14.4773C21.7292 14.0893 22.0673 14.2893 22.0773 15.2273C22.0933 17.0773 22.0813 18.9253 22.0813 20.9533ZM13.8813 13.4793C11.7893 16.0973 8.59923 17.1033 5.49723 15.7793C4.97323 15.5553 4.86325 15.7153 4.87325 16.2173C4.89525 17.2833 4.87322 18.3513 4.88522 19.4173C4.96922 23.5973 8.11523 27.0173 12.1492 27.3173C16.4112 27.6413 19.9492 24.8633 20.6992 20.6213C20.9372 19.2633 20.7633 17.8953 20.8193 16.5333C20.8393 16.0793 20.5992 16.0633 20.2492 16.1453C17.5272 16.7813 15.4293 15.8713 13.8833 13.4793H13.8813ZM20.5652 8.27928C23.8892 7.87928 25.2432 6.41128 25.5972 3.19928C25.6452 2.76728 25.4292 2.71728 25.0632 2.72728C22.2492 2.79528 20.1592 4.84928 20.0512 7.65128C20.0352 8.10328 20.1032 8.38527 20.5592 8.28327L20.5652 8.27928ZM19.1392 5.46728C19.4032 4.97928 19.6173 4.53128 19.8773 4.11528C20.5073 3.11528 20.4912 2.94128 19.4972 2.29928C19.1321 2.07572 18.7471 1.88625 18.3472 1.73328C18.0512 1.61128 17.8612 1.69528 17.8352 2.07528C17.7592 3.37928 17.8712 4.59328 19.1412 5.47128L19.1392 5.46728Z" fill="#B8B8B8"/>
<path d="M12.8652 24.6913C11.8372 24.6133 10.8651 24.3193 10.1031 23.5473C9.83714 23.2793 9.72713 22.9932 9.99313 22.6712C10.2591 22.3492 10.5932 22.3072 10.8772 22.5452C12.2072 23.6292 13.5111 23.6192 14.8431 22.5452C14.907 22.4895 14.9824 22.4483 15.0638 22.4247C15.1453 22.4011 15.231 22.3956 15.3148 22.4085C15.3986 22.4215 15.4786 22.4526 15.5491 22.4997C15.6197 22.5468 15.6791 22.6088 15.7232 22.6813C15.9652 23.0013 15.8631 23.3033 15.5951 23.5653C14.8431 24.2973 13.9152 24.6033 12.8652 24.6913Z" fill="#A08960"/>
</svg>
