<svg width="35" height="38" viewBox="0 0 35 38" fill="none" xmlns="http://www.w3.org/2000/svg">
<g clip-path="url(#clip0_133_2855)">
<path d="M19.9829 0C21.015 0.274515 22.0862 0.398216 23.074 0.847269C27.3654 2.78582 29.7883 6.10034 29.943 10.7773C30.0977 15.4542 27.9027 18.9788 23.7201 21.1139C22.2068 21.8833 21.486 22.8508 21.5914 24.5505C21.6866 26.0976 21.6339 27.6549 21.6033 29.207C21.5766 30.1682 21.8116 31.1186 22.2834 31.9573C23.1794 33.5806 23.0434 35.1769 21.9433 36.5325C21.4454 37.1346 20.7832 37.5799 20.0366 37.8144C19.29 38.049 18.4912 38.0629 17.7369 37.8543C16.0757 37.3832 14.9961 36.1055 14.787 34.3144C14.6955 33.4938 14.8841 32.6664 15.3225 31.9658C15.839 31.1182 16.0955 30.1387 16.0605 29.1477C16.0247 27.5396 15.9907 25.9281 16.0605 24.3217C16.1336 22.7797 15.4432 21.8324 14.0915 21.2054C11.1671 19.8498 9.21011 17.6096 8.18656 14.5662C6.01704 8.11344 10.3612 1.11162 17.1231 0.149119C17.285 0.112874 17.4436 0.0635694 17.5974 0.0016945L19.9829 0ZM17.3067 26.4348C17.3067 27.0567 17.3067 27.6786 17.3067 28.2988C17.2914 29.9171 17.5005 31.5336 16.4566 33.0215C15.9159 33.7908 16.2628 34.7329 16.8698 35.448C17.4972 36.1885 18.3099 36.5241 19.2926 36.3072C21.0184 35.9276 21.8753 34.2737 21.0422 32.6554C20.4573 31.5235 20.2958 30.3864 20.3179 29.1528C20.357 27.0652 20.3842 24.9724 20.3094 22.883C20.2618 21.5172 20.7923 20.6157 22.0096 20.0684C22.3191 19.9311 22.6166 19.7702 22.9227 19.6227C24.9411 18.6466 26.5447 16.9859 27.4461 14.9384C28.3475 12.8908 28.4876 10.5902 27.8415 8.44896C27.2069 6.30467 25.8214 4.45843 23.937 3.24573C22.0525 2.03302 19.794 1.53433 17.572 1.84027C15.5637 2.09925 13.6924 2.99556 12.2349 4.39661C10.7773 5.79767 9.81099 7.62906 9.47873 9.61989C8.79013 13.6275 10.8695 17.6757 14.5795 19.5482C15.1083 19.8159 15.6337 20.0904 16.1607 20.3633C16.9429 20.7649 17.3101 21.4037 17.3033 22.2815C17.2965 23.6676 17.305 25.052 17.3067 26.4348Z" fill="#B8B8B8"/>
<path d="M29.9142 34.4194C29.1728 32.2928 27.8993 30.7338 25.6006 30.0594C27.8568 29.2528 29.3769 27.8141 30.0859 25.5197C30.8442 27.8921 31.2948 28.3767 34.2498 30.0543C32.1092 30.8609 30.5824 32.386 29.9142 34.4194ZM29.943 31.7421C30.3766 30.9185 30.8969 30.3864 31.6977 30.0475C30.9292 29.6815 30.3154 29.2223 30.0383 28.1361C29.7135 29.2053 29.0844 29.6612 28.3023 30.0577C29.1167 30.3831 29.6149 30.9185 29.9447 31.7455L29.943 31.7421Z" fill="#A08960"/>
<path d="M7.88909 20.5835C8.56069 22.9271 9.90729 24.3742 12.1771 25.0893C10.0161 25.9179 8.55557 27.2922 7.70204 29.4358C6.92843 27.3075 5.64813 25.7942 3.40039 25.152C5.59372 24.3556 7.12227 23.0033 7.88909 20.5835ZM7.79216 27.1431C8.35835 26.0705 8.77494 25.6722 9.94471 25.1097C8.85825 24.7572 8.20532 24.0353 7.83126 22.9237C7.47251 24.0828 6.69721 24.6894 5.72467 25.152C6.84173 25.6722 6.96924 25.7976 7.79216 27.1431Z" fill="#B8B8B8"/>
<path d="M6.16856 16.3896C4.70294 17.0318 3.7355 17.9333 3.11661 19.3635C2.56062 17.9672 1.72072 16.9793 0.25 16.454C1.71222 15.7761 2.78505 14.8848 3.23391 13.2801C3.68448 14.8136 4.55331 15.8439 6.16856 16.3896Z" fill="#A08960"/>
<path d="M26.7993 11.0348C26.8016 12.0867 26.5941 13.1285 26.1888 14.0997C25.7835 15.0709 25.1885 15.9521 24.4385 16.6921C23.6884 17.4321 22.7982 18.0161 21.8196 18.4101C20.8411 18.8041 19.7937 19.0003 18.7384 18.9873C16.6351 18.9682 14.6239 18.1248 13.1396 16.6395C11.6553 15.1542 10.8173 13.1463 10.8067 11.0501C10.8046 9.99766 11.0114 8.95523 11.415 7.98273C11.8187 7.01023 12.4112 6.12685 13.1586 5.38339C13.906 4.63993 14.7935 4.05105 15.77 3.65063C16.7466 3.25021 17.7929 3.04615 18.8489 3.05017C19.8972 3.05328 20.9346 3.26237 21.9018 3.66549C22.869 4.06861 23.7469 4.65783 24.4854 5.39946C25.2238 6.14108 25.8082 7.02054 26.2053 7.98753C26.6023 8.95451 26.8042 9.99002 26.7993 11.0348ZM12.4593 11.0348C12.4695 14.5527 15.3379 17.4148 18.8268 17.3893C22.3157 17.3639 25.2163 14.4832 25.2095 11.0111C25.1947 9.32629 24.514 7.71523 23.3149 6.52749C22.1158 5.33976 20.4952 4.67115 18.8047 4.66676C17.9676 4.66674 17.1389 4.83176 16.3661 5.15232C15.5934 5.47289 14.8919 5.94265 14.3021 6.53457C13.7123 7.12648 13.2458 7.82884 12.9296 8.6012C12.6133 9.37356 12.4535 10.2006 12.4593 11.0348Z" fill="#A08960"/>
<path d="M23.5978 11.2822C23.6352 11.5296 23.5264 11.8262 23.2135 12.1075C21.9332 13.2581 20.6819 14.4408 19.4118 15.605C19.0343 15.9439 17.6384 15.8948 17.2831 15.5525C17.0875 15.3627 17.2371 15.2576 17.3562 15.1475C19.223 13.4224 21.0905 11.6985 22.9585 9.97574C23.2611 9.69445 23.3428 9.81815 23.4482 10.1452C23.5536 10.4722 23.5587 10.8061 23.5978 11.2822Z" fill="#A08960"/>
<path d="M21.9809 7.96094C22.3108 8.07786 22.4485 8.33543 22.627 8.54555C22.8055 8.75568 22.627 8.9031 22.4825 9.03358C20.4677 10.8976 18.4427 12.7361 16.4381 14.6018C16.064 14.9407 15.9144 14.6544 15.6951 14.4459C15.4281 14.1968 15.355 14.0087 15.6832 13.7054C17.6929 11.8872 19.6805 10.0435 21.6783 8.20834C21.7837 8.11683 21.8891 8.03719 21.9809 7.96094Z" fill="#A08960"/>
</g>
<defs>
<clipPath id="clip0_133_2855">
<rect width="34" height="38" fill="white" transform="translate(0.25)"/>
</clipPath>
</defs>
</svg>
