<svg width="33" height="32" viewBox="0 0 33 32" fill="none" xmlns="http://www.w3.org/2000/svg">
<g clip-path="url(#clip0_133_2881)">
<path d="M1.20709 32C0.864652 31.7852 0.75 31.4866 0.75 31.0955C0.758933 25.9584 0.758933 20.8204 0.75 15.6814C0.75 15.2149 0.834849 14.8067 1.44081 14.7883C1.76836 14.7783 1.78177 14.5948 1.78028 14.3616C1.78028 13.723 1.78028 13.0816 1.78028 12.4444C1.78028 12.0007 1.6969 11.5427 2.29691 11.318C2.56192 11.2185 2.44579 10.8914 2.44579 10.6695C2.45324 8.32568 2.44579 5.97617 2.44579 3.63804C2.44579 2.50026 2.77037 2.32106 3.82746 2.82453C5.19869 3.47733 6.56102 4.14577 7.94417 4.77297C8.4608 5.00764 8.6707 5.31484 8.65879 5.87093C8.62455 7.48088 8.64542 9.09084 8.64839 10.7065C8.64839 11.0009 8.56949 11.3024 9.0221 11.4361C9.33178 11.5271 9.36451 11.8627 9.36451 12.1628C9.36451 12.7545 9.36451 13.3461 9.36451 13.9378C9.36451 14.3644 9.21563 14.8139 9.97197 14.8779C10.3948 14.9134 10.3531 15.4268 10.3531 15.7795C10.3531 17.6028 10.3531 19.4261 10.3531 21.2494C10.3531 24.4456 10.3531 27.6418 10.3531 30.838C10.3531 31.2718 10.3531 31.6914 9.97048 32.0028L1.20709 32ZM2.01851 23.3998C2.01851 25.6483 2.01851 27.8969 2.01851 30.1454C2.01851 30.555 2.06169 30.7982 2.61405 30.7897C4.59572 30.7598 6.57887 30.7627 8.56054 30.7897C9.06526 30.7897 9.1129 30.5877 9.1129 30.1952C9.10297 25.6507 9.10297 21.1062 9.1129 16.5618C9.1129 16.0242 8.89554 15.9502 8.41612 15.9559C6.53272 15.9772 4.64932 15.9843 2.76741 15.9559C2.1942 15.9459 1.99914 16.0839 2.00659 16.6585C2.03934 18.9013 2.01255 21.1513 2.01255 23.3998H2.01851ZM3.73964 4.12159C3.73964 6.49528 3.73964 8.75662 3.73964 11.0165C3.73964 11.328 3.93468 11.3465 4.18629 11.3451C5.10194 11.3451 6.01758 11.3294 6.93323 11.3451C7.3248 11.3536 7.44985 11.2156 7.44688 10.8515C7.43348 9.31413 7.44688 7.77813 7.44688 6.24071C7.44688 6.04302 7.4275 5.87519 7.20715 5.77137C6.07264 5.24515 4.95603 4.70613 3.73964 4.12159ZM5.59326 12.5255C4.90094 12.5255 4.20863 12.544 3.5178 12.5255C2.75104 12.4999 2.96987 13.0745 3.04432 13.3646C3.16789 13.8411 2.50537 14.6603 3.51184 14.7641C4.5183 14.8679 5.53518 14.7868 6.54909 14.7868C8.08261 14.7868 8.05434 14.7868 8.09156 13.3077C8.10645 12.7189 7.99328 12.4359 7.29501 12.517C6.7352 12.5767 6.16051 12.5255 5.59326 12.5255Z" fill="#B8B8B8"/>
<path d="M19.8179 0C21.0968 0.244622 22.3891 0.426667 23.6233 0.867556C33.5108 4.43733 35.9422 16.8462 28.0572 23.5392C27.9827 23.6032 27.9083 23.6629 27.8338 23.7284C27.5227 24.0128 27.1803 24.101 26.8542 23.7838C26.476 23.4169 26.6844 23.0827 27.0135 22.8139C27.7852 22.181 28.4745 21.4619 29.0666 20.672C34.3625 13.6846 30.5689 3.66507 21.804 1.61422C17.5652 0.618667 13.7091 1.48338 10.3294 4.16C10.2326 4.23538 10.1373 4.31218 10.0405 4.38471C9.6951 4.64498 9.31395 4.77867 8.99831 4.38471C8.71841 4.03769 8.90749 3.72764 9.21866 3.46169C10.5552 2.32718 12.0998 1.43852 13.7746 0.840533C14.9657 0.413867 16.2089 0.248889 17.4372 0H19.8179Z" fill="#A08960"/>
<path d="M30.0941 13.413C30.0941 19.7803 24.5019 24.8263 17.9733 24.4281C15.5043 24.2979 13.1479 23.3987 11.2645 21.8681C10.9101 21.5836 10.5201 21.2764 10.9251 20.8185C11.33 20.3605 11.7112 20.662 12.0804 20.9436C16.876 24.5888 23.4582 23.8151 26.9437 19.1132C29.1621 16.1266 29.506 12.8256 27.9055 9.49049C26.2826 6.11129 23.4389 4.17564 19.5411 3.82293C16.0035 3.50293 13.1032 4.76444 10.7806 7.29742C10.6511 7.43964 10.5395 7.60035 10.401 7.73547C10.1464 7.98435 9.85309 8.06826 9.54341 7.82506C9.23372 7.58186 9.2233 7.29742 9.42876 7.00444C9.93969 6.3034 10.5505 5.67392 11.2437 5.13422C17.9137 -0.237513 28.1973 3.21706 29.8901 11.4005C30.0375 12.0946 30.1522 12.8028 30.0941 13.413Z" fill="#A08960"/>
<path d="M31.0229 26.0523C30.7028 25.91 30.4006 25.9726 30.1088 25.9726C24.0799 25.9726 18.052 25.9726 12.0251 25.9726C11.4921 25.9726 10.77 26.0793 10.7923 25.3298C10.8117 24.6443 11.5025 24.7609 12.0147 24.7609H31.5887C32.8081 24.7609 32.9689 25.0453 32.4641 26.1276C31.5574 28.0761 30.1564 29.4784 27.9097 29.9435C27.3032 30.061 26.6854 30.1177 26.0665 30.1127C21.3786 30.126 16.6902 30.126 12.0013 30.1127C11.4832 30.1127 10.8013 30.1852 10.7864 29.5097C10.7715 28.8341 11.4355 28.8782 11.9656 28.8782C16.852 28.8782 21.7399 28.8939 26.6263 28.8782C28.5514 28.8683 29.9673 27.9808 30.9038 26.3851C30.9543 26.2779 30.9942 26.1665 31.0229 26.0523Z" fill="#A08960"/>
<path d="M14.4491 20.8427C14.3439 20.8441 14.2401 20.8188 14.1484 20.7695C14.0567 20.7201 13.9803 20.6484 13.9271 20.5617C13.8738 20.475 13.8456 20.3763 13.8452 20.2758C13.8449 20.1752 13.8724 20.0764 13.925 19.9893C14.0553 19.7888 14.2164 19.608 14.403 19.4532C18.0298 15.9829 21.6592 12.5146 25.291 9.04818C25.4268 8.9106 25.572 8.78184 25.7257 8.66276C25.7806 8.61353 25.845 8.57519 25.9155 8.54995C25.986 8.52471 26.061 8.51307 26.1362 8.51572C26.2114 8.51836 26.2853 8.53524 26.3536 8.56536C26.4219 8.59548 26.4833 8.63826 26.5342 8.6912C26.7858 8.92018 26.7813 9.20036 26.6086 9.46774C26.509 9.60307 26.3936 9.72712 26.2647 9.83751L15.2174 20.3904C15.0059 20.5995 14.805 20.81 14.4491 20.8427Z" fill="#A08960"/>
<path d="M27.3933 11.9239C27.3829 12.2083 27.2162 12.389 27.039 12.5582L18.6299 20.5909C18.3322 20.8754 17.9912 21.1001 17.6071 20.7417C17.2229 20.3833 17.4165 20.0462 17.7217 19.7547C20.5396 17.0581 23.36 14.364 26.1829 11.6722C26.4018 11.4645 26.6444 11.2967 26.9735 11.4119C27.0847 11.454 27.1822 11.5236 27.256 11.6136C27.3298 11.7036 27.3772 11.8107 27.3933 11.9239Z" fill="#A08960"/>
</g>
<defs>
<clipPath id="clip0_133_2881">
<rect width="32" height="32" fill="white" transform="translate(0.75)"/>
</clipPath>
</defs>
</svg>
