<svg width="27" height="32" viewBox="0 0 27 32" fill="none" xmlns="http://www.w3.org/2000/svg">
<path d="M22.0811 20.9533C22.9071 20.0613 23.4111 19.1433 23.5691 18.1533C24.0051 15.4133 24.0931 12.6673 23.2671 9.95328C23.0571 9.26528 22.7631 9.05528 22.0911 9.31128C21.4191 9.56728 20.6471 9.52328 19.9171 9.58128C18.9931 9.65528 18.5951 9.19128 18.7511 8.32128C18.9191 7.39128 18.7911 6.70727 17.9031 6.13328C17.1371 5.63928 16.7431 4.76328 16.6371 3.83728C16.5691 3.23728 16.2871 3.00328 15.7191 2.85928C12.5031 2.04528 9.51909 2.54728 6.74509 4.33728C6.60509 4.42728 6.47309 4.53728 6.34509 4.62928C5.95909 4.92528 5.57308 5.05928 5.23508 4.57328C4.89708 4.08728 5.23511 3.83928 5.56511 3.59128C7.24913 2.32448 9.23992 1.52859 11.3331 1.28528C12.889 1.07942 14.4703 1.1848 15.9851 1.59528C16.5071 1.74328 16.6091 1.57928 16.6691 1.11328C16.7751 0.265277 17.2591 0.0292768 18.0831 0.277277C19.2151 0.621277 20.3091 1.04128 21.0831 1.96728C21.4831 2.44928 21.7731 2.36728 22.2451 2.14128C23.4451 1.58328 24.7211 1.41728 26.0451 1.45528C26.6251 1.47128 26.8911 1.68328 26.8971 2.28328C26.9151 4.60328 26.4591 6.73527 24.5191 8.25527C24.0991 8.58327 24.2671 8.85528 24.3871 9.19928C25.4171 12.1773 25.3531 15.2313 24.8631 18.2733C24.5511 20.2113 23.4511 21.7753 21.9191 22.9993C21.4058 23.4153 20.9616 23.9102 20.6031 24.4653C19.1311 26.6653 17.0871 28.0653 14.4471 28.4993C13.8731 28.5933 13.5991 28.7953 13.6851 29.3873C13.6901 29.4538 13.6901 29.5207 13.6851 29.5873C13.6651 31.8293 14.1131 31.9973 11.3351 31.7093C5.76308 31.1293 0.803094 25.8593 0.649094 20.2573C0.579094 17.7253 0.595094 15.1913 0.649094 12.6573C0.691094 10.5473 1.40912 8.62328 2.52312 6.84328C2.76912 6.44328 3.0551 6.08928 3.5571 6.37728C4.0591 6.66528 3.9131 7.09528 3.6551 7.49128C2.2551 9.63527 1.77111 12.0073 1.86911 14.5313C1.96711 17.0553 1.6131 19.6593 2.2571 22.1913C3.3451 26.4713 7.1771 29.8993 11.5531 30.4413C11.8831 30.4833 12.4231 30.7313 12.4231 30.0213C12.4231 29.3673 12.6631 28.6693 11.5591 28.5233C8.3111 28.0953 6.00108 26.2873 4.53508 23.3953C3.94193 22.234 3.63605 20.9473 3.64309 19.6433C3.64309 17.9433 3.62709 16.2433 3.64309 14.5433C3.65309 13.6473 4.08109 13.4313 4.84309 13.8893C8.41709 16.0273 11.2831 15.2893 13.3531 11.6633C13.5271 11.3573 13.7011 11.0633 14.0931 11.1193C14.4851 11.1753 14.5811 11.4753 14.6931 11.8193C15.6931 14.8053 18.0811 15.8193 20.9091 14.4773C21.7291 14.0893 22.0671 14.2893 22.0771 15.2273C22.0931 17.0773 22.0811 18.9253 22.0811 20.9533ZM13.8811 13.4793C11.7891 16.0973 8.59909 17.1033 5.49709 15.7793C4.97309 15.5553 4.86312 15.7153 4.87312 16.2173C4.89512 17.2833 4.87308 18.3513 4.88508 19.4173C4.96908 23.5973 8.11509 27.0173 12.1491 27.3173C16.4111 27.6413 19.9491 24.8633 20.6991 20.6213C20.9371 19.2633 20.7631 17.8953 20.8191 16.5333C20.8391 16.0793 20.5991 16.0633 20.2491 16.1453C17.5271 16.7813 15.4291 15.8713 13.8831 13.4793H13.8811ZM20.5651 8.27928C23.8891 7.87928 25.2431 6.41128 25.5971 3.19928C25.6451 2.76728 25.4291 2.71728 25.0631 2.72728C22.2491 2.79528 20.1591 4.84928 20.0511 7.65128C20.0351 8.10328 20.1031 8.38527 20.5591 8.28327L20.5651 8.27928ZM19.1391 5.46728C19.4031 4.97928 19.6171 4.53128 19.8771 4.11528C20.5071 3.11528 20.4911 2.94128 19.4971 2.29928C19.1319 2.07572 18.747 1.88625 18.3471 1.73328C18.0511 1.61128 17.8611 1.69528 17.8351 2.07528C17.7591 3.37928 17.8711 4.59328 19.1411 5.47128L19.1391 5.46728Z" fill="#43231B"/>
<path d="M12.8651 24.6913C11.8371 24.6133 10.8651 24.3193 10.1031 23.5473C9.83709 23.2793 9.72708 22.9932 9.99308 22.6712C10.2591 22.3492 10.5931 22.3072 10.8771 22.5452C12.2071 23.6292 13.5111 23.6192 14.8431 22.5452C14.907 22.4895 14.9823 22.4483 15.0638 22.4247C15.1453 22.4011 15.2309 22.3956 15.3148 22.4085C15.3986 22.4215 15.4786 22.4526 15.5491 22.4997C15.6196 22.5468 15.679 22.6088 15.7231 22.6813C15.9651 23.0013 15.8631 23.3033 15.5951 23.5653C14.8431 24.2973 13.9151 24.6033 12.8651 24.6913Z" fill="#A08960"/>
</svg>
