<svg width="20" height="22" viewBox="0 0 20 22" fill="none" xmlns="http://www.w3.org/2000/svg">
<path d="M11.8418 0.665696C10.7585 -0.176894 9.24151 -0.176897 8.15818 0.665695L1.15818 6.11014C0.427418 6.67851 0 7.55243 0 8.4782V18.5C0 19.2957 0.31607 20.0587 0.87868 20.6214C1.44129 21.184 2.20435 21.5 3 21.5H5C6.65685 21.5 8 20.1569 8 18.5V12.5C8 11.9477 8.44772 11.5 9 11.5H11C11.5523 11.5 12 11.9477 12 12.5V18.5C12 20.1569 13.3431 21.5 15 21.5H17C17.7957 21.5 18.5587 21.184 19.1213 20.6214C19.6839 20.0587 20 19.2957 20 18.5V8.4782C20 7.55243 19.5726 6.67851 18.8418 6.11014L11.8418 0.665696Z" fill="#43231B"/>
</svg>
