<svg width="20" height="22" viewBox="0 0 20 22" fill="none" xmlns="http://www.w3.org/2000/svg">
<path d="M1 8.47817C1 7.86099 1.28495 7.27838 1.77212 6.89946L8.77212 1.45502C9.49434 0.89329 10.5057 0.893291 11.2279 1.45502L18.2279 6.89946C18.7151 7.27838 19 7.86099 19 8.47817V18.5C19 19.0304 18.7893 19.5391 18.4142 19.9142C18.0391 20.2893 17.5304 20.5 17 20.5H15C13.8954 20.5 13 19.6046 13 18.5V12.5C13 11.3954 12.1046 10.5 11 10.5H9C7.89543 10.5 7 11.3954 7 12.5V18.5C7 19.6046 6.10457 20.5 5 20.5H3C2.46957 20.5 1.96086 20.2893 1.58579 19.9142C1.21071 19.5391 1 19.0304 1 18.5V8.47817Z" stroke="#E2E8F0" stroke-width="2" stroke-linecap="round" stroke-linejoin="round"/>
</svg>
