<svg width="35" height="38" viewBox="0 0 35 38" fill="none" xmlns="http://www.w3.org/2000/svg">
<g clip-path="url(#clip0_4_111)">
<path d="M19.9831 0C21.0152 0.274515 22.0864 0.398216 23.0742 0.847269C27.3657 2.78582 29.7885 6.10034 29.9432 10.7773C30.098 15.4542 27.9029 18.9788 23.7203 21.1139C22.2071 21.8833 21.4862 22.8508 21.5916 24.5505C21.6868 26.0976 21.6341 27.6549 21.6035 29.207C21.5769 30.1682 21.8119 31.1186 22.2836 31.9573C23.1796 33.5806 23.0436 35.1769 21.9435 36.5325C21.4457 37.1346 20.7834 37.5799 20.0368 37.8144C19.2902 38.049 18.4914 38.0629 17.7371 37.8543C16.076 37.3832 14.9963 36.1055 14.7872 34.3144C14.6957 33.4938 14.8844 32.6664 15.3228 31.9658C15.8392 31.1182 16.0957 30.1387 16.0607 29.1477C16.025 27.5396 15.991 25.9281 16.0607 24.3217C16.1338 22.7797 15.4435 21.8324 14.0918 21.2054C11.1673 19.8498 9.21034 17.6096 8.18679 14.5662C6.01726 8.11344 10.3614 1.11162 17.1233 0.149119C17.2852 0.112874 17.4438 0.0635694 17.5977 0.0016945L19.9831 0ZM17.3069 26.4348C17.3069 27.0567 17.3069 27.6786 17.3069 28.2988C17.2916 29.9171 17.5008 31.5336 16.4568 33.0215C15.9161 33.7908 16.263 34.7329 16.87 35.448C17.4974 36.1885 18.3101 36.5241 19.2929 36.3072C21.0186 35.9276 21.8755 34.2737 21.0424 32.6554C20.4575 31.5235 20.296 30.3864 20.3181 29.1528C20.3572 27.0652 20.3844 24.9724 20.3096 22.883C20.262 21.5172 20.7925 20.6157 22.0099 20.0684C22.3193 19.9311 22.6168 19.7702 22.9229 19.6227C24.9413 18.6466 26.545 16.9859 27.4463 14.9384C28.3477 12.8908 28.4879 10.5902 27.8417 8.44896C27.2071 6.30467 25.8217 4.45843 23.9372 3.24573C22.0527 2.03302 19.7943 1.53433 17.5722 1.84027C15.5639 2.09925 13.6926 2.99556 12.2351 4.39661C10.7776 5.79767 9.81121 7.62906 9.47896 9.61989C8.79036 13.6275 10.8698 17.6757 14.5797 19.5482C15.1085 19.8159 15.6339 20.0904 16.161 20.3633C16.9431 20.7649 17.3103 21.4037 17.3035 22.2815C17.2967 23.6676 17.3052 25.052 17.3069 26.4348Z" fill="#43231B"/>
<path d="M29.9144 34.4194C29.173 32.2928 27.8995 30.7338 25.6008 30.0594C27.857 29.2528 29.3771 27.8141 30.0861 25.5197C30.8444 27.8921 31.295 28.3767 34.25 30.0543C32.1094 30.8609 30.5826 32.386 29.9144 34.4194ZM29.9433 31.7421C30.3768 30.9185 30.8971 30.3864 31.6979 30.0475C30.9294 29.6815 30.3156 29.2223 30.0385 28.1361C29.7137 29.2053 29.0846 29.6612 28.3025 30.0577C29.1169 30.3831 29.6151 30.9185 29.945 31.7455L29.9433 31.7421Z" fill="#A08960"/>
<path d="M7.88926 20.5835C8.56086 22.9271 9.90745 24.3742 12.1773 25.0893C10.0163 25.9179 8.55574 27.2922 7.70221 29.4358C6.9286 27.3075 5.6483 25.7942 3.40056 25.152C5.59389 24.3556 7.12244 23.0033 7.88926 20.5835ZM7.79233 27.1431C8.35852 26.0705 8.7751 25.6722 9.94488 25.1097C8.85842 24.7572 8.20549 24.0353 7.83143 22.9237C7.47268 24.0828 6.69738 24.6894 5.72484 25.152C6.8419 25.6722 6.96941 25.7976 7.79233 27.1431Z" fill="#43231B"/>
<path d="M6.16857 16.3896C4.70295 17.0318 3.73551 17.9333 3.11662 19.3635C2.56064 17.9672 1.72074 16.9793 0.250015 16.454C1.71223 15.7761 2.78506 14.8848 3.23393 13.2801C3.6845 14.8136 4.55333 15.8439 6.16857 16.3896Z" fill="#A08960"/>
<path d="M26.7995 11.0348C26.8018 12.0867 26.5943 13.1285 26.189 14.0997C25.7838 15.0709 25.1888 15.9521 24.4387 16.6921C23.6886 17.4321 22.7984 18.0161 21.8199 18.4101C20.8413 18.8041 19.7939 19.0003 18.7386 18.9873C16.6353 18.9682 14.6241 18.1248 13.1398 16.6395C11.6556 15.1542 10.8175 13.1463 10.8069 11.0501C10.8049 9.99766 11.0116 8.95523 11.4153 7.98273C11.8189 7.01023 12.4114 6.12685 13.1588 5.38339C13.9062 4.63993 14.7937 4.05105 15.7703 3.65063C16.7468 3.25021 17.7931 3.04615 18.8491 3.05017C19.8974 3.05328 20.9349 3.26237 21.902 3.66549C22.8692 4.06861 23.7472 4.65783 24.4856 5.39946C25.224 6.14108 25.8085 7.02054 26.2055 7.98753C26.6026 8.95451 26.8044 9.99002 26.7995 11.0348ZM12.4595 11.0348C12.4697 14.5527 15.3381 17.4148 18.827 17.3893C22.3159 17.3639 25.2165 14.4832 25.2097 11.0111C25.195 9.32629 24.5142 7.71523 23.3151 6.52749C22.1161 5.33976 20.4955 4.67115 18.8049 4.66676C17.9679 4.66674 17.1391 4.83176 16.3664 5.15232C15.5936 5.47289 14.8922 5.94265 14.3024 6.53457C13.7126 7.12648 13.2461 7.82884 12.9298 8.6012C12.6135 9.37356 12.4537 10.2006 12.4595 11.0348Z" fill="#A08960"/>
<path d="M23.5979 11.2822C23.6353 11.5296 23.5265 11.8262 23.2136 12.1075C21.9334 13.2581 20.682 14.4408 19.4119 15.605C19.0344 15.9439 17.6385 15.8948 17.2832 15.5525C17.0876 15.3627 17.2373 15.2576 17.3563 15.1475C19.2232 13.4224 21.0906 11.6985 22.9586 9.97574C23.2613 9.69445 23.3429 9.81815 23.4483 10.1452C23.5537 10.4722 23.5588 10.8061 23.5979 11.2822Z" fill="#A08960"/>
<path d="M21.9809 7.96094C22.3108 8.07786 22.4485 8.33543 22.6271 8.54555C22.8056 8.75568 22.6271 8.9031 22.4826 9.03358C20.4678 10.8976 18.4427 12.7361 16.4381 14.6018C16.0641 14.9407 15.9144 14.6544 15.6951 14.4459C15.4282 14.1968 15.3551 14.0087 15.6832 13.7054C17.6929 11.8872 19.6805 10.0435 21.6783 8.20834C21.7837 8.11683 21.8891 8.03719 21.9809 7.96094Z" fill="#A08960"/>
</g>
<defs>
<clipPath id="clip0_4_111">
<rect width="34" height="38" fill="white" transform="translate(0.25)"/>
</clipPath>
</defs>
</svg>
