<svg width="32" height="32" viewBox="0 0 32 32" fill="none" xmlns="http://www.w3.org/2000/svg">
<path d="M24.0999 2.07199L29.6639 7.87199V29.928H8.87891V30H29.7349V7.94499L24.0999 2.07199Z" fill="#909090"/>
<path d="M24.0311 2H8.80811V29.928H29.6641V7.873L24.0311 2Z" fill="#F4F4F4"/>
<path d="M8.65489 3.5H2.26489V10.327H22.3649V3.5H8.65489Z" fill="#7A7B7C"/>
<path d="M22.472 10.211H2.39502V3.379H22.472V10.211Z" fill="#DD2025"/>
<path d="M9.05212 4.534H7.74512V9.334H8.77312V7.715L9.00012 7.728C9.22069 7.72421 9.43919 7.68469 9.64712 7.611C9.82942 7.5483 9.99713 7.44931 10.1401 7.32C10.2856 7.19682 10.4003 7.04136 10.4751 6.866C10.5754 6.5745 10.6112 6.2647 10.5801 5.958C10.5739 5.73891 10.5355 5.52192 10.4661 5.314C10.403 5.16391 10.3093 5.0286 10.191 4.91669C10.0728 4.80479 9.93247 4.71873 9.77912 4.664C9.64653 4.616 9.50953 4.58117 9.37012 4.56C9.26454 4.54371 9.15794 4.53502 9.05112 4.534M8.86212 6.828H8.77312V5.348H8.96612C9.0513 5.34186 9.13677 5.35493 9.21622 5.38626C9.29566 5.41759 9.36706 5.46637 9.42512 5.529C9.54544 5.69002 9.60971 5.886 9.60812 6.087C9.60812 6.333 9.60812 6.556 9.38612 6.713C9.22618 6.80097 9.04414 6.84157 8.86212 6.828ZM12.5331 4.521C12.4221 4.521 12.3141 4.529 12.2381 4.532L12.0001 4.538H11.2201V9.338H12.1381C12.4889 9.34762 12.8382 9.28816 13.1661 9.163C13.43 9.05832 13.6637 8.88958 13.8461 8.672C14.0235 8.45246 14.1508 8.19684 14.2191 7.923C14.2977 7.61287 14.336 7.29392 14.3331 6.974C14.3525 6.59616 14.3233 6.21739 14.2461 5.847C14.1729 5.57436 14.0358 5.32309 13.8461 5.114C13.6973 4.94516 13.5152 4.80897 13.3111 4.714C13.1359 4.63292 12.9516 4.57316 12.7621 4.536C12.6868 4.52356 12.6105 4.51787 12.5341 4.519M12.3521 8.456H12.2521V5.392H12.2651C12.4713 5.36828 12.6799 5.40548 12.8651 5.499C13.0008 5.60733 13.1113 5.7438 13.1891 5.899C13.2731 6.06234 13.3215 6.24161 13.3311 6.425C13.3401 6.645 13.3311 6.825 13.3311 6.974C13.3352 7.14564 13.3241 7.3173 13.2981 7.487C13.2673 7.66123 13.2103 7.8298 13.1291 7.987C13.0372 8.13316 12.913 8.25631 12.7661 8.347C12.6427 8.4268 12.4966 8.46403 12.3501 8.453M17.4301 4.538H15.0001V9.338H16.0281V7.434H17.3281V6.542H16.0281V5.43H17.4281V4.538" fill="#464648"/>
<path d="M21.7809 20.255C21.7809 20.255 24.9689 19.677 24.9689 20.766C24.9689 21.855 22.9939 21.412 21.7809 20.255ZM19.4239 20.338C18.9174 20.4499 18.4238 20.6138 17.9509 20.827L18.3509 19.927C18.7509 19.027 19.1659 17.8 19.1659 17.8C19.6432 18.6033 20.1986 19.3577 20.8239 20.052C20.3524 20.1223 19.885 20.2185 19.4239 20.34V20.338ZM18.1619 13.838C18.1619 12.889 18.4689 12.63 18.7079 12.63C18.9469 12.63 19.2159 12.745 19.2249 13.569C19.1471 14.3976 18.9736 15.2143 18.7079 16.003C18.3441 15.3408 18.1557 14.5966 18.1609 13.841L18.1619 13.838ZM13.5129 24.354C12.5349 23.769 15.5639 21.968 16.1129 21.91C16.1099 21.911 14.5369 24.966 13.5129 24.354ZM25.8999 20.895C25.8899 20.795 25.7999 19.688 23.8299 19.735C23.0088 19.7218 22.1881 19.7797 21.3769 19.908C20.5912 19.1164 19.9146 18.2235 19.3649 17.253C19.7112 16.2524 19.9208 15.2097 19.9879 14.153C19.9589 12.953 19.6719 12.265 18.7519 12.275C17.8319 12.285 17.6979 13.09 17.8189 14.288C17.9375 15.0931 18.161 15.8791 18.4839 16.626C18.4839 16.626 18.0589 17.949 17.4969 19.265C16.9349 20.581 16.5509 21.271 16.5509 21.271C15.5737 21.5891 14.6537 22.0618 13.8259 22.671C13.0019 23.438 12.6669 24.027 13.1009 24.616C13.4749 25.124 14.7839 25.239 15.9539 23.706C16.5756 22.9142 17.1435 22.0817 17.6539 21.214C17.6539 21.214 19.4379 20.725 19.9929 20.591C20.5479 20.457 21.2189 20.351 21.2189 20.351C21.2189 20.351 22.8479 21.99 24.4189 21.932C25.9899 21.874 25.9139 20.993 25.9039 20.897" fill="#DD2025"/>
<path d="M23.9541 2.077V7.95H29.5871L23.9541 2.077Z" fill="#909090"/>
<path d="M24.031 2V7.873H29.664L24.031 2Z" fill="#F4F4F4"/>
<path d="M8.97497 4.45701H7.66797V9.25701H8.69997V7.63901L8.92797 7.65201C9.14854 7.64821 9.36704 7.6087 9.57497 7.53501C9.75726 7.47228 9.92496 7.37329 10.068 7.24401C10.2124 7.12049 10.326 6.96506 10.4 6.79001C10.5003 6.4985 10.5361 6.1887 10.505 5.88201C10.4987 5.66291 10.4603 5.44593 10.391 5.23801C10.3278 5.08791 10.2342 4.95261 10.1159 4.8407C9.9976 4.72879 9.85732 4.64273 9.70397 4.58801C9.57077 4.53954 9.4331 4.50437 9.29297 4.48301C9.18739 4.46672 9.08079 4.45803 8.97397 4.45701M8.78497 6.75101H8.69597V5.27101H8.88997C8.97515 5.26486 9.06062 5.27794 9.14007 5.30927C9.21952 5.3406 9.29091 5.38938 9.34897 5.45201C9.46929 5.61302 9.53356 5.80901 9.53197 6.01001C9.53197 6.25601 9.53197 6.47901 9.30997 6.63601C9.15004 6.72397 8.96799 6.76357 8.78597 6.75001M12.456 4.44401C12.345 4.44401 12.237 4.45201 12.161 4.45501L11.926 4.46101H11.146V9.26101H12.064C12.4148 9.27062 12.7641 9.21116 13.092 9.08601C13.3559 8.98133 13.5896 8.81259 13.772 8.59501C13.9493 8.37546 14.0766 8.11984 14.145 7.84601C14.2235 7.53587 14.2618 7.21692 14.259 6.89701C14.2784 6.51916 14.2491 6.14039 14.172 5.77001C14.0988 5.49737 13.9616 5.2461 13.772 5.03701C13.6232 4.86817 13.441 4.73198 13.237 4.63701C13.0617 4.55592 12.8774 4.49616 12.688 4.45901C12.6126 4.44656 12.5363 4.44087 12.46 4.44201M12.278 8.37901H12.178V5.31501H12.191C12.3971 5.29129 12.6057 5.32848 12.791 5.42201C12.9266 5.53033 13.0372 5.66681 13.115 5.82201C13.1989 5.98534 13.2473 6.16461 13.257 6.34801C13.266 6.56801 13.257 6.74801 13.257 6.89701C13.261 7.06864 13.25 7.2403 13.224 7.41001C13.1931 7.58423 13.1362 7.7528 13.055 7.91001C12.9631 8.05616 12.8389 8.17931 12.692 8.27001C12.5686 8.3498 12.4225 8.38703 12.276 8.37601M17.353 4.46101H14.923V9.26101H15.951V7.35701H17.251V6.46501H15.951V5.35301H17.351V4.46101" fill="white"/>
</svg>
