<svg width="22" height="23" viewBox="0 0 22 23" fill="none" xmlns="http://www.w3.org/2000/svg">
<path d="M18 0.671631C17.4973 0.671631 16.9994 0.770656 16.5349 0.963052C16.0705 1.15545 15.6484 1.43745 15.2929 1.79295L1.79292 15.293C1.66986 15.416 1.58105 15.569 1.53526 15.7369L0.0352593 21.2369C-0.0591621 21.5832 0.0391662 21.9534 0.292916 22.2072C0.546667 22.4609 0.916928 22.5592 1.26314 22.4648L6.76314 20.9648C6.93104 20.919 7.08407 20.8302 7.20713 20.7072L20.7071 7.20716C21.0626 6.85166 21.3446 6.42962 21.537 5.96513C21.7294 5.50064 21.8284 5.00281 21.8284 4.50006C21.8284 3.9973 21.7294 3.49947 21.537 3.03498C21.3446 2.57049 21.0626 2.14845 20.7071 1.79295C20.3516 1.43745 19.9296 1.15545 19.4651 0.963052C19.0006 0.770656 18.5028 0.671631 18 0.671631Z" fill="#43231B"/>
</svg>
