<svg width="22" height="23" viewBox="0 0 22 23" fill="none" xmlns="http://www.w3.org/2000/svg">
<path d="M16 2.5C16.2626 2.23735 16.5744 2.02901 16.9176 1.88687C17.2608 1.74473 17.6286 1.67157 18 1.67157C18.3714 1.67157 18.7392 1.74473 19.0824 1.88687C19.4256 2.02901 19.7374 2.23735 20 2.5C20.2626 2.76264 20.471 3.07444 20.6131 3.4176C20.7553 3.76077 20.8284 4.12856 20.8284 4.5C20.8284 4.87143 20.7553 5.23923 20.6131 5.58239C20.471 5.92555 20.2626 6.23735 20 6.5L6.5 20L1 21.5L2.5 16L16 2.5Z" stroke="#E2E8F0" stroke-width="2" stroke-linecap="round" stroke-linejoin="round"/>
</svg>
