<svg width="30" height="36" viewBox="0 0 30 36" fill="none" xmlns="http://www.w3.org/2000/svg">
<g clip-path="url(#clip0_4_89)">
<path d="M26.2308 18.5975C26.5583 18.4134 26.8827 18.2331 27.2175 18.5915C27.4646 18.8556 27.5125 19.1436 27.295 19.4332C27.0951 19.7041 27.1696 19.8821 27.4263 20.0318C27.7028 20.1911 27.9838 20.3445 28.264 20.4979C30.4181 21.6793 29.9167 23.9756 28.7316 24.9871C27.8127 25.7705 26.722 26.2239 25.6342 26.6856C24.3997 27.2093 23.1563 27.7174 22.0354 28.4775C21.5174 28.8148 21.059 29.2379 20.6792 29.7293C20.5354 29.9216 20.542 30.0286 20.7529 30.1662C21.4292 30.6077 22.0354 31.1284 22.4948 31.8123C23.4845 33.2833 23.1379 34.9465 21.6409 35.8721C21.2788 36.0965 20.91 36.0359 20.6999 35.7187C20.4897 35.4014 20.5811 35.0101 20.91 34.7722C21.9307 34.0352 22.031 33.2503 21.2183 32.2956C20.5627 31.5257 19.7205 31.0154 18.8296 30.586C17.4085 29.9014 15.9845 29.231 14.7463 28.2172C11.292 25.3874 9.20869 21.7616 8.63347 17.2873C8.32669 14.9028 8.60102 12.534 9.01547 10.1794C9.34365 8.31633 9.70575 6.45928 10.0214 4.594C10.2323 3.34749 10.3466 2.09798 9.82742 0.879899C9.79071 0.803148 9.7706 0.719321 9.76842 0.634036C9.76625 0.548752 9.78207 0.46398 9.81482 0.385405C9.84757 0.306829 9.89651 0.236265 9.95833 0.178442C10.0202 0.120619 10.0935 0.0768739 10.1733 0.0501374C10.528 -0.0860363 10.8879 0.0785684 11.0391 0.465392C11.2375 0.974173 11.4395 1.4852 11.4476 2.04486C11.4476 2.25436 11.5442 2.34788 11.7463 2.39203C13.5066 2.7796 15.0103 3.67146 16.3186 4.89254C17.3689 5.86323 18.169 7.08008 18.649 8.43679C19.0833 9.66909 19.9292 10.3717 21.1099 10.7495C22.2507 11.1139 23.4351 11.2732 24.6055 11.4902C26.1895 11.7895 26.6704 12.7106 25.9712 14.1838C25.8228 14.5121 25.6556 14.8314 25.4705 15.14C25.2994 15.4138 25.3879 15.5358 25.6541 15.6143C25.7242 15.6353 25.7883 15.6764 25.8577 15.7004C26.1244 15.788 26.3628 15.9472 26.5476 16.161C26.7325 16.3749 26.8569 16.6355 26.9077 16.9152C26.9585 17.1949 26.9337 17.4834 26.8361 17.75C26.7385 18.0167 26.5717 18.2516 26.3532 18.4299C26.2972 18.4762 26.2257 18.5114 26.2397 18.6049C26.0723 18.6221 26.0111 18.771 25.9108 18.875C25.3272 19.4978 24.6657 20.0404 23.9432 20.4889C23.5959 20.6984 23.2367 20.5959 23.0413 20.2779C22.9952 20.2072 22.9637 20.1278 22.9485 20.0445C22.9333 19.9612 22.9348 19.8756 22.9529 19.7929C22.971 19.7101 23.0053 19.6319 23.0538 19.563C23.1023 19.494 23.164 19.4356 23.2352 19.3913C24.0796 18.8825 24.7714 18.1987 25.4535 17.4976C25.7485 17.1983 25.7234 17.0195 25.3193 16.8938C24.9506 16.7801 24.6032 16.6364 24.3016 16.3902C23.969 16.1186 23.8547 15.7715 23.9757 15.3585C24.0409 15.1446 24.1225 14.9362 24.2198 14.7352C24.4476 14.2519 24.6851 13.7745 24.9211 13.2949C25.0354 13.063 25.0022 12.9328 24.7176 12.8864C24.2699 12.8116 23.8274 12.7031 23.3813 12.6178C22.2478 12.4015 21.1069 12.213 20.0384 11.7416C18.8193 11.2037 17.9786 10.326 17.4904 9.04808C16.458 6.35453 14.5406 4.61495 11.8267 3.75451C11.545 3.66473 11.4447 3.71112 11.4115 4.03135C11.3082 5.03469 11.1165 6.02532 10.9329 7.0167C10.4587 9.5606 9.91445 12.0955 9.83333 14.6993C9.71607 18.4403 10.8186 21.7661 13.0981 24.6968C14.7352 26.8023 16.8274 28.2837 19.2515 29.3133C19.4285 29.3881 19.4919 29.3133 19.5767 29.1973C20.135 28.4207 20.8584 27.8273 21.6335 27.2901C22.91 26.4065 24.3215 25.7937 25.7382 25.1951C26.4521 24.8914 27.1622 24.5726 27.7647 24.0661C28.7537 23.2341 28.663 22.2367 27.5494 21.6105C27.2168 21.4227 26.8717 21.2566 26.5509 21.0508C25.8134 20.5772 25.6298 19.5993 26.1283 18.8631C26.1814 18.7815 26.2603 18.7127 26.2308 18.5975Z" fill="#43231B"/>
<path d="M4.75075 19.8627C4.69101 17.0876 5.36358 14.2444 6.35104 11.4595C7.18363 9.11167 7.90413 6.73386 8.20575 4.24532C8.22198 4.10915 8.23673 3.97298 8.25222 3.8368C8.30679 3.35795 8.58408 3.07962 8.9742 3.11404C9.38644 3.14995 9.62021 3.47916 9.55974 3.9827C9.42081 5.14549 9.21694 6.29933 8.94912 7.43867C8.4329 9.62344 7.60399 11.7035 6.95797 13.8493C6.25812 16.1807 5.91888 18.563 6.07301 20.9977C6.20723 23.0755 7.1003 24.8352 8.44617 26.3504C10.8759 29.0858 13.854 30.9207 17.3805 31.8549C17.4875 31.8826 17.5951 31.9081 17.6999 31.9425C18.0288 32.0532 18.233 32.3622 18.1704 32.6488C18.0819 33.0543 17.7773 33.281 17.3857 33.1965C16.6431 33.0356 15.9027 32.859 15.1984 32.568C13.34 31.7988 11.5738 30.8606 9.98009 29.6111C7.99705 28.0563 6.33186 26.2389 5.38274 23.8371C4.91298 22.6288 4.71314 21.3695 4.75075 19.8627Z" fill="#A08960"/>
<path d="M6.16003 9.98109C6.13201 11.0892 5.71756 12.0641 5.13865 12.9792C4.55975 13.8942 3.87316 14.7554 3.3031 15.6899C2.35915 17.238 2.02065 18.9267 2.04941 20.7171C2.05752 21.2042 1.81785 21.5117 1.42626 21.5222C1.01623 21.5342 0.762549 21.2304 0.752225 20.7209C0.690278 18.159 1.45206 15.871 2.94985 13.8186C3.45354 13.128 3.97861 12.4502 4.37021 11.6825C4.6733 11.0877 4.87537 10.4689 4.84734 9.78581C4.82669 9.28825 5.05752 8.9942 5.45723 8.96951C5.84439 8.94557 6.12094 9.24036 6.15782 9.71772C6.16593 9.809 6.16003 9.89355 6.16003 9.98109Z" fill="#A08960"/>
<path d="M11.9056 13.2508C11.5369 13.244 11.2677 12.727 11.5221 12.2122C12.0743 11.0682 12.808 10.024 13.694 9.1214C13.9762 8.82485 14.2991 8.57109 14.6527 8.36796C14.7975 8.28126 14.9703 8.2562 15.1333 8.29825C15.2964 8.3403 15.4364 8.44605 15.5229 8.59242C15.7028 8.88347 15.6571 9.25309 15.3636 9.45735C14.1497 10.3028 13.3724 11.5022 12.6999 12.7899C12.5546 13.0712 12.3658 13.2508 11.9056 13.2508Z" fill="#43231B"/>
<path d="M18.1438 12.2878C17.9963 13.1041 17.5597 13.8239 16.9086 14.4112C16.373 14.8913 15.7283 15.2291 15.0324 15.3944C14.542 15.5156 14.2058 15.3495 14.1018 14.9372C14.0022 14.5414 14.2139 14.2369 14.6917 14.1142C15.3665 13.9549 15.9684 13.5689 16.3997 13.0188C16.6294 12.7094 16.7941 12.3554 16.8835 11.9788C16.9253 11.8208 17.0248 11.6849 17.1617 11.5986C17.2987 11.5124 17.4629 11.4822 17.621 11.5142C17.9617 11.5845 18.1674 11.8598 18.1438 12.2878Z" fill="#43231B"/>
</g>
<defs>
<clipPath id="clip0_4_89">
<rect width="29" height="36" fill="white" transform="translate(0.75)"/>
</clipPath>
</defs>
</svg>
