<svg width="18" height="21" viewBox="0 0 18 21" fill="none" xmlns="http://www.w3.org/2000/svg">
<path d="M8.99999 0.5C6.23856 0.5 3.99999 2.73858 3.99999 5.5C3.99999 8.26142 6.23856 10.5 8.99999 10.5C11.7614 10.5 14 8.26142 14 5.5C14 2.73858 11.7614 0.5 8.99999 0.5Z" fill="#43231B"/>
<path d="M5 12.5C3.67392 12.5 2.40215 13.0268 1.46447 13.9645C0.526784 14.9021 0 16.1739 0 17.5V19.5C0 20.0523 0.447715 20.5 1 20.5H17C17.5523 20.5 18 20.0523 18 19.5V17.5C18 16.1739 17.4732 14.9021 16.5355 13.9645C15.5978 13.0268 14.3261 12.5 13 12.5H5Z" fill="#43231B"/>
</svg>
