<svg width="25" height="25" viewBox="0 0 25 25" fill="none" xmlns="http://www.w3.org/2000/svg">
<path d="M16.6667 21.875V19.7917C16.6667 18.6866 16.2277 17.6268 15.4463 16.8454C14.6649 16.064 13.6051 15.625 12.5 15.625H5.20835C4.10328 15.625 3.04348 16.064 2.26208 16.8454C1.48067 17.6268 1.04169 18.6866 1.04169 19.7917V21.875" stroke="white" stroke-width="2" stroke-linecap="round" stroke-linejoin="round"/>
<path d="M8.85417 11.4583C11.1554 11.4583 13.0208 9.59285 13.0208 7.29167C13.0208 4.99048 11.1554 3.125 8.85417 3.125C6.55298 3.125 4.6875 4.99048 4.6875 7.29167C4.6875 9.59285 6.55298 11.4583 8.85417 11.4583Z" stroke="white" stroke-width="2" stroke-linecap="round" stroke-linejoin="round"/>
<path d="M20.8333 8.33325V14.5833" stroke="white" stroke-width="2" stroke-linecap="round" stroke-linejoin="round"/>
<path d="M23.9583 11.4583H17.7083" stroke="white" stroke-width="2" stroke-linecap="round" stroke-linejoin="round"/>
</svg>
