<svg width="15" height="14" viewBox="0 0 15 14" fill="none" xmlns="http://www.w3.org/2000/svg">
<g clip-path="url(#clip0_22_1142)">
<path d="M1.22723 6.91621C1.2269 8.09248 1.53665 9.24103 2.12563 10.2534L1.1709 13.7122L4.73827 12.7841C5.72496 13.3171 6.83047 13.5964 7.9539 13.5964H7.95685C11.6655 13.5964 14.6844 10.602 14.686 6.92148C14.6867 5.138 13.9874 3.46093 12.7167 2.19919C11.4464 0.937562 9.75678 0.242391 7.95658 0.241577C4.24751 0.241577 1.22881 3.23584 1.22728 6.91621" fill="url(#paint0_linear_22_1142)"/>
<path d="M0.986982 6.91405C0.9866 8.13264 1.30745 9.32226 1.91744 10.3709L0.928467 13.9537L4.62376 12.9923C5.64193 13.5432 6.78829 13.8336 7.95477 13.834H7.95778C11.7995 13.834 14.9268 10.7319 14.9285 6.91958C14.9291 5.07202 14.2046 3.33466 12.8886 2.02772C11.5725 0.720946 9.82246 0.00075969 7.95778 0C4.11544 0 0.988514 3.10171 0.986982 6.91405ZM3.18761 10.1903L3.04963 9.97294C2.46962 9.05784 2.16347 8.00035 2.16391 6.91448C2.16517 3.74576 4.76414 1.16775 7.95997 1.16775C9.50762 1.1684 10.9621 1.76704 12.0561 2.85318C13.15 3.93943 13.7519 5.38338 13.7515 6.91915C13.7501 10.0879 11.1511 12.6662 7.95778 12.6662H7.95548C6.91571 12.6657 5.89595 12.3886 5.00662 11.865L4.79498 11.7405L2.60212 12.3109L3.18761 10.1902V10.1903Z" fill="url(#paint1_linear_22_1142)"/>
<path d="M6.21554 4.02352C6.08505 3.73576 5.94773 3.72995 5.82365 3.72491C5.72204 3.72057 5.60588 3.72089 5.48983 3.72089C5.37368 3.72089 5.18495 3.76425 5.02543 3.93708C4.86574 4.11007 4.41577 4.52812 4.41577 5.37837C4.41577 6.22868 5.03992 7.0504 5.12693 7.16581C5.21404 7.28102 6.33186 9.0817 8.1022 9.77443C9.57351 10.3501 9.87293 10.2356 10.1922 10.2067C10.5116 10.178 11.2228 9.78881 11.3679 9.38525C11.5131 8.98174 11.5131 8.63587 11.4695 8.56359C11.426 8.49158 11.3098 8.44833 11.1357 8.36195C10.9614 8.2755 10.1051 7.8574 9.9455 7.79972C9.78581 7.74209 9.66971 7.71333 9.55355 7.88638C9.4374 8.05916 9.10386 8.44833 9.00219 8.56359C8.90064 8.67912 8.79897 8.6935 8.62485 8.60705C8.45056 8.52034 7.88963 8.33807 7.22414 7.74936C6.70636 7.29127 6.35679 6.72557 6.25519 6.55253C6.15358 6.37975 6.2443 6.28609 6.33164 6.19998C6.4099 6.12254 6.50587 5.99817 6.59304 5.89729C6.67989 5.79636 6.70887 5.72436 6.76695 5.6091C6.82508 5.49374 6.79599 5.39281 6.75251 5.30636C6.70887 5.21992 6.37041 4.36522 6.21554 4.02352Z" fill="white"/>
</g>
<defs>
<linearGradient id="paint0_linear_22_1142" x1="676.925" y1="1347.31" x2="676.925" y2="0.241577" gradientUnits="userSpaceOnUse">
<stop stop-color="#1FAF38"/>
<stop offset="1" stop-color="#60D669"/>
</linearGradient>
<linearGradient id="paint1_linear_22_1142" x1="700.928" y1="1395.37" x2="700.928" y2="0" gradientUnits="userSpaceOnUse">
<stop stop-color="#F9F9F9"/>
<stop offset="1" stop-color="white"/>
</linearGradient>
<clipPath id="clip0_22_1142">
<rect width="14" height="14" fill="white" transform="translate(0.928467)"/>
</clipPath>
</defs>
</svg>
